# This file uses centimeters as units for non-parametric coordinates.

mtllib Alfombra.mtl
g default
v -31.331333 0.000000 31.331333
v 31.331333 0.000000 31.331333
v -31.331333 0.000000 -31.331333
v 31.331333 0.000000 -31.331333
vt 0.004883 0.004883
vt 0.995117 0.004883
vt 0.004883 0.995117
vt 0.995117 0.995117
vn 0.000000 1.000000 0.000000
vn 0.000000 1.000000 0.000000
vn 0.000000 1.000000 0.000000
vn 0.000000 1.000000 0.000000
s off
g pCube472
usemtl initialShadingGroup
f 1/1/1 2/2/2 4/4/3 3/3/4
