# This file uses centimeters as units for non-parametric coordinates.

mtllib Reja v2.mtl
g default
v -0.032227 0.000000 1.514648
v -0.032227 0.000000 -1.514648
v -0.032227 1.754761 1.514648
v -0.032227 1.754761 -1.514648
v 0.032227 1.754761 1.514648
v 0.032227 1.754761 -1.514648
v 0.032227 0.000000 1.514648
v 0.032227 0.000000 -1.514648
v 0.032227 1.694702 1.444336
v 0.032227 1.694702 -1.470703
v 0.032227 0.060059 -1.470703
v 0.032227 0.060059 1.444336
v -0.013184 1.694702 1.444336
v -0.013184 1.694702 -1.470703
v -0.013184 0.060059 -1.470703
v -0.013184 0.060059 1.444336
v -0.018555 1.578735 1.444336
v 0.003906 1.595947 1.444336
v 0.018066 1.596924 1.444336
v 0.031738 1.592285 1.444336
v -0.018555 1.578735 -1.470703
v 0.031738 1.592285 -1.470703
v 0.018066 1.596924 -1.470703
v 0.003906 1.595947 -1.470703
v 0.018066 1.642700 1.444336
v 0.031738 1.592285 1.444336
v 0.020996 1.601807 1.444336
v 0.013672 1.629150 1.444336
v 0.018066 1.642700 -1.470703
v 0.013672 1.629150 -1.470703
v 0.020996 1.601807 -1.470703
v 0.031738 1.592285 -1.470703
v -0.018555 0.104248 1.444336
v 0.003906 0.121460 1.444336
v 0.018066 0.122437 1.444336
v 0.031738 0.117798 1.444336
v -0.018555 0.104248 -1.470703
v 0.031738 0.117798 -1.470703
v 0.018066 0.122437 -1.470703
v 0.003906 0.121460 -1.470703
v 0.018066 0.168335 1.444336
v 0.031738 0.117798 1.444336
v 0.020996 0.127319 1.444336
v 0.013672 0.154663 1.444336
v 0.018066 0.168335 -1.470703
v 0.013672 0.154663 -1.470703
v 0.020996 0.127319 -1.470703
v 0.031738 0.117798 -1.470703
v -0.018555 0.274902 1.444336
v 0.003906 0.292114 1.444336
v 0.018066 0.293091 1.444336
v 0.031738 0.288452 1.444336
v -0.018555 0.274902 -1.470703
v 0.031738 0.288452 -1.470703
v 0.018066 0.293091 -1.470703
v 0.003906 0.292114 -1.470703
v 0.018066 0.338867 1.444336
v 0.031738 0.288452 1.444336
v 0.020996 0.297974 1.444336
v 0.013672 0.325317 1.444336
v 0.018066 0.338867 -1.470703
v 0.013672 0.325317 -1.470703
v 0.020996 0.297974 -1.470703
v 0.031738 0.288452 -1.470703
v -0.018555 0.461182 1.444336
v 0.003906 0.478394 1.444336
v 0.018066 0.479370 1.444336
v 0.031738 0.474731 1.444336
v -0.018555 0.461182 -1.470703
v 0.031738 0.474731 -1.470703
v 0.018066 0.479370 -1.470703
v 0.003906 0.478394 -1.470703
v 0.018066 0.525146 1.444336
v 0.031738 0.474731 1.444336
v 0.020996 0.484253 1.444336
v 0.013672 0.511475 1.444336
v 0.018066 0.525146 -1.470703
v 0.013672 0.511475 -1.470703
v 0.020996 0.484253 -1.470703
v 0.031738 0.474731 -1.470703
v -0.018555 0.647461 1.444336
v 0.003906 0.664673 1.444336
v 0.018066 0.665649 1.444336
v 0.031738 0.661011 1.444336
v -0.018555 0.647461 -1.470703
v 0.031738 0.661011 -1.470703
v 0.018066 0.665649 -1.470703
v 0.003906 0.664673 -1.470703
v 0.018066 0.711426 1.444336
v 0.031738 0.661011 1.444336
v 0.020996 0.670532 1.444336
v 0.013672 0.697754 1.444336
v 0.018066 0.711426 -1.470703
v 0.013672 0.697754 -1.470703
v 0.020996 0.670532 -1.470703
v 0.031738 0.661011 -1.470703
v -0.018555 0.833740 1.444336
v 0.003906 0.850952 1.444336
v 0.018066 0.851807 1.444336
v 0.031738 0.847290 1.444336
v -0.018555 0.833740 -1.470703
v 0.031738 0.847290 -1.470703
v 0.018066 0.851807 -1.470703
v 0.003906 0.850952 -1.470703
v 0.018066 0.897705 1.444336
v 0.031738 0.847290 1.444336
v 0.020996 0.856689 1.444336
v 0.013672 0.884033 1.444336
v 0.018066 0.897705 -1.470703
v 0.013672 0.884033 -1.470703
v 0.020996 0.856689 -1.470703
v 0.031738 0.847290 -1.470703
v -0.018555 1.020020 1.444336
v 0.003906 1.037231 1.444336
v 0.018066 1.038086 1.444336
v 0.031738 1.033447 1.444336
v -0.018555 1.020020 -1.470703
v 0.031738 1.033447 -1.470703
v 0.018066 1.038086 -1.470703
v 0.003906 1.037231 -1.470703
v 0.018066 1.083984 1.444336
v 0.031738 1.033447 1.444336
v 0.020996 1.042969 1.444336
v 0.013672 1.070312 1.444336
v 0.018066 1.083984 -1.470703
v 0.013672 1.070312 -1.470703
v 0.020996 1.042969 -1.470703
v 0.031738 1.033447 -1.470703
v -0.018555 1.206177 1.444336
v 0.003906 1.223389 1.444336
v 0.018066 1.224365 1.444336
v 0.031738 1.219727 1.444336
v -0.018555 1.206177 -1.470703
v 0.031738 1.219727 -1.470703
v 0.018066 1.224365 -1.470703
v 0.003906 1.223389 -1.470703
v 0.018066 1.270264 1.444336
v 0.031738 1.219727 1.444336
v 0.020996 1.229248 1.444336
v 0.013672 1.256592 1.444336
v 0.018066 1.270264 -1.470703
v 0.013672 1.256592 -1.470703
v 0.020996 1.229248 -1.470703
v 0.031738 1.219727 -1.470703
v -0.018555 1.392456 1.444336
v 0.003906 1.409668 1.444336
v 0.018066 1.410645 1.444336
v 0.031738 1.406006 1.444336
v -0.018555 1.392456 -1.470703
v 0.031738 1.406006 -1.470703
v 0.018066 1.410645 -1.470703
v 0.003906 1.409668 -1.470703
v 0.018066 1.456543 1.444336
v 0.031738 1.406006 1.444336
v 0.020996 1.415527 1.444336
v 0.013672 1.442871 1.444336
v 0.018066 1.456543 -1.470703
v 0.013672 1.442871 -1.470703
v 0.020996 1.415527 -1.470703
v 0.031738 1.406006 -1.470703
vt 0.000000 0.547472
vt 0.011284 0.534135
vt 0.889082 0.533538
vt 0.900925 0.547128
vt 0.014459 0.013727
vt 0.002781 0.000000
vt 0.899805 0.001853
vt 0.888423 0.015138
vt 0.031920 0.516540
vt 0.875853 0.516215
vt 0.875964 0.032065
vt 0.035844 0.031482
vt 0.040287 0.507355
vt 0.868282 0.506375
vt 0.867648 0.041346
vt 0.043430 0.041279
vt 0.918398 0.811043
vt 0.918313 0.000001
vt 0.918350 0.000010
vt 0.918435 0.811037
vt 0.914393 0.811014
vt 0.914296 0.000002
vt 0.910444 0.811014
vt 0.910347 0.000002
vt 0.902474 0.000003
vt 0.902571 0.811015
vt 0.934249 0.811012
vt 0.930286 0.811012
vt 0.930218 0.000000
vt 0.934181 0.000000
vt 0.922342 0.000001
vt 0.922410 0.811013
vt 0.051732 0.120808
vt 0.862740 0.120713
vt 0.862768 0.120737
vt 0.051704 0.120829
vt 0.051727 0.116770
vt 0.862739 0.116696
vt 0.051727 0.112821
vt 0.862739 0.112747
vt 0.862738 0.104875
vt 0.051726 0.104948
vt 0.051728 0.136681
vt 0.051728 0.132686
vt 0.862740 0.132626
vt 0.862741 0.136622
vt 0.862740 0.124751
vt 0.051728 0.124810
vt 0.051737 0.089066
vt 0.862718 0.088946
vt 0.862735 0.088981
vt 0.051724 0.089101
vt 0.051706 0.085032
vt 0.862718 0.084929
vt 0.051705 0.081083
vt 0.862718 0.080980
vt 0.862716 0.073107
vt 0.051704 0.073210
vt 0.051709 0.104948
vt 0.051708 0.100985
vt 0.862720 0.100858
vt 0.862721 0.104821
vt 0.862719 0.092983
vt 0.051707 0.093109
vt 0.047009 0.152503
vt 0.858018 0.152639
vt 0.857994 0.152667
vt 0.047034 0.152529
vt 0.047006 0.148502
vt 0.858019 0.148622
vt 0.047007 0.144554
vt 0.858019 0.144673
vt 0.858020 0.136800
vt 0.047008 0.136681
vt 0.047004 0.168378
vt 0.047004 0.164382
vt 0.858016 0.164485
vt 0.858016 0.168480
vt 0.858017 0.156642
vt 0.047005 0.156540
vt 0.047004 0.057357
vt 0.858046 0.057184
vt 0.858023 0.057216
vt 0.047024 0.057389
vt 0.047033 0.053362
vt 0.858045 0.053167
vt 0.047032 0.049413
vt 0.858044 0.049218
vt 0.858042 0.041346
vt 0.047030 0.041541
vt 0.047037 0.073211
vt 0.047036 0.069215
vt 0.858048 0.069040
vt 0.858049 0.073035
vt 0.858047 0.061197
vt 0.047035 0.061372
vt 0.051723 0.216121
vt 0.862747 0.216051
vt 0.862764 0.216083
vt 0.051704 0.216151
vt 0.051734 0.212104
vt 0.862746 0.212045
vt 0.051734 0.208157
vt 0.862746 0.208098
vt 0.862745 0.200225
vt 0.051733 0.200285
vt 0.051735 0.231974
vt 0.051735 0.227978
vt 0.862747 0.227945
vt 0.862747 0.231941
vt 0.862747 0.220070
vt 0.051735 0.220103
vt 0.051732 0.184366
vt 0.862717 0.184317
vt 0.862745 0.184343
vt 0.051706 0.184393
vt 0.051705 0.180325
vt 0.862717 0.180300
vt 0.051705 0.176378
vt 0.862717 0.176353
vt 0.862717 0.168480
vt 0.051704 0.168506
vt 0.051706 0.200263
vt 0.051705 0.196267
vt 0.862718 0.196230
vt 0.862718 0.200225
vt 0.862718 0.188354
vt 0.051705 0.188392
vt 0.951212 0.810994
vt 0.951246 0.000001
vt 0.951282 0.000011
vt 0.951246 0.810982
vt 0.947199 0.811013
vt 0.947229 0.000001
vt 0.943250 0.811012
vt 0.943280 0.000000
vt 0.935407 0.000000
vt 0.935377 0.811012
vt 0.967132 0.811013
vt 0.963136 0.811013
vt 0.963141 0.000001
vt 0.967136 0.000001
vt 0.955265 0.000001
vt 0.955261 0.811013
vt 0.984093 0.811034
vt 0.984132 0.000000
vt 0.984155 0.000031
vt 0.984115 0.811005
vt 0.980101 0.811012
vt 0.980115 0.000000
vt 0.976152 0.811012
vt 0.976167 0.000000
vt 0.968294 0.000000
vt 0.968280 0.811012
vt 0.999981 0.811013
vt 0.995986 0.811013
vt 0.996005 0.000001
vt 1.000000 0.000001
vt 0.988129 0.000000
vt 0.988110 0.811013
vn 0.000000 1.000000 0.000000
vn 0.000000 1.000000 0.000000
vn 0.000000 1.000000 0.000000
vn 0.000000 1.000000 0.000000
vn 0.000000 -1.000000 0.000000
vn 0.000000 -1.000000 0.000000
vn 0.000000 -1.000000 0.000000
vn 0.000000 -1.000000 0.000000
vn 0.000000 0.000000 -1.000000
vn 0.000000 0.000000 -1.000000
vn 0.000000 0.000000 -1.000000
vn 0.000000 0.000000 -1.000000
vn -0.000000 0.000000 1.000000
vn -0.000000 0.000000 1.000000
vn -0.000000 0.000000 1.000000
vn -0.000000 0.000000 1.000000
vn 1.000000 0.000000 0.000000
vn 1.000000 0.000000 0.000000
vn 1.000000 0.000000 0.000000
vn 1.000000 0.000000 0.000000
vn 1.000000 0.000000 0.000000
vn 1.000000 0.000000 0.000000
vn 1.000000 0.000000 0.000000
vn 1.000000 0.000000 0.000000
vn 1.000000 0.000000 0.000000
vn 1.000000 0.000000 0.000000
vn 1.000000 0.000000 0.000000
vn 1.000000 0.000000 0.000000
vn 1.000000 0.000000 0.000000
vn 1.000000 0.000000 0.000000
vn 1.000000 0.000000 0.000000
vn 1.000000 0.000000 0.000000
vn 0.000000 -1.000000 0.000000
vn 0.000000 -1.000000 0.000000
vn 0.000000 -1.000000 0.000000
vn 0.000000 -1.000000 0.000000
vn -0.000000 0.000000 1.000000
vn -0.000000 0.000000 1.000000
vn -0.000000 0.000000 1.000000
vn -0.000000 0.000000 1.000000
vn 0.000000 1.000000 0.000000
vn 0.000000 1.000000 0.000000
vn 0.000000 1.000000 0.000000
vn 0.000000 1.000000 0.000000
vn 0.000000 0.000000 -1.000000
vn 0.000000 0.000000 -1.000000
vn 0.000000 0.000000 -1.000000
vn 0.000000 0.000000 -1.000000
vn 1.000000 0.000000 0.000000
vn 1.000000 0.000000 0.000000
vn 1.000000 0.000000 0.000000
vn 1.000000 0.000000 0.000000
vn -0.320984 -0.947085 -0.000000
vn -0.130349 -0.991468 -0.000000
vn -0.130349 -0.991468 -0.000000
vn -0.320984 -0.947085 -0.000000
vn -0.130349 -0.991468 -0.000000
vn 0.442235 -0.896899 0.000000
vn 0.442235 -0.896899 0.000000
vn -0.130349 -0.991468 -0.000000
vn 0.608736 -0.793373 0.000000
vn 0.442235 -0.896899 0.000000
vn 0.442235 -0.896899 0.000000
vn 0.608736 -0.793373 0.000000
vn 0.946928 -0.321444 0.000000
vn 0.997862 0.065365 0.000000
vn 0.997862 0.065365 0.000000
vn 0.946928 -0.321444 0.000000
vn 0.896887 0.442260 0.000000
vn 0.997862 0.065365 0.000000
vn 0.997862 0.065365 0.000000
vn 0.896887 0.442260 0.000000
vn 0.896887 0.442260 0.000000
vn 0.659198 0.751970 0.000000
vn 0.659198 0.751970 0.000000
vn 0.896887 0.442260 0.000000
vn 1.000000 0.000000 0.000000
vn 1.000000 0.000000 0.000000
vn 1.000000 0.000000 0.000000
vn 1.000000 0.000000 0.000000
vn -0.321088 -0.947049 -0.000000
vn -0.130408 -0.991461 -0.000000
vn -0.130408 -0.991461 -0.000000
vn -0.321088 -0.947049 -0.000000
vn -0.130408 -0.991461 -0.000000
vn 0.442268 -0.896883 0.000000
vn 0.442268 -0.896883 0.000000
vn -0.130408 -0.991461 -0.000000
vn 0.608774 -0.793344 0.000000
vn 0.442268 -0.896883 0.000000
vn 0.442268 -0.896883 0.000000
vn 0.608774 -0.793344 0.000000
vn 0.946940 -0.321409 0.000000
vn 0.997862 0.065362 0.000000
vn 0.997862 0.065362 0.000000
vn 0.946940 -0.321409 0.000000
vn 0.896879 0.442276 0.000000
vn 0.997862 0.065362 0.000000
vn 0.997862 0.065362 0.000000
vn 0.896879 0.442276 0.000000
vn 0.896879 0.442276 0.000000
vn 0.659132 0.752027 0.000000
vn 0.659132 0.752027 0.000000
vn 0.896879 0.442276 0.000000
vn 1.000000 0.000000 0.000000
vn 1.000000 0.000000 0.000000
vn 1.000000 0.000000 0.000000
vn 1.000000 0.000000 0.000000
vn -0.321088 -0.947049 -0.000000
vn -0.130408 -0.991461 -0.000000
vn -0.130408 -0.991461 -0.000000
vn -0.321088 -0.947049 -0.000000
vn -0.130408 -0.991461 -0.000000
vn 0.442268 -0.896883 0.000000
vn 0.442268 -0.896883 0.000000
vn -0.130408 -0.991461 -0.000000
vn 0.608774 -0.793344 0.000000
vn 0.442268 -0.896883 0.000000
vn 0.442268 -0.896883 0.000000
vn 0.608774 -0.793344 0.000000
vn 0.946928 -0.321444 0.000000
vn 0.997862 0.065365 0.000000
vn 0.997862 0.065365 0.000000
vn 0.946928 -0.321444 0.000000
vn 0.896887 0.442260 0.000000
vn 0.997862 0.065365 0.000000
vn 0.997862 0.065365 0.000000
vn 0.896887 0.442260 0.000000
vn 0.896887 0.442260 0.000000
vn 0.659198 0.751970 0.000000
vn 0.659198 0.751970 0.000000
vn 0.896887 0.442260 0.000000
vn 1.000000 0.000000 0.000000
vn 1.000000 0.000000 0.000000
vn 1.000000 0.000000 0.000000
vn 1.000000 0.000000 0.000000
vn -0.320984 -0.947085 -0.000000
vn -0.130349 -0.991468 -0.000000
vn -0.130349 -0.991468 -0.000000
vn -0.320984 -0.947085 -0.000000
vn -0.130349 -0.991468 -0.000000
vn 0.442235 -0.896899 0.000000
vn 0.442235 -0.896899 0.000000
vn -0.130349 -0.991468 -0.000000
vn 0.608736 -0.793373 0.000000
vn 0.442235 -0.896899 0.000000
vn 0.442235 -0.896899 0.000000
vn 0.608736 -0.793373 0.000000
vn 0.946940 -0.321409 0.000000
vn 0.997862 0.065365 0.000000
vn 0.997862 0.065365 0.000000
vn 0.946940 -0.321409 0.000000
vn 0.896879 0.442276 0.000000
vn 0.997862 0.065365 0.000000
vn 0.997862 0.065365 0.000000
vn 0.896879 0.442276 0.000000
vn 0.896879 0.442276 0.000000
vn 0.659198 0.751970 0.000000
vn 0.659198 0.751970 0.000000
vn 0.896879 0.442276 0.000000
vn 1.000000 0.000000 0.000000
vn 1.000000 0.000000 0.000000
vn 1.000000 0.000000 0.000000
vn 1.000000 0.000000 0.000000
vn -0.321088 -0.947049 -0.000000
vn -0.130408 -0.991461 -0.000000
vn -0.130408 -0.991461 -0.000000
vn -0.321088 -0.947049 -0.000000
vn -0.130408 -0.991461 -0.000000
vn 0.442268 -0.896883 0.000000
vn 0.442268 -0.896883 0.000000
vn -0.130408 -0.991461 -0.000000
vn 0.608774 -0.793344 0.000000
vn 0.442268 -0.896883 0.000000
vn 0.442268 -0.896883 0.000000
vn 0.608774 -0.793344 0.000000
vn 0.946928 -0.321444 0.000000
vn 0.997862 0.065365 0.000000
vn 0.997862 0.065365 0.000000
vn 0.946928 -0.321444 0.000000
vn 0.896879 0.442276 0.000000
vn 0.997862 0.065365 0.000000
vn 0.997862 0.065365 0.000000
vn 0.896879 0.442276 0.000000
vn 0.896879 0.442276 0.000000
vn 0.659132 0.752027 0.000000
vn 0.659132 0.752027 0.000000
vn 0.896879 0.442276 0.000000
vn 1.000000 0.000000 0.000000
vn 1.000000 0.000000 0.000000
vn 1.000000 0.000000 0.000000
vn 1.000000 0.000000 0.000000
vn -0.320984 -0.947085 -0.000000
vn -0.130349 -0.991468 -0.000000
vn -0.130349 -0.991468 -0.000000
vn -0.320984 -0.947085 -0.000000
vn -0.130349 -0.991468 -0.000000
vn 0.442235 -0.896899 0.000000
vn 0.442235 -0.896899 0.000000
vn -0.130349 -0.991468 -0.000000
vn 0.608736 -0.793373 0.000000
vn 0.442235 -0.896899 0.000000
vn 0.442235 -0.896899 0.000000
vn 0.608736 -0.793373 0.000000
vn 0.946928 -0.321444 0.000000
vn 0.997862 0.065365 0.000000
vn 0.997862 0.065365 0.000000
vn 0.946928 -0.321444 0.000000
vn 0.896887 0.442260 0.000000
vn 0.997862 0.065365 0.000000
vn 0.997862 0.065365 0.000000
vn 0.896887 0.442260 0.000000
vn 0.896887 0.442260 0.000000
vn 0.659198 0.751970 0.000000
vn 0.659198 0.751970 0.000000
vn 0.896887 0.442260 0.000000
vn 1.000000 0.000000 0.000000
vn 1.000000 0.000000 0.000000
vn 1.000000 0.000000 0.000000
vn 1.000000 0.000000 0.000000
vn -0.321088 -0.947049 -0.000000
vn -0.130408 -0.991461 -0.000000
vn -0.130408 -0.991461 -0.000000
vn -0.321088 -0.947049 -0.000000
vn -0.130408 -0.991461 -0.000000
vn 0.442268 -0.896883 0.000000
vn 0.442268 -0.896883 0.000000
vn -0.130408 -0.991461 -0.000000
vn 0.608774 -0.793344 0.000000
vn 0.442268 -0.896883 0.000000
vn 0.442268 -0.896883 0.000000
vn 0.608774 -0.793344 0.000000
vn 0.946940 -0.321409 0.000000
vn 0.997862 0.065362 0.000000
vn 0.997862 0.065362 0.000000
vn 0.946940 -0.321409 0.000000
vn 0.896879 0.442276 0.000000
vn 0.997862 0.065362 0.000000
vn 0.997862 0.065362 0.000000
vn 0.896879 0.442276 0.000000
vn 0.896879 0.442276 0.000000
vn 0.659132 0.752027 0.000000
vn 0.659132 0.752027 0.000000
vn 0.896879 0.442276 0.000000
vn 1.000000 0.000000 0.000000
vn 1.000000 0.000000 0.000000
vn 1.000000 0.000000 0.000000
vn 1.000000 0.000000 0.000000
vn -0.320984 -0.947085 -0.000000
vn -0.130349 -0.991468 -0.000000
vn -0.130349 -0.991468 -0.000000
vn -0.320984 -0.947085 -0.000000
vn -0.130349 -0.991468 -0.000000
vn 0.442235 -0.896899 0.000000
vn 0.442235 -0.896899 0.000000
vn -0.130349 -0.991468 -0.000000
vn 0.608736 -0.793373 0.000000
vn 0.442235 -0.896899 0.000000
vn 0.442235 -0.896899 0.000000
vn 0.608736 -0.793373 0.000000
vn 0.946928 -0.321444 0.000000
vn 0.997862 0.065365 0.000000
vn 0.997862 0.065365 0.000000
vn 0.946928 -0.321444 0.000000
vn 0.896887 0.442260 0.000000
vn 0.997862 0.065365 0.000000
vn 0.997862 0.065365 0.000000
vn 0.896887 0.442260 0.000000
vn 0.896887 0.442260 0.000000
vn 0.659198 0.751970 0.000000
vn 0.659198 0.751970 0.000000
vn 0.896887 0.442260 0.000000
vn 1.000000 0.000000 0.000000
vn 1.000000 0.000000 0.000000
vn 1.000000 0.000000 0.000000
vn 1.000000 0.000000 0.000000
vn -0.321088 -0.947049 -0.000000
vn -0.130408 -0.991461 -0.000000
vn -0.130408 -0.991461 -0.000000
vn -0.321088 -0.947049 -0.000000
vn -0.130408 -0.991461 -0.000000
vn 0.442268 -0.896883 0.000000
vn 0.442268 -0.896883 0.000000
vn -0.130408 -0.991461 -0.000000
vn 0.608774 -0.793344 0.000000
vn 0.442268 -0.896883 0.000000
vn 0.442268 -0.896883 0.000000
vn 0.608774 -0.793344 0.000000
vn 0.946928 -0.321444 0.000000
vn 0.997862 0.065365 0.000000
vn 0.997862 0.065365 0.000000
vn 0.946928 -0.321444 0.000000
vn 0.896887 0.442260 0.000000
vn 0.997862 0.065365 0.000000
vn 0.997862 0.065365 0.000000
vn 0.896887 0.442260 0.000000
vn 0.896887 0.442260 0.000000
vn 0.659198 0.751970 0.000000
vn 0.659198 0.751970 0.000000
vn 0.896887 0.442260 0.000000
s off
g pCube124
usemtl pCube124SG
f 3/1/1 5/2/2 6/3/3 4/4/4
f 7/5/5 1/6/6 2/7/7 8/8/8
f 2/7/9 4/4/10 6/3/11 8/8/12
f 7/5/13 5/2/14 3/1/15 1/6/16
f 5/2/17 9/9/18 10/10/19 6/3/20
f 6/3/21 10/10/22 11/11/23 8/8/24
f 8/8/25 11/11/26 12/12/27 7/5/28
f 7/5/29 12/12/30 9/9/31 5/2/32
f 9/9/33 13/13/34 14/14/35 10/10/36
f 10/10/37 14/14/38 15/15/39 11/11/40
f 11/11/41 15/15/42 16/16/43 12/12/44
f 12/12/45 16/16/46 13/13/47 9/9/48
f 20/17/49 22/18/50 32/19/51 26/20/52
f 20/17/53 19/21/54 23/22/55 22/18/56
f 19/21/57 18/23/58 24/24/59 23/22/60
f 21/25/61 24/24/62 18/23/63 17/26/64
f 25/27/65 28/28/66 30/29/67 29/30/68
f 31/31/69 30/29/70 28/28/71 27/32/72
f 27/32/73 26/20/74 32/19/75 31/31/76
f 36/33/77 38/34/78 48/35/79 42/36/80
f 36/33/81 35/37/82 39/38/83 38/34/84
f 35/37/85 34/39/86 40/40/87 39/38/88
f 37/41/89 40/40/90 34/39/91 33/42/92
f 41/43/93 44/44/94 46/45/95 45/46/96
f 47/47/97 46/45/98 44/44/99 43/48/100
f 43/48/101 42/36/102 48/35/103 47/47/104
f 52/49/105 54/50/106 64/51/107 58/52/108
f 52/49/109 51/53/110 55/54/111 54/50/112
f 51/53/113 50/55/114 56/56/115 55/54/116
f 53/57/117 56/56/118 50/55/119 49/58/120
f 57/59/121 60/60/122 62/61/123 61/62/124
f 63/63/125 62/61/126 60/60/127 59/64/128
f 59/64/129 58/52/130 64/51/131 63/63/132
f 68/65/133 70/66/134 80/67/135 74/68/136
f 68/65/137 67/69/138 71/70/139 70/66/140
f 67/69/141 66/71/142 72/72/143 71/70/144
f 69/73/145 72/72/146 66/71/147 65/74/148
f 73/75/149 76/76/150 78/77/151 77/78/152
f 79/79/153 78/77/154 76/76/155 75/80/156
f 75/80/157 74/68/158 80/67/159 79/79/160
f 84/81/161 86/82/162 96/83/163 90/84/164
f 84/81/165 83/85/166 87/86/167 86/82/168
f 83/85/169 82/87/170 88/88/171 87/86/172
f 85/89/173 88/88/174 82/87/175 81/90/176
f 89/91/177 92/92/178 94/93/179 93/94/180
f 95/95/181 94/93/182 92/92/183 91/96/184
f 91/96/185 90/84/186 96/83/187 95/95/188
f 100/97/189 102/98/190 112/99/191 106/100/192
f 100/97/193 99/101/194 103/102/195 102/98/196
f 99/101/197 98/103/198 104/104/199 103/102/200
f 101/105/201 104/104/202 98/103/203 97/106/204
f 105/107/205 108/108/206 110/109/207 109/110/208
f 111/111/209 110/109/210 108/108/211 107/112/212
f 107/112/213 106/100/214 112/99/215 111/111/216
f 116/113/217 118/114/218 128/115/219 122/116/220
f 116/113/221 115/117/222 119/118/223 118/114/224
f 115/117/225 114/119/226 120/120/227 119/118/228
f 117/121/229 120/120/230 114/119/231 113/122/232
f 121/123/233 124/124/234 126/125/235 125/126/236
f 127/127/237 126/125/238 124/124/239 123/128/240
f 123/128/241 122/116/242 128/115/243 127/127/244
f 132/129/245 134/130/246 144/131/247 138/132/248
f 132/129/249 131/133/250 135/134/251 134/130/252
f 131/133/253 130/135/254 136/136/255 135/134/256
f 133/137/257 136/136/258 130/135/259 129/138/260
f 137/139/261 140/140/262 142/141/263 141/142/264
f 143/143/265 142/141/266 140/140/267 139/144/268
f 139/144/269 138/132/270 144/131/271 143/143/272
f 148/145/273 150/146/274 160/147/275 154/148/276
f 148/145/277 147/149/278 151/150/279 150/146/280
f 147/149/281 146/151/282 152/152/283 151/150/284
f 149/153/285 152/152/286 146/151/287 145/154/288
f 153/155/289 156/156/290 158/157/291 157/158/292
f 159/159/293 158/157/294 156/156/295 155/160/296
f 155/160/297 154/148/298 160/147/299 159/159/300
