# This file uses centimeters as units for non-parametric coordinates.

mtllib Pareeed.mtl
g default
v 7.047484 0.000000 87.000087
v 9.047484 0.000000 87.000087
v 7.047484 24.000001 87.000087
v 9.047484 24.000001 87.000087
v 7.047484 24.000001 29.000007
v 9.047484 24.000001 29.000007
v 7.047484 0.000000 29.000007
v 9.047484 0.000000 29.000007
v 9.047484 24.000001 66.320804
v 7.047484 24.000001 66.320804
v 7.047484 0.000000 66.320804
v 9.047484 0.000000 66.320804
v 9.047484 24.000001 76.457716
v 7.047484 24.000001 76.457716
v 7.047484 0.000000 76.457716
v 9.047484 0.000000 76.457716
v 9.047484 9.054263 75.556642
v 9.047484 9.054263 87.000087
v 7.047484 9.054263 87.000087
v 7.047484 9.054263 75.556642
v 7.047484 9.054263 67.221850
v 7.047484 6.000000 29.000007
v 9.047484 6.000000 29.000007
v 9.047484 9.054263 67.221850
v 9.047484 22.032536 73.979801
v 9.047484 22.032536 87.000087
v 7.047484 22.032536 87.000087
v 7.047484 22.032536 73.979801
v 7.047484 22.032536 68.798719
v 7.047484 22.032536 29.000007
v 9.047484 22.032536 29.000007
v 9.047484 22.032536 68.798719
v 9.047484 18.009513 75.969641
v 9.047484 18.009514 87.000087
v 7.047484 18.009514 87.000087
v 7.047484 18.009513 75.969641
v 7.047484 18.009513 66.808871
v 7.047484 18.009514 29.000007
v 9.047484 18.009514 29.000007
v 9.047484 18.009513 66.808871
v 9.047484 10.430344 66.237791
v 9.047484 10.430344 76.540722
v 9.047484 10.430344 87.000087
v 7.047484 10.430344 87.000087
v 7.047484 10.430344 76.540722
v 7.047484 10.430344 66.237791
v 7.047484 10.430344 29.000007
v 9.047484 10.430344 29.000007
v 9.047484 6.000000 41.000003
v 9.047484 0.000000 41.000003
v 7.047484 0.000000 41.000003
v 7.047484 6.000000 41.000003
v 7.047484 10.430344 41.000000
v 7.047484 18.009513 41.000003
v 7.047484 22.032536 41.000010
v 7.047484 24.000001 41.000003
v 9.047484 24.000001 41.000003
v 9.047484 22.032536 41.000010
v 9.047484 18.009513 41.000003
v 9.047484 10.430344 41.000000
v 9.047484 6.000000 36.036326
v 9.047484 0.000000 36.036319
v 7.047484 0.000000 36.036319
v 7.047484 6.000000 36.036326
v 7.047484 10.430344 36.036319
v 7.047484 18.009514 36.036319
v 7.047484 22.032536 36.036326
v 7.047484 24.000001 36.036319
v 9.047484 24.000001 36.036319
v 9.047484 22.032536 36.036326
v 9.047484 18.009514 36.036319
v 9.047484 10.430344 36.036319
vt 0.375000 0.000000
vt 0.625000 0.000000
vt 0.375000 0.250000
vt 0.625000 0.250000
vt 0.375000 0.500000
vt 0.625000 0.500000
vt 0.375000 0.750000
vt 0.625000 0.750000
vt 0.375000 1.000000
vt 0.625000 1.000000
vt 0.875000 0.000000
vt 0.875000 0.250000
vt 0.125000 0.000000
vt 0.125000 0.250000
vt 0.625000 0.375000
vt 0.750000 0.250000
vt 0.250000 0.250000
vt 0.375000 0.375000
vt 0.250000 0.000000
vt 0.375000 0.875000
vt 0.625000 0.875000
vt 0.750000 0.000000
vt 0.625000 0.312500
vt 0.687500 0.250000
vt 0.312500 0.250000
vt 0.375000 0.312500
vt 0.312500 0.000000
vt 0.375000 0.937500
vt 0.625000 0.937500
vt 0.687500 0.000000
vt 0.687500 0.125000
vt 0.625000 0.125000
vt 0.375000 0.125000
vt 0.312500 0.125000
vt 0.250000 0.125000
vt 0.125000 0.125000
vt 0.375000 0.625000
vt 0.625000 0.625000
vt 0.875000 0.125000
vt 0.750000 0.125000
vt 0.687500 0.187500
vt 0.625000 0.187500
vt 0.375000 0.187500
vt 0.312500 0.187500
vt 0.250000 0.187500
vt 0.125000 0.187500
vt 0.375000 0.562500
vt 0.625000 0.562500
vt 0.875000 0.187500
vt 0.750000 0.187500
vt 0.687500 0.156250
vt 0.625000 0.156250
vt 0.375000 0.156250
vt 0.311545 0.166544
vt 0.264509 0.166955
vt 0.125000 0.156250
vt 0.375000 0.593750
vt 0.625000 0.593750
vt 0.875000 0.156250
vt 0.750000 0.156250
vt 0.750000 0.140625
vt 0.687500 0.140625
vt 0.625000 0.140625
vt 0.375000 0.140625
vt 0.312906 0.135913
vt 0.260492 0.135763
vt 0.125000 0.140625
vt 0.375000 0.609375
vt 0.625000 0.609375
vt 0.875000 0.140625
vt 0.812500 0.125000
vt 0.625000 0.812500
vt 0.812500 0.000000
vt 0.185907 0.002830
vt 0.375007 0.812516
vt 0.181387 0.090896
vt 0.187500 0.140625
vt 0.187500 0.156250
vt 0.187500 0.187500
vt 0.187500 0.250000
vt 0.375000 0.437500
vt 0.625000 0.437500
vt 0.812500 0.250000
vt 0.812500 0.187500
vt 0.812500 0.156250
vt 0.812500 0.140625
vt 0.843750 0.125000
vt 0.625000 0.781250
vt 0.843750 0.000000
vt 0.156679 -0.007943
vt 0.375007 0.781149
vt 0.158380 0.092676
vt 0.156250 0.140625
vt 0.156250 0.156250
vt 0.156250 0.187500
vt 0.156250 0.250000
vt 0.375000 0.468750
vt 0.625000 0.468750
vt 0.843750 0.250000
vt 0.843750 0.187500
vt 0.843750 0.156250
vt 0.843750 0.140625
vt 0.000000 0.000000
vt 1.000000 0.000000
vt 0.997501 1.035405
vt 0.002707 1.035402
vt 0.000000 0.000000
vt 1.000000 0.000000
vt 0.999227 1.035409
vt 0.000371 1.035432
vt 0.000000 0.000000
vt 1.000000 0.000000
vt 0.999629 1.035432
vt 0.000773 1.035409
vt 0.000000 0.000000
vt 1.000000 0.000000
vt 0.998869 1.035432
vt 0.001508 1.035439
vt 0.000000 0.000000
vt 1.000000 0.000000
vt 0.999580 1.294892
vt 0.001319 1.294883
vt 0.000000 0.000000
vt 1.000000 0.000000
vt 0.991412 1.294871
vt 0.009065 1.294868
vt 0.000000 0.000000
vt 1.000000 0.000000
vt 0.998681 1.294883
vt 0.000420 1.294892
vn 0.000000 0.000000 1.000000
vn 0.000000 0.000000 1.000000
vn 0.000000 0.000000 1.000000
vn 0.000000 0.000000 1.000000
vn 0.000000 1.000000 0.000000
vn 0.000000 1.000000 0.000000
vn 0.000000 1.000000 0.000000
vn 0.000000 1.000000 0.000000
vn 0.000000 0.000000 -1.000000
vn 0.000000 0.000000 -1.000000
vn 0.000000 0.000000 -1.000000
vn 0.000000 0.000000 -1.000000
vn 0.000000 -1.000000 0.000000
vn 0.000000 -1.000000 0.000000
vn 0.000000 -1.000000 0.000000
vn 0.000000 -1.000000 0.000000
vn 1.000000 0.000000 0.000000
vn 1.000000 0.000000 0.000000
vn 1.000000 -0.000000 0.000000
vn 1.000000 0.000000 0.000000
vn -1.000000 0.000000 0.000000
vn -1.000000 -0.000000 0.000000
vn -1.000000 -0.000000 0.000000
vn -1.000000 -0.000000 0.000000
vn 0.000000 1.000000 0.000000
vn 0.000000 1.000000 0.000000
vn 0.000000 1.000000 0.000000
vn 0.000000 1.000000 0.000000
vn -1.000000 0.000000 0.000000
vn -1.000000 0.000000 0.000000
vn -1.000000 0.000000 0.000000
vn -1.000000 0.000000 0.000000
vn 0.000000 -1.000000 0.000000
vn 0.000000 -1.000000 0.000000
vn 0.000000 -1.000000 0.000000
vn 0.000000 -1.000000 0.000000
vn 1.000000 0.000000 0.000000
vn 1.000000 -0.000000 0.000000
vn 1.000000 -0.000000 0.000000
vn 1.000000 -0.000000 0.000000
vn 0.000000 1.000000 0.000000
vn 0.000000 1.000000 0.000000
vn -1.000000 -0.000000 0.000000
vn -1.000000 -0.000000 0.000000
vn 0.000000 -1.000000 0.000000
vn 0.000000 -1.000000 0.000000
vn 1.000000 0.000000 0.000000
vn 1.000000 0.000000 0.000000
vn 1.000000 0.000000 0.000000
vn 1.000000 0.000000 0.000000
vn 0.000000 0.000000 1.000000
vn 0.000000 0.000000 1.000000
vn -1.000000 -0.000000 0.000000
vn -1.000000 -0.000000 0.000000
vn -1.000000 0.000000 0.000000
vn -1.000000 0.000000 0.000000
vn -1.000000 0.000000 0.000000
vn 0.000000 0.000000 -1.000000
vn 0.000000 0.000000 -1.000000
vn 1.000000 0.000000 0.000000
vn 1.000000 0.000000 0.000000
vn 1.000000 0.000000 0.000000
vn 1.000000 0.000000 0.000000
vn 1.000000 0.000000 0.000000
vn 1.000000 -0.000000 0.000000
vn 1.000000 -0.000000 0.000000
vn 0.000000 0.000000 1.000000
vn 0.000000 0.000000 1.000000
vn 0.000000 0.000000 1.000000
vn 0.000000 0.000000 1.000000
vn -1.000000 0.000000 0.000000
vn -1.000000 0.000000 0.000000
vn -1.000000 0.000000 0.000000
vn -1.000000 0.000000 0.000000
vn -1.000000 -0.000000 0.000000
vn -1.000000 -0.000000 0.000000
vn -1.000000 0.000000 0.000000
vn -1.000000 0.000000 0.000000
vn -1.000000 0.000000 0.000000
vn -1.000000 0.000000 0.000000
vn 0.000000 0.000000 -1.000000
vn 0.000000 0.000000 -1.000000
vn 0.000000 0.000000 -1.000000
vn 0.000000 0.000000 -1.000000
vn 1.000000 0.000000 0.000000
vn 1.000000 -0.000000 0.000000
vn 1.000000 0.000000 0.000000
vn 1.000000 0.000000 0.000000
vn 1.000000 0.000000 0.000000
vn 1.000000 0.000000 0.000000
vn 1.000000 0.000000 0.000000
vn 1.000000 0.000000 0.000000
vn 0.000000 0.000000 1.000000
vn 0.000000 0.000000 1.000000
vn -1.000000 0.000000 0.000000
vn -1.000000 -0.000000 0.000000
vn -1.000000 -0.000000 0.000000
vn -1.000000 0.000000 0.000000
vn -1.000000 0.000000 0.000000
vn 0.000000 0.000000 -1.000000
vn 0.000000 0.000000 -1.000000
vn 1.000000 -0.000000 0.000000
vn 1.000000 -0.000000 0.000000
vn 1.000000 0.000000 0.000000
vn 1.000000 0.000000 0.000000
vn 1.000000 0.000000 0.000000
vn 0.000000 -1.000000 0.000000
vn 0.000000 -1.000000 0.000000
vn -1.000000 -0.000000 0.000000
vn -1.000000 -0.000000 0.000000
vn -1.000000 0.000000 0.000000
vn -1.000000 0.000000 0.000000
vn -1.000000 -0.000000 0.000000
vn -1.000000 0.000000 0.000000
vn 0.000000 1.000000 0.000000
vn 0.000000 1.000000 0.000000
vn 1.000000 0.000000 0.000000
vn 1.000000 0.000000 0.000000
vn 1.000000 -0.000000 0.000000
vn 1.000000 0.000000 0.000000
vn 0.000000 -1.000000 0.000000
vn 0.000000 -1.000000 0.000000
vn 0.000000 -1.000000 0.000000
vn 0.000000 -1.000000 0.000000
vn 0.000000 -0.075136 0.997173
vn 0.000000 -0.075136 0.997173
vn 0.000000 -0.075136 0.997173
vn 0.000000 -0.075136 0.997173
vn 0.000000 -0.075136 -0.997173
vn 0.000000 -0.075136 -0.997173
vn 0.000000 -0.075136 -0.997173
vn 0.000000 -0.075136 -0.997173
vn 0.000000 1.000000 0.000000
vn 0.000000 1.000000 0.000000
vn 0.000000 1.000000 0.000000
vn 0.000000 1.000000 0.000000
vn 0.000000 0.000000 -1.000000
vn 0.000000 0.000000 -1.000000
vn 0.000000 0.000000 -1.000000
vn 0.000000 0.000000 -1.000000
vn 0.000000 -1.000000 0.000000
vn 0.000000 -1.000000 0.000000
vn 0.000000 -1.000000 0.000000
vn 0.000000 -1.000000 0.000000
vn 0.000000 -0.000001 1.000000
vn 0.000000 -0.000001 1.000000
vn 0.000000 -0.000001 1.000000
vn 0.000000 -0.000001 1.000000
s 1
g pCube42
usemtl initialShadingGroup
f 1/1/1 2/2/2 18/32/3 19/33/4
s 2
f 3/3/5 4/4/6 13/23/7 14/26/8
s 3
f 22/37/9 23/38/10 8/8/11 7/7/12
s 4
f 15/28/13 16/29/14 2/10/15 1/9/16
s 5
f 2/2/17 16/30/18 17/31/19 18/32/20
s 6
f 15/27/21 1/1/22 19/33/23 20/34/24
s 2
f 68/97/25 69/98/26 6/6/27 5/5/28
s 6
f 7/13/29 63/90/30 64/92/31 22/36/32
s off
f 7/7/33 8/8/34 62/88/35 63/91/36
s 5
f 61/87/37 62/89/38 8/11/39 23/39/40
s 2
f 14/26/8 13/23/7 9/15/41 10/18/42
s 6
f 11/19/43 15/27/21 20/34/24 21/35/44
s 4
f 11/20/45 12/21/46 16/29/14 15/28/13
s 5
f 24/40/47 17/31/19 16/30/18 12/22/48
f 18/32/20 17/31/19 42/62/49 43/63/50
s 1
f 19/33/4 18/32/3 43/63/51 44/64/52
s 6
f 20/34/24 19/33/23 44/64/53 45/65/54
f 21/35/44 20/34/24 45/65/54 46/66/55
f 22/36/32 64/92/31 65/93/56 47/67/57
s 3
f 47/68/58 48/69/59 23/38/10 22/37/9
s 5
f 48/70/60 72/102/61 61/87/37 23/39/40
f 41/61/62 42/62/49 17/31/19 24/40/47
f 26/42/63 25/41/64 13/24/65 4/4/66
s 1
f 27/43/67 26/42/68 4/4/69 3/3/70
s 6
f 28/44/71 27/43/72 3/3/73 14/25/74
f 29/45/75 28/44/71 14/25/74 10/17/76
f 30/46/77 67/95/78 68/96/79 5/14/80
s 3
f 5/5/81 6/6/82 31/48/83 30/47/84
s 5
f 69/99/85 70/100/86 31/49/87 6/12/88
f 13/24/65 25/41/64 32/50/89 9/16/90
f 34/52/91 33/51/92 25/41/64 26/42/63
s 1
f 35/53/93 34/52/94 26/42/68 27/43/67
s 6
f 36/54/95 35/53/96 27/43/72 28/44/71
f 37/55/97 36/54/95 28/44/71 29/45/75
f 38/56/98 66/94/99 67/95/78 30/46/77
s 3
f 30/47/84 31/48/83 39/58/100 38/57/101
s 5
f 70/100/86 71/101/102 39/59/103 31/49/87
f 32/50/89 25/41/64 33/51/92 40/60/104
f 43/63/50 42/62/49 33/51/92 34/52/91
s 1
f 44/64/52 43/63/51 34/52/94 35/53/93
s 6
f 45/65/54 44/64/53 35/53/96 36/54/95
f 47/67/57 65/93/56 66/94/99 38/56/98
s 3
f 38/57/101 39/58/100 48/69/59 47/68/58
s 5
f 71/101/102 72/102/61 48/70/60 39/59/103
f 24/40/47 12/22/48 50/73/105 49/71/106
s 4
f 51/75/107 50/72/108 12/21/46 11/20/45
s 6
f 52/76/109 51/74/110 11/19/43 21/35/44
f 53/77/111 52/76/109 21/35/44 46/66/55
f 54/78/112 53/77/111 46/66/55 37/55/97
f 55/79/113 54/78/112 37/55/97 29/45/75
f 56/80/114 55/79/113 29/45/75 10/17/76
s 2
f 10/18/42 9/15/41 57/82/115 56/81/116
s 5
f 9/16/90 32/50/89 58/84/117 57/83/118
f 32/50/89 40/60/104 59/85/119 58/84/117
f 40/60/104 41/61/62 60/86/120 59/85/119
f 49/71/106 60/86/120 41/61/62 24/40/47
s 6
f 65/93/56 64/92/31 52/76/109 53/77/111
f 66/94/99 65/93/56 53/77/111 54/78/112
f 67/95/78 66/94/99 54/78/112 55/79/113
f 68/96/79 67/95/78 55/79/113 56/80/114
s 2
f 56/81/116 57/82/115 69/98/26 68/97/25
s 5
f 57/83/118 58/84/117 70/100/86 69/99/85
f 58/84/117 59/85/119 71/101/102 70/100/86
f 59/85/119 60/86/120 72/102/61 71/101/102
f 61/87/37 72/102/61 60/86/120 49/71/106
s off
f 40/103/121 33/104/122 36/105/123 37/106/124
f 41/107/125 40/108/126 37/109/127 46/110/128
f 33/111/129 42/112/130 45/113/131 36/114/132
f 42/115/133 41/116/134 46/117/135 45/118/136
f 49/119/137 50/120/138 51/121/139 52/122/140
f 61/123/141 49/124/142 52/125/143 64/126/144
f 62/127/145 61/128/146 64/129/147 63/130/148
