# This file uses centimeters as units for non-parametric coordinates.

mtllib Cuadro03.mtl
g default
v -7.205469 3.792255 -11.996182
v -7.205469 3.792255 -12.057026
v -7.209737 8.302962 -12.057026
v -7.209737 8.302962 -11.996182
v -7.574139 7.912250 -12.057026
v -7.574139 4.178881 -12.057026
v -7.574139 4.178881 -11.996184
v -7.574139 7.912250 -11.996184
v -7.541116 4.148063 -11.978912
v -7.543320 7.945273 -11.978912
v -7.221365 3.808470 -11.996182
v -7.225614 8.286728 -11.996182
v -7.226362 3.813602 -11.942978
v -7.230639 8.281625 -11.942978
v -7.245693 3.833437 -11.942978
v -7.250060 8.261883 -11.942978
v -12.790262 8.302962 -12.057026
v -12.790262 8.302962 -11.996182
v -12.425861 7.912250 -12.057026
v -12.425861 7.912250 -11.996184
v -12.456680 7.945273 -11.978912
v -12.774386 8.286728 -11.996182
v -12.769360 8.281625 -11.942978
v -12.749939 8.261883 -11.942978
v -12.794529 3.792255 -11.996182
v -12.794529 3.792255 -12.057026
v -12.425861 4.178881 -12.057026
v -12.425861 4.178881 -11.996184
v -12.458884 4.148063 -11.978912
v -12.778634 3.808470 -11.996182
v -12.773637 3.813602 -11.942978
v -12.754306 3.833437 -11.942978
vt 0.011096 0.007981
vt 0.008457 0.005448
vt 0.171069 0.004594
vt 0.162726 0.005517
vt 0.089625 0.072830
vt 0.242396 0.735655
vt 0.080835 0.075948
vt 0.092250 0.070312
vt 0.075439 0.070103
vt 0.098068 0.064960
vt 0.013986 0.010836
vt 0.159813 0.008366
vt 0.016697 0.013509
vt 0.157099 0.010881
vt 0.020223 0.017015
vt 0.153596 0.014309
vt 0.165356 0.992526
vt 0.317258 0.004568
vt 0.248325 0.076624
vt 0.250775 0.073950
vt 0.256453 0.068198
vt 0.314376 0.007472
vt 0.311780 0.010118
vt 0.308319 0.013585
vt 0.317258 0.802877
vt 0.319726 0.805545
vt 0.083475 0.927472
vt 0.250775 0.732152
vt 0.256453 0.737671
vt 0.314376 0.799905
vt 0.311780 0.797179
vt 0.308319 0.793589
vt 0.020223 0.986838
vt 0.016697 0.990205
vt 0.075439 0.935700
vt 0.013986 0.992784
vt 0.011096 0.995569
vt 0.080835 0.929953
vt 0.248325 0.729541
vt 0.008457 0.998008
vt 0.157099 0.984438
vt 0.153596 0.980882
vt 0.098068 0.928288
vt 0.159813 0.987049
vt 0.162726 0.990029
vt 0.092250 0.922680
vt 0.089625 0.920261
vt 0.319726 0.001992
vt 0.178991 0.012981
vt 0.182457 0.016520
vt 0.182457 0.798110
vt 0.178991 0.801571
vt 0.234327 0.072963
vt 0.234327 0.743596
vt 0.176397 0.010200
vt 0.176397 0.804268
vt 0.173545 0.007278
vt 0.173545 0.807075
vt 0.239926 0.078847
vt 0.239926 0.738322
vt 0.242396 0.081423
vt 0.083475 0.078370
vt 0.165356 0.003097
vt 0.171069 0.809685
vn 1.000000 0.000966 0.000000
vn 1.000000 0.000966 0.000000
vn 1.000000 0.000966 0.000000
vn 1.000000 0.000966 0.000000
vn -1.000000 0.000000 0.000000
vn -1.000000 0.000000 0.000000
vn -1.000000 0.000000 0.000000
vn -1.000000 0.000000 0.000000
vn -0.475906 -0.000139 0.879496
vn -0.475906 -0.000139 0.879496
vn -0.475906 -0.000139 0.879496
vn -0.475906 -0.000139 0.879496
vn 0.000025 0.000000 1.000000
vn 0.000025 0.000000 1.000000
vn 0.000025 0.000000 1.000000
vn 0.000025 0.000000 1.000000
vn 0.995959 0.000969 0.089806
vn 0.995959 0.000969 0.089806
vn 0.995959 0.000969 0.089806
vn 0.995959 0.000969 0.089806
vn -0.198713 -0.000161 0.980058
vn -0.198713 -0.000161 0.980058
vn -0.198713 -0.000161 0.980058
vn -0.198713 -0.000161 0.980058
vn 0.000020 0.000000 1.000000
vn 0.000020 0.000000 1.000000
vn 0.000020 0.000000 1.000000
vn 0.000020 0.000000 1.000000
vn 0.000000 1.000000 0.000000
vn 0.000000 1.000000 0.000000
vn 0.000000 1.000000 0.000000
vn 0.000000 1.000000 0.000000
vn 0.000000 -1.000000 0.000000
vn 0.000000 -1.000000 0.000000
vn 0.000000 -1.000000 0.000000
vn 0.000000 -1.000000 0.000000
vn 0.000000 -0.463471 0.886112
vn 0.000000 -0.463471 0.886112
vn 0.000000 -0.463471 0.886112
vn 0.000000 -0.463471 0.886112
vn 0.000000 0.000000 1.000000
vn 0.000000 0.000000 1.000000
vn 0.000000 0.000000 1.000000
vn 0.000000 0.000000 1.000000
vn 0.000000 0.995983 0.089537
vn 0.000000 0.995983 0.089537
vn 0.000000 0.995983 0.089537
vn 0.000000 0.995983 0.089537
vn 0.000000 -0.197655 0.980272
vn 0.000000 -0.197655 0.980272
vn 0.000000 -0.197655 0.980272
vn 0.000000 -0.197655 0.980272
vn 0.000000 0.000000 1.000000
vn 0.000000 0.000000 1.000000
vn 0.000000 0.000000 1.000000
vn 0.000000 0.000000 1.000000
vn 0.000000 -1.000000 0.000000
vn 0.000000 -1.000000 0.000000
vn 0.000000 -1.000000 0.000000
vn 0.000000 -1.000000 0.000000
vn 0.000000 1.000000 0.000000
vn 0.000000 1.000000 0.000000
vn 0.000000 1.000000 0.000000
vn 0.000000 1.000000 0.000000
vn 0.000000 0.488913 0.872333
vn 0.000000 0.488913 0.872333
vn 0.000000 0.488913 0.872333
vn 0.000000 0.488913 0.872333
vn 0.000000 0.000000 1.000000
vn 0.000000 0.000000 1.000000
vn 0.000000 0.000000 1.000000
vn 0.000000 0.000000 1.000000
vn 0.000000 -0.995936 0.090068
vn 0.000000 -0.995936 0.090068
vn 0.000000 -0.995936 0.090068
vn 0.000000 -0.995936 0.090068
vn 0.000000 0.199784 0.979840
vn 0.000000 0.199784 0.979840
vn 0.000000 0.199784 0.979840
vn 0.000000 0.199784 0.979840
vn 0.000000 0.000000 1.000000
vn 0.000000 0.000000 1.000000
vn 0.000000 0.000000 1.000000
vn 0.000000 0.000000 1.000000
vn -1.000000 0.000966 0.000000
vn -1.000000 0.000966 0.000000
vn -1.000000 0.000966 0.000000
vn -1.000000 0.000966 0.000000
vn 1.000000 0.000000 0.000000
vn 1.000000 0.000000 0.000000
vn 1.000000 0.000000 0.000000
vn 1.000000 0.000000 0.000000
vn 0.475901 -0.000139 0.879499
vn 0.475901 -0.000139 0.879499
vn 0.475901 -0.000139 0.879499
vn 0.475901 -0.000139 0.879499
vn -0.000017 0.000000 1.000000
vn -0.000017 0.000000 1.000000
vn -0.000017 0.000000 1.000000
vn -0.000017 0.000000 1.000000
vn -0.995959 0.000969 0.089807
vn -0.995959 0.000969 0.089807
vn -0.995959 0.000969 0.089807
vn -0.995959 0.000969 0.089807
vn 0.198713 -0.000161 0.980058
vn 0.198713 -0.000161 0.980058
vn 0.198713 -0.000161 0.980058
vn 0.198713 -0.000161 0.980058
vn -0.000023 0.000000 1.000000
vn -0.000023 0.000000 1.000000
vn -0.000023 0.000000 1.000000
vn -0.000023 0.000000 1.000000
s off
g polySurface82 NEW_LOWPOLY:polySurface208
usemtl initialShadingGroup
f 1/58/1 2/64/2 3/3/3 4/57/4
f 5/61/5 6/6/6 7/60/7 8/59/8
f 7/60/9 9/54/10 10/53/11 8/59/12
f 11/56/13 1/58/14 4/57/15 12/55/16
f 13/52/17 11/56/18 12/55/19 14/49/20
f 9/54/21 15/51/22 16/50/23 10/53/24
f 15/51/25 13/52/26 14/49/27 16/50/28
f 4/4/29 3/63/30 17/17/31 18/45/32
f 19/47/33 5/5/34 8/8/35 20/46/36
f 8/8/37 10/10/38 21/43/39 20/46/40
f 12/12/41 4/4/42 18/45/43 22/44/44
f 14/14/45 12/12/46 22/44/47 23/41/48
f 10/10/49 16/16/50 24/42/51 21/43/52
f 16/16/53 14/14/54 23/41/55 24/42/56
f 1/1/57 25/37/58 26/40/59 2/2/60
f 6/62/61 27/27/62 28/38/63 7/7/64
f 7/7/65 28/38/66 29/35/67 9/9/68
f 11/11/69 30/36/70 25/37/71 1/1/72
f 13/13/73 31/34/74 30/36/75 11/11/76
f 9/9/77 29/35/78 32/33/79 15/15/80
f 15/15/81 32/33/82 31/34/83 13/13/84
f 25/25/85 18/18/86 17/48/87 26/26/88
f 27/39/89 19/19/90 20/20/91 28/28/92
f 28/28/93 20/20/94 21/21/95 29/29/96
f 30/30/97 22/22/98 18/18/99 25/25/100
f 31/31/101 23/23/102 22/22/103 30/30/104
f 29/29/105 21/21/106 24/24/107 32/32/108
f 32/32/109 24/24/110 23/23/111 31/31/112
