# This file uses centimeters as units for non-parametric coordinates.

mtllib Libro.mtl
g default
v -0.064850 0.458306 -0.310343
v -0.064850 0.449510 -0.323750
v -0.068522 0.449443 -0.310387
v -0.047122 0.458306 -0.310343
v -0.043451 0.451808 -0.300099
v -0.047122 0.449510 -0.323750
v -0.064850 -0.455100 -0.314968
v -0.068522 -0.446236 -0.314923
v -0.064850 -0.446169 -0.328286
v -0.047122 -0.455100 -0.314968
v -0.047122 -0.446169 -0.328286
v -0.043451 -0.443872 -0.304634
v -0.064850 -0.449442 0.318214
v -0.068521 -0.449375 0.304851
v -0.064850 -0.458237 0.304806
v -0.047122 -0.449442 0.318214
v -0.047122 -0.458237 0.304806
v -0.043451 -0.449375 0.304851
v -0.064850 0.455168 0.309431
v -0.068521 0.446305 0.309387
v -0.064850 0.446236 0.322749
v -0.047122 0.455168 0.309431
v -0.047122 0.446236 0.322749
v -0.043451 0.446305 0.309387
v -0.063222 0.456733 -0.321258
v -0.048751 0.456733 -0.321258
v -0.063222 -0.453415 -0.325866
v -0.048751 -0.453415 -0.325866
v -0.063222 -0.456665 0.315722
v -0.048751 -0.456665 0.315722
v -0.063222 0.453483 0.320330
v -0.048751 0.453483 0.320330
v 0.047123 0.458306 -0.310343
v 0.047123 0.449510 -0.323750
v 0.043452 0.447860 -0.298407
v 0.064851 0.458306 -0.310343
v 0.068522 0.449443 -0.310387
v 0.064851 0.449510 -0.323750
v 0.047123 -0.455100 -0.314968
v 0.043452 -0.447819 -0.302943
v 0.047123 -0.446169 -0.328286
v 0.064851 -0.455100 -0.314968
v 0.064851 -0.446169 -0.328286
v 0.068522 -0.446236 -0.314923
v 0.047123 -0.449442 0.318214
v 0.043452 -0.449375 0.304851
v 0.047123 -0.458237 0.304806
v 0.064851 -0.449442 0.318214
v 0.064851 -0.458237 0.304806
v 0.068522 -0.449375 0.304851
v 0.047123 0.455168 0.309431
v 0.043452 0.446305 0.309387
v 0.047123 0.446236 0.322749
v 0.064851 0.455168 0.309431
v 0.064851 0.446236 0.322749
v 0.068522 0.446305 0.309387
v 0.048752 0.456733 -0.321258
v 0.063222 0.456733 -0.321258
v 0.048752 -0.453415 -0.325866
v 0.063222 -0.453415 -0.325866
v 0.048752 -0.456665 0.315722
v 0.063223 -0.456665 0.315722
v 0.048752 0.453483 0.320330
v 0.063223 0.453483 0.320330
v 0.052240 0.451189 0.291950
v 0.061103 0.446373 0.296022
v 0.052240 0.446399 0.290487
v 0.052240 0.451012 0.326872
v 0.052240 0.446209 0.328286
v 0.061103 0.446236 0.322751
v 0.052240 -0.458170 0.291442
v 0.052240 -0.449280 0.285952
v 0.061103 -0.449307 0.291487
v 0.052240 -0.458306 0.318171
v 0.061103 -0.449442 0.318216
v 0.052240 -0.449471 0.323751
v -0.061041 -0.449307 0.291487
v -0.052178 -0.449280 0.285952
v -0.052178 -0.458170 0.291442
v -0.061041 -0.449442 0.318216
v -0.052178 -0.458306 0.318171
v -0.052178 -0.449471 0.323751
v -0.052178 0.451189 0.291950
v -0.052178 0.446399 0.290487
v -0.061041 0.446373 0.296022
v -0.052178 0.451012 0.326872
v -0.061041 0.446236 0.322751
v -0.052178 0.446209 0.328286
v 0.057166 0.450042 0.296639
v 0.057166 0.449912 0.322172
v 0.059474 -0.456553 0.293906
v 0.059474 -0.456665 0.315724
v -0.059413 -0.456553 0.293906
v -0.059413 -0.456665 0.315724
v -0.060645 0.450042 0.296639
v -0.060645 0.449912 0.322172
v -0.044405 0.449939 -0.300526
v 0.043452 0.449939 -0.300526
v -0.044405 -0.441591 -0.305040
v 0.043452 -0.441591 -0.305040
v -0.044405 -0.444583 0.285976
v 0.043452 -0.444583 0.285976
v -0.044405 0.446947 0.290490
v 0.043452 0.446947 0.290490
vt 0.736082 0.994268
vt 0.736082 0.712681
vt 0.744518 0.712681
vt 0.744518 0.994268
vt 0.005546 0.000000
vt 0.273467 0.000000
vt 0.273467 0.003638
vt 0.005546 0.003638
vt 0.273467 0.395669
vt 0.279351 0.003638
vt 0.279351 0.395669
vt 0.288136 0.003638
vt 0.288136 0.395669
vt 0.562151 0.003638
vt 0.294238 0.003638
vt 0.294237 0.000000
vt 0.562151 0.000000
vt 0.294238 0.395669
vt 0.005546 0.395669
vt 0.273467 0.399317
vt 0.005546 0.399317
vt 0.736082 0.287219
vt 0.736082 0.005676
vt 0.744518 0.005676
vt 0.744518 0.287219
vt 0.562151 0.399317
vt 0.294238 0.399317
vt 0.562151 0.395669
vt 0.000000 0.395669
vt 0.000000 0.003638
vt 0.736082 0.702751
vt 0.736082 0.297149
vt 0.744518 0.297149
vt 0.744518 0.702751
vt 0.567692 0.003638
vt 0.567692 0.395669
vt 0.279351 0.000000
vt 0.736082 1.000000
vt 0.744518 1.000000
vt 0.288136 0.000000
vt 0.279351 0.399317
vt 0.288136 0.399317
vt 0.736082 0.000000
vt 0.744518 0.000000
vt 0.000000 0.399317
vt 0.567692 0.399317
vt 0.736082 0.292927
vt 0.744518 0.292927
vt 0.000000 0.000000
vt 0.567692 0.000000
vt 0.736082 0.706972
vt 0.744518 0.706972
vt 0.748418 0.715659
vt 0.748418 0.428318
vt 0.756830 0.428318
vt 0.756830 0.715659
vt 0.005587 0.399317
vt 0.274674 0.399317
vt 0.274674 0.403149
vt 0.005587 0.403149
vt 0.274674 0.792806
vt 0.280859 0.403149
vt 0.280859 0.792806
vt 0.289780 0.403149
vt 0.289780 0.792806
vt 0.564766 0.403149
vt 0.295736 0.403149
vt 0.295736 0.399317
vt 0.564766 0.399317
vt 0.295737 0.792806
vt 0.005587 0.792806
vt 0.274674 0.796762
vt 0.005587 0.796762
vt 0.760755 0.283436
vt 0.760755 0.005599
vt 0.768944 0.005599
vt 0.768944 0.283436
vt 0.564766 0.796762
vt 0.295736 0.796762
vt 0.564766 0.792806
vt 0.000000 0.792806
vt 0.000000 0.403149
vt 0.748418 0.418194
vt 0.748418 0.004307
vt 0.756830 0.004307
vt 0.756830 0.418194
vt 0.570366 0.403149
vt 0.570366 0.792806
vt 0.280859 0.399317
vt 0.748418 0.721501
vt 0.756830 0.721501
vt 0.289780 0.399317
vt 0.280859 0.796762
vt 0.289780 0.796762
vt 0.760755 0.000000
vt 0.768944 0.000000
vt 0.000000 0.796762
vt 0.570366 0.796762
vt 0.748418 0.000000
vt 0.756830 0.000000
vt 0.768944 0.289062
vt 0.760755 0.289062
vt 0.000000 0.399317
vt 0.570366 0.399317
vt 0.748418 0.422500
vt 0.756830 0.422500
vt 0.621720 0.002151
vt 0.621720 0.003946
vt 0.575878 0.003946
vt 0.575878 0.002151
vt 0.621720 0.394458
vt 0.626383 0.003946
vt 0.626383 0.394458
vt 0.638053 0.003946
vt 0.638053 0.394458
vt 0.642556 0.003946
vt 0.642556 0.002151
vt 0.688344 0.002151
vt 0.688344 0.003946
vt 0.642556 0.394458
vt 0.575878 0.394458
vt 0.621720 0.398483
vt 0.575878 0.398483
vt 0.768979 0.051104
vt 0.768979 0.003864
vt 0.780566 0.003864
vt 0.780566 0.051104
vt 0.688344 0.398483
vt 0.642556 0.398483
vt 0.688344 0.394458
vt 0.571594 0.394458
vt 0.571594 0.003946
vt 0.692641 0.003946
vt 0.692641 0.394458
vt 0.626383 0.002151
vt 0.638053 0.002151
vt 0.626383 0.398483
vt 0.638053 0.398483
vt 0.768979 0.000000
vt 0.780566 0.000000
vt 0.571594 0.398483
vt 0.768979 0.054883
vt 0.780566 0.054883
vt 0.692641 0.398483
vt 0.780566 0.058676
vt 0.768979 0.058676
vt 0.571594 0.002151
vt 0.781316 0.001906
vt 0.781316 0.000000
vt 0.792816 0.000000
vt 0.792816 0.001906
vt 0.692641 0.002151
vt 0.694960 0.267211
vt 0.734681 0.267211
vt 0.734681 0.595399
vt 0.694960 0.595399
vt 0.734681 0.862611
vt 0.694960 0.862611
vt 0.694960 0.000000
vt 0.734681 0.000000
vn 0.000000 0.999987 0.005063
vn 0.000000 0.999987 0.005063
vn 0.000000 0.999987 0.005063
vn 0.000000 0.999987 0.005063
vn -0.383348 0.923571 0.007839
vn -0.383346 0.923604 0.001514
vn -0.999975 0.004060 -0.005760
vn -0.999975 0.004002 0.005801
vn -0.999975 -0.004002 -0.005801
vn -0.999975 0.004060 -0.005760
vn -0.529842 0.007109 -0.848067
vn -0.529840 0.001480 -0.848097
vn -0.529840 0.001480 -0.848097
vn -0.529842 0.007109 -0.848067
vn 0.757560 0.005351 -0.652743
vn 0.722837 0.001127 -0.691017
vn 0.972305 0.131648 0.193110
vn 0.985226 0.131218 -0.110054
vn 0.168293 0.985737 0.000231
vn 0.335808 0.941894 0.008310
vn 0.722837 0.001127 -0.691017
vn 0.757560 0.005351 -0.652743
vn 0.985226 0.131218 -0.110054
vn 0.988580 -0.102457 -0.110507
vn -0.999975 -0.004060 0.005760
vn -0.999975 -0.004002 -0.005801
vn -0.383340 -0.923574 -0.007839
vn -0.383338 -0.923607 -0.001515
vn -0.383338 -0.923607 -0.001515
vn -0.383340 -0.923574 -0.007839
vn 0.278224 -0.960470 -0.009404
vn 0.423851 -0.905730 -0.001780
vn 0.423851 -0.905730 -0.001780
vn 0.278224 -0.960470 -0.009404
vn 0.988580 -0.102457 -0.110507
vn 0.976590 -0.123563 0.176078
vn -0.999975 0.004002 0.005801
vn -0.999975 -0.004060 0.005760
vn -0.529861 -0.007109 0.848055
vn -0.529859 -0.001480 0.848084
vn -0.529859 -0.001480 0.848084
vn -0.529861 -0.007109 0.848055
vn 0.529861 -0.007109 0.848055
vn 0.529859 -0.001480 0.848084
vn 0.529859 -0.001480 0.848084
vn 0.529861 -0.007109 0.848055
vn 0.976590 -0.123563 0.176078
vn 0.972305 0.131648 0.193110
vn -0.999975 0.004002 0.005801
vn -0.999975 0.004060 -0.005760
vn -0.999975 -0.004002 -0.005801
vn -0.999975 -0.004060 0.005760
vn -0.529842 0.007109 -0.848067
vn -0.999975 0.004060 -0.005760
vn -0.383346 0.923604 0.001514
vn -0.339623 0.781793 -0.522929
vn -0.339623 0.781793 -0.522929
vn -0.383346 0.923604 0.001514
vn 0.168293 0.985737 0.000231
vn 0.425993 0.752009 -0.503004
vn 0.168293 0.985737 0.000231
vn 0.985226 0.131218 -0.110054
vn 0.757560 0.005351 -0.652743
vn 0.425993 0.752009 -0.503004
vn -0.339623 0.781793 -0.522929
vn 0.425993 0.752009 -0.503004
vn 0.757560 0.005351 -0.652743
vn -0.529842 0.007109 -0.848067
vn -0.999975 -0.004002 -0.005801
vn -0.529840 0.001480 -0.848097
vn -0.339623 -0.776492 -0.530769
vn -0.383340 -0.923574 -0.007839
vn 0.722837 0.001127 -0.691017
vn 0.988580 -0.102457 -0.110507
vn 0.278224 -0.960470 -0.009404
vn 0.509091 -0.710570 -0.485713
vn 0.278224 -0.960470 -0.009404
vn -0.383340 -0.923574 -0.007839
vn -0.339623 -0.776492 -0.530769
vn 0.509091 -0.710570 -0.485713
vn -0.339623 -0.776492 -0.530769
vn -0.529840 0.001480 -0.848097
vn 0.722837 0.001127 -0.691017
vn 0.509091 -0.710570 -0.485713
vn -0.529861 -0.007109 0.848055
vn -0.999975 -0.004060 0.005760
vn -0.383338 -0.923607 -0.001515
vn -0.339625 -0.781821 0.522886
vn 0.423851 -0.905730 -0.001780
vn 0.976590 -0.123563 0.176078
vn 0.529861 -0.007109 0.848055
vn 0.339611 -0.781824 0.522891
vn 0.529861 -0.007109 0.848055
vn -0.529861 -0.007109 0.848055
vn -0.339625 -0.781821 0.522886
vn 0.339611 -0.781824 0.522891
vn -0.383338 -0.923607 -0.001515
vn 0.423851 -0.905730 -0.001780
vn 0.339611 -0.781824 0.522891
vn -0.339625 -0.781821 0.522886
vn -0.383348 0.923571 0.007839
vn -0.999975 0.004002 0.005801
vn -0.529859 -0.001480 0.848084
vn -0.339628 0.776493 0.530765
vn 0.529859 -0.001480 0.848084
vn 0.972305 0.131648 0.193110
vn 0.335808 0.941894 0.008310
vn 0.339614 0.776497 0.530768
vn -0.339628 0.776493 0.530765
vn 0.339614 0.776497 0.530768
vn 0.335808 0.941894 0.008310
vn -0.383348 0.923571 0.007839
vn -0.529859 -0.001480 0.848084
vn 0.529859 -0.001480 0.848084
vn 0.339614 0.776497 0.530768
vn -0.339628 0.776493 0.530765
vn -0.239844 0.970812 0.000217
vn -0.408002 0.912950 0.007564
vn 0.383338 0.923575 0.007839
vn 0.383336 0.923608 0.001514
vn -0.408002 0.912950 0.007564
vn -0.239844 0.970812 0.000217
vn -0.989087 0.105087 -0.103268
vn -0.975880 0.123354 0.180118
vn -0.987178 -0.120179 -0.105052
vn -0.989087 0.105087 -0.103268
vn -0.753816 0.005539 -0.657062
vn -0.773291 0.001187 -0.634050
vn -0.773291 0.001187 -0.634050
vn -0.753816 0.005539 -0.657062
vn 0.529850 0.007109 -0.848062
vn 0.529848 0.001480 -0.848091
vn 0.999975 0.004001 0.005800
vn 0.999975 0.004060 -0.005759
vn 0.383336 0.923608 0.001514
vn 0.383338 0.923575 0.007839
vn 0.529848 0.001480 -0.848091
vn 0.529850 0.007109 -0.848062
vn 0.999975 0.004060 -0.005759
vn 0.999975 -0.004001 -0.005800
vn -0.973185 -0.131484 0.188741
vn -0.987178 -0.120179 -0.105052
vn -0.172814 -0.984905 -0.009833
vn -0.352485 -0.935817 -0.001334
vn -0.352485 -0.935817 -0.001334
vn -0.172814 -0.984905 -0.009833
vn 0.383338 -0.923575 -0.007839
vn 0.383336 -0.923608 -0.001514
vn 0.383336 -0.923608 -0.001514
vn 0.383338 -0.923575 -0.007839
vn 0.999975 -0.004001 -0.005800
vn 0.999975 -0.004060 0.005759
vn -0.975880 0.123354 0.180118
vn -0.973185 -0.131484 0.188741
vn -0.529861 -0.007109 0.848055
vn -0.529859 -0.001480 0.848084
vn -0.529859 -0.001480 0.848084
vn -0.529861 -0.007109 0.848055
vn 0.529853 -0.007109 0.848060
vn 0.529851 -0.001480 0.848090
vn 0.529851 -0.001480 0.848090
vn 0.529853 -0.007109 0.848060
vn 0.999975 -0.004060 0.005759
vn 0.999975 0.004001 0.005800
vn 0.999975 0.004060 -0.005759
vn 0.999975 0.004001 0.005800
vn 0.999975 -0.004060 0.005759
vn 0.999975 -0.004001 -0.005800
vn -0.753816 0.005539 -0.657062
vn -0.989087 0.105087 -0.103268
vn -0.239844 0.970812 0.000217
vn -0.512886 0.713555 -0.477271
vn -0.512886 0.713555 -0.477271
vn -0.239844 0.970812 0.000217
vn 0.383336 0.923608 0.001514
vn 0.339619 0.781804 -0.522917
vn 0.383336 0.923608 0.001514
vn 0.999975 0.004060 -0.005759
vn 0.529850 0.007109 -0.848062
vn 0.339619 0.781804 -0.522917
vn -0.512886 0.713555 -0.477271
vn 0.339619 0.781804 -0.522917
vn 0.529850 0.007109 -0.848062
vn -0.753816 0.005539 -0.657062
vn -0.987178 -0.120179 -0.105052
vn -0.773291 0.001187 -0.634050
vn -0.462386 -0.732001 -0.500373
vn -0.172814 -0.984905 -0.009833
vn 0.529848 0.001480 -0.848091
vn 0.999975 -0.004001 -0.005800
vn 0.383338 -0.923575 -0.007839
vn 0.339611 -0.776498 -0.530768
vn 0.383338 -0.923575 -0.007839
vn -0.172814 -0.984905 -0.009833
vn -0.462386 -0.732001 -0.500373
vn 0.339611 -0.776498 -0.530768
vn -0.462386 -0.732001 -0.500373
vn -0.773291 0.001187 -0.634050
vn 0.529848 0.001480 -0.848091
vn 0.339611 -0.776498 -0.530768
vn -0.529861 -0.007109 0.848055
vn -0.973185 -0.131484 0.188741
vn -0.352485 -0.935817 -0.001334
vn -0.339595 -0.781828 0.522897
vn 0.383336 -0.923608 -0.001514
vn 0.999975 -0.004060 0.005759
vn 0.529853 -0.007109 0.848060
vn 0.339625 -0.781818 0.522892
vn 0.529853 -0.007109 0.848060
vn -0.529861 -0.007109 0.848055
vn -0.339595 -0.781828 0.522897
vn 0.339625 -0.781818 0.522892
vn -0.352485 -0.935817 -0.001334
vn 0.383336 -0.923608 -0.001514
vn 0.339625 -0.781818 0.522892
vn -0.339595 -0.781828 0.522897
vn -0.975880 0.123354 0.180118
vn -0.529859 -0.001480 0.848084
vn -0.339598 0.776494 0.530783
vn -0.408002 0.912950 0.007564
vn 0.529851 -0.001480 0.848090
vn 0.999975 0.004001 0.005800
vn 0.383338 0.923575 0.007839
vn 0.339619 0.776493 0.530770
vn -0.339598 0.776494 0.530783
vn 0.339619 0.776493 0.530770
vn 0.383338 0.923575 0.007839
vn -0.408002 0.912950 0.007564
vn -0.529859 -0.001480 0.848084
vn 0.529851 -0.001480 0.848090
vn 0.339619 0.776493 0.530770
vn -0.339598 0.776494 0.530783
vn 0.010327 0.991486 -0.129807
vn 0.506845 0.021232 -0.861776
vn -0.506522 0.020556 -0.861982
vn -0.011382 0.991590 -0.128920
vn 0.487267 -0.054895 -0.871526
vn 0.506845 0.021232 -0.861776
vn 0.964364 0.004874 -0.264536
vn 0.964142 -0.000867 -0.265385
vn 0.964142 -0.000867 -0.265385
vn 0.964364 0.004874 -0.264536
vn 0.964366 0.002195 0.264562
vn 0.964146 -0.003555 0.265349
vn 0.048750 -0.003435 0.998805
vn 0.010327 0.990120 0.139841
vn -0.011382 0.990233 0.138954
vn -0.048747 -0.003499 0.998805
vn -0.011382 0.990233 0.138954
vn 0.010327 0.990120 0.139841
vn 0.010327 0.991486 -0.129807
vn -0.011382 0.991590 -0.128920
vn 0.964146 -0.003555 0.265349
vn 0.964366 0.002195 0.264562
vn 0.048750 -0.003435 0.998805
vn 0.048621 -0.010975 0.998757
vn -0.487280 -0.054896 -0.871519
vn 0.487267 -0.054895 -0.871526
vn 0.018116 -0.961660 -0.273644
vn -0.018116 -0.961659 -0.273648
vn -0.018116 -0.961659 -0.273648
vn 0.018116 -0.961660 -0.273644
vn 0.018115 -0.964379 0.263904
vn -0.018116 -0.964379 0.263902
vn -0.018116 -0.964379 0.263902
vn 0.018115 -0.964379 0.263904
vn 0.048621 -0.010975 0.998757
vn -0.048622 -0.010975 0.998757
vn -0.506522 0.020556 -0.861982
vn -0.487280 -0.054896 -0.871519
vn -0.539906 -0.002749 -0.841721
vn -0.536221 0.006296 -0.844054
vn -0.536213 -0.002252 0.844080
vn -0.539897 -0.011273 0.841656
vn -0.048622 -0.010975 0.998757
vn -0.048747 -0.003499 0.998805
vn 0.048750 -0.003435 0.998805
vn -0.048747 -0.003499 0.998805
vn -0.048622 -0.010975 0.998757
vn 0.048621 -0.010975 0.998757
vn 0.964364 0.004874 -0.264536
vn 0.506845 0.021232 -0.861776
vn 0.010327 0.991486 -0.129807
vn 0.458450 0.883947 -0.091989
vn 0.458450 0.883947 -0.091989
vn 0.010327 0.991486 -0.129807
vn 0.010327 0.990120 0.139841
vn 0.458448 0.882969 0.100948
vn 0.010327 0.990120 0.139841
vn 0.048750 -0.003435 0.998805
vn 0.964366 0.002195 0.264562
vn 0.458448 0.882969 0.100948
vn 0.458448 0.882969 0.100948
vn 0.964366 0.002195 0.264562
vn 0.964364 0.004874 -0.264536
vn 0.458450 0.883947 -0.091989
vn 0.487267 -0.054895 -0.871526
vn 0.964142 -0.000867 -0.265385
vn 0.696066 -0.695214 -0.179358
vn 0.018116 -0.961660 -0.273644
vn 0.696066 -0.695214 -0.179358
vn 0.964142 -0.000867 -0.265385
vn 0.964146 -0.003555 0.265349
vn 0.696069 -0.696994 0.172303
vn 0.964146 -0.003555 0.265349
vn 0.048621 -0.010975 0.998757
vn 0.018115 -0.964379 0.263904
vn 0.696069 -0.696994 0.172303
vn 0.696066 -0.695214 -0.179358
vn 0.696069 -0.696994 0.172303
vn 0.018115 -0.964379 0.263904
vn 0.018116 -0.961660 -0.273644
vn -0.539906 -0.002749 -0.841721
vn -0.487280 -0.054896 -0.871519
vn -0.018116 -0.961659 -0.273648
vn -0.696093 -0.695187 -0.179358
vn -0.696093 -0.695187 -0.179358
vn -0.018116 -0.961659 -0.273648
vn -0.018116 -0.964379 0.263902
vn -0.696090 -0.696970 0.172310
vn -0.018116 -0.964379 0.263902
vn -0.048622 -0.010975 0.998757
vn -0.539897 -0.011273 0.841656
vn -0.696090 -0.696970 0.172310
vn -0.696093 -0.695187 -0.179358
vn -0.696090 -0.696970 0.172310
vn -0.539897 -0.011273 0.841656
vn -0.539906 -0.002749 -0.841721
vn -0.011382 0.991590 -0.128920
vn -0.506522 0.020556 -0.861982
vn -0.536221 0.006296 -0.844054
vn -0.434522 0.895753 -0.093904
vn -0.434522 0.895753 -0.093904
vn -0.536221 0.006296 -0.844054
vn -0.536213 -0.002252 0.844080
vn -0.434515 0.894756 0.102996
vn -0.536213 -0.002252 0.844080
vn -0.048747 -0.003499 0.998805
vn -0.011382 0.990233 0.138954
vn -0.434515 0.894756 0.102996
vn -0.434515 0.894756 0.102996
vn -0.011382 0.990233 0.138954
vn -0.011382 0.991590 -0.128920
vn -0.434522 0.895753 -0.093904
vn 0.000000 0.005063 -0.999987
vn 0.000000 0.005063 -0.999987
vn 0.000000 0.005063 -0.999987
vn 0.000000 0.005063 -0.999987
vn 0.000000 -0.999987 -0.005063
vn 0.000000 -0.999987 -0.005063
vn 0.000000 -0.999987 -0.005063
vn 0.000000 -0.999987 -0.005063
vn 0.000000 0.999987 0.005063
vn 0.000000 0.999987 0.005063
vn 0.000000 0.999987 0.005063
vn 0.000000 0.999987 0.005063
s off
g Libros:polySurface3269
usemtl initialShadingGroup
f 1/1/1 19/2/2 22/3/3 4/4/4
f 19/5/5 1/6/6 3/7/7 20/8/8
f 8/9/9 3/7/10 2/10/11 9/11/12
f 9/11/13 2/10/14 6/12/15 11/13/16
f 24/14/17 5/15/18 4/16/19 22/17/20
f 11/13/21 6/12/22 5/15/23 12/18/24
f 14/19/25 8/9/26 7/20/27 15/21/28
f 15/22/29 7/23/30 10/24/31 17/25/32
f 17/26/33 10/27/34 12/18/35 18/28/36
f 20/8/37 14/19/38 13/29/39 21/30/40
f 21/31/41 13/32/42 16/33/43 23/34/44
f 23/35/45 16/36/46 18/28/47 24/14/48
f 20/8/49 3/7/50 8/9/51 14/19/52
f 2/10/53 3/7/54 1/6/55 25/37/56
f 25/38/57 1/1/58 4/4/59 26/39/60
f 4/16/61 5/15/62 6/12/63 26/40/64
f 25/37/65 26/40/66 6/12/67 2/10/68
f 8/9/69 9/11/70 27/41/71 7/20/72
f 11/13/73 12/18/74 10/27/75 28/42/76
f 10/24/77 7/23/78 27/43/79 28/44/80
f 27/41/81 9/11/82 11/13/83 28/42/84
f 13/29/85 14/19/86 15/21/87 29/45/88
f 17/26/89 18/28/90 16/36/91 30/46/92
f 16/33/93 13/32/94 29/47/95 30/48/96
f 15/22/97 17/25/98 30/48/99 29/47/100
f 19/5/101 20/8/102 21/30/103 31/49/104
f 23/35/105 24/14/106 22/17/107 32/50/108
f 31/51/109 32/52/110 22/3/111 19/2/112
f 21/31/113 23/34/114 32/52/115 31/51/116
f 33/53/117 51/54/118 54/55/119 36/56/120
f 51/57/121 33/58/122 35/59/123 52/60/124
f 40/61/125 35/59/126 34/62/127 41/63/128
f 41/63/129 34/62/130 38/64/131 43/65/132
f 56/66/133 37/67/134 36/68/135 54/69/136
f 43/65/137 38/64/138 37/67/139 44/70/140
f 46/71/141 40/61/142 39/72/143 47/73/144
f 47/74/145 39/75/146 42/76/147 49/77/148
f 49/78/149 42/79/150 44/70/151 50/80/152
f 52/60/153 46/71/154 45/81/155 53/82/156
f 53/83/157 45/84/158 48/85/159 55/86/160
f 55/87/161 48/88/162 50/80/163 56/66/164
f 37/67/165 56/66/166 50/80/167 44/70/168
f 34/62/169 35/59/170 33/58/171 57/89/172
f 57/90/173 33/53/174 36/56/175 58/91/176
f 36/68/177 37/67/178 38/64/179 58/92/180
f 57/89/181 58/92/182 38/64/183 34/62/184
f 40/61/185 41/63/186 59/93/187 39/72/188
f 43/65/189 44/70/190 42/79/191 60/94/192
f 42/76/193 39/75/194 59/95/195 60/96/196
f 59/93/197 41/63/198 43/65/199 60/94/200
f 45/81/201 46/71/202 47/73/203 61/97/204
f 49/78/205 50/80/206 48/88/207 62/98/208
f 48/85/209 45/84/210 61/99/211 62/100/212
f 47/74/213 49/77/214 62/101/215 61/102/216
f 52/60/217 53/82/218 63/103/219 51/57/220
f 55/87/221 56/66/222 54/69/223 64/104/224
f 63/105/225 64/106/226 54/55/227 51/54/228
f 53/83/229 55/86/230 64/106/231 63/105/232
f 65/107/233 67/108/234 84/109/235 83/110/236
f 72/111/237 67/108/238 66/112/239 73/113/240
f 73/113/241 66/112/242 70/114/243 75/115/244
f 69/116/245 68/117/246 86/118/247 88/119/248
f 86/118/249 68/117/250 65/107/251 83/110/252
f 75/115/253 70/114/254 69/116/255 76/120/256
f 78/121/257 72/111/258 71/122/259 79/123/260
f 79/124/261 71/125/262 74/126/263 81/127/264
f 81/128/265 74/129/266 76/120/267 82/130/268
f 84/109/269 78/121/270 77/131/271 85/132/272
f 87/133/273 80/134/274 82/130/275 88/119/276
f 69/116/277 88/119/278 82/130/279 76/120/280
f 66/112/281 67/108/282 65/107/283 89/135/284
f 89/135/285 65/107/286 68/117/287 90/136/288
f 68/117/289 69/116/290 70/114/291 90/136/292
f 90/136/293 70/114/294 66/112/295 89/135/296
f 72/111/297 73/113/298 91/137/299 71/122/300
f 91/137/301 73/113/302 75/115/303 92/138/304
f 75/115/305 76/120/306 74/129/307 92/138/308
f 91/139/309 92/140/310 74/126/311 71/125/312
f 77/131/313 78/121/314 79/123/315 93/141/316
f 93/142/317 79/124/318 81/127/319 94/143/320
f 81/128/321 82/130/322 80/134/323 94/144/324
f 93/142/325 94/143/326 80/145/327 77/146/328
f 83/110/329 84/109/330 85/132/331 95/147/332
f 95/148/333 85/149/334 87/150/335 96/151/336
f 87/133/337 88/119/338 86/118/339 96/152/340
f 96/152/341 86/118/342 83/110/343 95/148/344
f 97/153/345 98/154/346 100/155/347 99/156/348
f 99/156/349 100/155/350 102/157/351 101/158/352
f 103/159/353 104/160/354 98/154/355 97/153/356
