# This file uses centimeters as units for non-parametric coordinates.

mtllib Luces.mtl
g default
v 0.230299 -0.074829 0.064474
v 0.195905 -0.142332 0.064474
v 0.142332 -0.195904 0.064474
v 0.074829 -0.230299 0.064474
v 0.000000 -0.242151 0.064474
v -0.074829 -0.230299 0.064474
v -0.142332 -0.195904 0.064474
v -0.195905 -0.142332 0.064474
v -0.230299 -0.074829 0.064474
v -0.242151 0.000000 0.064474
v -0.230299 0.074830 0.064474
v -0.195905 0.142332 0.064474
v -0.142332 0.195905 0.064474
v -0.074829 0.230300 0.064474
v 0.000000 0.242151 0.064474
v 0.074829 0.230300 0.064474
v 0.142332 0.195905 0.064474
v 0.195905 0.142332 0.064474
v 0.230299 0.074830 0.064474
v 0.242151 0.000000 0.064474
v 0.230299 -0.074829 -0.046938
v 0.195905 -0.142332 -0.046938
v 0.142332 -0.195904 -0.046938
v 0.074829 -0.230299 -0.046938
v 0.000000 -0.242151 -0.046938
v -0.074829 -0.230299 -0.046938
v -0.142332 -0.195904 -0.046938
v -0.195905 -0.142332 -0.046938
v -0.230299 -0.074829 -0.046938
v -0.242151 0.000000 -0.046938
v -0.230299 0.074830 -0.046938
v -0.195905 0.142332 -0.046938
v -0.142332 0.195905 -0.046938
v -0.074829 0.230300 -0.046938
v 0.000000 0.242151 -0.046938
v 0.074829 0.230300 -0.046938
v 0.142332 0.195905 -0.046938
v 0.195905 0.142332 -0.046938
v 0.230299 0.074830 -0.046938
v 0.242151 0.000000 -0.046938
v 0.213170 -0.069263 -0.064474
v 0.181333 -0.131746 -0.064474
v 0.000000 0.000000 -0.064474
v 0.131747 -0.181333 -0.064474
v 0.069263 -0.213170 -0.064474
v 0.000000 -0.224140 -0.064474
v -0.069263 -0.213170 -0.064474
v -0.131747 -0.181333 -0.064474
v -0.181333 -0.131746 -0.064474
v -0.213170 -0.069263 -0.064474
v -0.224141 0.000000 -0.064474
v -0.213170 0.069263 -0.064474
v -0.181333 0.131747 -0.064474
v -0.131747 0.181333 -0.064474
v -0.069263 0.213170 -0.064474
v 0.000000 0.224141 -0.064474
v 0.069263 0.213170 -0.064474
v 0.131747 0.181333 -0.064474
v 0.181333 0.131747 -0.064474
v 0.213170 0.069263 -0.064474
v 0.224141 0.000000 -0.064474
v 0.383810 -0.124709 0.064474
v 0.326489 -0.237206 0.064474
v 0.237207 -0.326489 0.064474
v 0.124709 -0.383810 0.064474
v 0.000000 -0.403561 0.064474
v -0.124709 -0.383810 0.064474
v -0.237207 -0.326489 0.064474
v -0.326489 -0.237206 0.064474
v -0.383810 -0.124709 0.064474
v -0.403561 0.000000 0.064474
v -0.383810 0.124709 0.064474
v -0.326489 0.237206 0.064474
v -0.237207 0.326489 0.064474
v -0.124709 0.383811 0.064474
v 0.000000 0.403562 0.064474
v 0.124709 0.383811 0.064474
v 0.237207 0.326489 0.064474
v 0.326489 0.237206 0.064474
v 0.383810 0.124709 0.064474
v 0.403561 0.000000 0.064474
v 0.383810 -0.124709 0.215717
v 0.326489 -0.237206 0.215717
v 0.237207 -0.326489 0.215717
v 0.124709 -0.383810 0.215717
v 0.000000 -0.403561 0.215717
v -0.124709 -0.383810 0.215717
v -0.237207 -0.326489 0.215717
v -0.326489 -0.237206 0.215717
v -0.383810 -0.124709 0.215717
v -0.403561 0.000000 0.215717
v -0.383810 0.124709 0.215717
v -0.326489 0.237206 0.215717
v -0.237207 0.326489 0.215717
v -0.124709 0.383811 0.215717
v 0.000000 0.403562 0.215717
v 0.124709 0.383811 0.215717
v 0.237207 0.326489 0.215717
v 0.326489 0.237206 0.215717
v 0.383810 0.124709 0.215717
v 0.403561 0.000000 0.215717
vt 0.858773 0.598552
vt 0.891765 0.631477
vt 0.830883 0.679797
vt 0.815815 0.663309
vt 0.912970 0.672975
vt 0.840151 0.700128
vt 0.920317 0.719000
vt 0.842674 0.722330
vt 0.913083 0.765042
vt 0.838209 0.744221
vt 0.891975 0.806594
vt 0.827188 0.763657
vt 0.859069 0.839588
vt 0.810720 0.778756
vt 0.817570 0.860810
vt 0.790388 0.788022
vt 0.771538 0.868165
vt 0.768188 0.790541
vt 0.725488 0.860932
vt 0.746302 0.786067
vt 0.683928 0.839824
vt 0.726866 0.775061
vt 0.650925 0.806901
vt 0.711791 0.758578
vt 0.629722 0.765391
vt 0.702554 0.738241
vt 0.622384 0.719370
vt 0.700060 0.716044
vt 0.629615 0.673340
vt 0.704498 0.694146
vt 0.650712 0.631785
vt 0.715495 0.674695
vt 0.683622 0.598776
vt 0.731965 0.659604
vt 0.725128 0.577557
vt 0.752295 0.650352
vt 0.771158 0.570204
vt 0.774495 0.647826
vt 0.817212 0.577436
vt 0.796385 0.652293
vt 0.172092 0.733141
vt 0.207174 0.745816
vt 0.149616 0.850229
vt 0.236621 0.768713
vt 0.257554 0.799589
vt 0.267919 0.835422
vt 0.266704 0.872704
vt 0.254027 0.907785
vt 0.231130 0.937234
vt 0.200256 0.958165
vt 0.164423 0.968530
vt 0.127141 0.967314
vt 0.092058 0.954640
vt 0.062611 0.931743
vt 0.041680 0.900866
vt 0.031315 0.865035
vt 0.032529 0.827753
vt 0.045205 0.792671
vt 0.068102 0.763224
vt 0.098977 0.742293
vt 0.134810 0.731926
vt 0.177413 0.703873
vt 0.221278 0.719626
vt 0.258129 0.748163
vt 0.284358 0.786690
vt 0.297397 0.831439
vt 0.295970 0.878026
vt 0.280218 0.921890
vt 0.251680 0.958740
vt 0.213153 0.984969
vt 0.168406 0.998008
vt 0.121819 0.996582
vt 0.077955 0.980828
vt 0.041105 0.952292
vt 0.014876 0.913765
vt 0.001837 0.869019
vt 0.003263 0.822432
vt 0.019015 0.778567
vt 0.047551 0.741716
vt 0.086080 0.715487
vt 0.130826 0.702447
vt 0.533854 0.290034
vt 0.500336 0.244341
vt 0.585193 0.158456
vt 0.641097 0.234574
vt 0.551612 0.343850
vt 0.670744 0.324246
vt 0.551871 0.400517
vt 0.671231 0.418686
vt 0.534606 0.454492
vt 0.642509 0.508656
vt 0.501506 0.500490
vt 0.587391 0.585348
vt 0.455813 0.534008
vt 0.511274 0.641251
vt 0.401998 0.551767
vt 0.421603 0.670899
vt 0.345331 0.552026
vt 0.327165 0.671386
vt 0.291356 0.534761
vt 0.237195 0.642665
vt 0.245357 0.501662
vt 0.160503 0.587549
vt 0.211840 0.455970
vt 0.104599 0.511433
vt 0.194081 0.402153
vt 0.074949 0.421762
vt 0.193821 0.345485
vt 0.074460 0.327322
vt 0.211086 0.291509
vt 0.103180 0.237350
vt 0.244185 0.245510
vt 0.158297 0.160656
vt 0.289878 0.211992
vt 0.234415 0.104750
vt 0.343694 0.194234
vt 0.324088 0.075101
vt 0.400362 0.193975
vt 0.418529 0.074615
vt 0.454337 0.211241
vt 0.508501 0.103337
vt 0.636413 0.105903
vt 0.706049 0.200420
vt 0.743072 0.311835
vt 0.743854 0.429233
vt 0.708318 0.541128
vt 0.639945 0.636566
vt 0.545429 0.706203
vt 0.434015 0.743226
vt 0.316620 0.744009
vt 0.204725 0.708476
vt 0.109286 0.640105
vt 0.039648 0.545590
vt 0.002622 0.434177
vt 0.001837 0.316779
vt 0.037369 0.204882
vt 0.105741 0.109440
vt 0.200258 0.039799
vt 0.311676 0.002774
vt 0.429075 0.001992
vt 0.540973 0.037528
vn 0.951057 -0.309016 0.000000
vn 0.809017 -0.587786 0.000000
vn 0.809017 -0.587786 0.000000
vn 0.951057 -0.309016 0.000000
vn 0.809017 -0.587786 0.000000
vn 0.587784 -0.809018 0.000000
vn 0.587784 -0.809018 0.000000
vn 0.809017 -0.587786 0.000000
vn 0.587784 -0.809018 0.000000
vn 0.309017 -0.951057 0.000000
vn 0.309017 -0.951057 0.000000
vn 0.587784 -0.809018 0.000000
vn 0.309017 -0.951057 0.000000
vn 0.000000 -1.000000 0.000000
vn 0.000000 -1.000000 0.000000
vn 0.309017 -0.951057 0.000000
vn 0.000000 -1.000000 0.000000
vn -0.309017 -0.951057 0.000000
vn -0.309017 -0.951057 0.000000
vn 0.000000 -1.000000 0.000000
vn -0.309017 -0.951057 0.000000
vn -0.587785 -0.809017 0.000000
vn -0.587785 -0.809017 0.000000
vn -0.309017 -0.951057 0.000000
vn -0.587785 -0.809017 0.000000
vn -0.809017 -0.587785 0.000000
vn -0.809017 -0.587785 0.000000
vn -0.587785 -0.809017 0.000000
vn -0.809017 -0.587785 0.000000
vn -0.951057 -0.309017 0.000000
vn -0.951057 -0.309017 0.000000
vn -0.809017 -0.587785 0.000000
vn -0.951057 -0.309017 0.000000
vn -1.000000 0.000000 0.000000
vn -1.000000 0.000000 0.000000
vn -0.951057 -0.309017 0.000000
vn -1.000000 0.000000 0.000000
vn -0.951057 0.309017 0.000000
vn -0.951057 0.309017 0.000000
vn -1.000000 0.000000 0.000000
vn -0.951057 0.309017 0.000000
vn -0.809017 0.587785 0.000000
vn -0.809017 0.587785 0.000000
vn -0.951057 0.309017 0.000000
vn -0.809017 0.587785 0.000000
vn -0.587786 0.809017 0.000000
vn -0.587786 0.809017 0.000000
vn -0.809017 0.587785 0.000000
vn -0.587786 0.809017 0.000000
vn -0.309017 0.951057 0.000000
vn -0.309017 0.951057 0.000000
vn -0.587786 0.809017 0.000000
vn -0.309017 0.951057 0.000000
vn 0.000000 1.000000 0.000000
vn 0.000000 1.000000 0.000000
vn -0.309017 0.951057 0.000000
vn 0.000000 1.000000 0.000000
vn 0.309017 0.951057 0.000000
vn 0.309017 0.951057 0.000000
vn 0.000000 1.000000 0.000000
vn 0.309017 0.951057 0.000000
vn 0.587786 0.809017 0.000000
vn 0.587786 0.809017 0.000000
vn 0.309017 0.951057 0.000000
vn 0.587786 0.809017 0.000000
vn 0.809017 0.587785 0.000000
vn 0.809017 0.587785 0.000000
vn 0.587786 0.809017 0.000000
vn 0.809017 0.587785 0.000000
vn 0.951057 0.309017 0.000000
vn 0.951057 0.309017 0.000000
vn 0.809017 0.587785 0.000000
vn 0.951057 0.309017 0.000000
vn 1.000000 0.000001 0.000000
vn 1.000000 0.000001 0.000000
vn 0.951057 0.309017 0.000000
vn 1.000000 0.000001 0.000000
vn 0.951057 -0.309016 0.000000
vn 0.951057 -0.309016 0.000000
vn 1.000000 0.000001 0.000000
vn 0.000000 0.000000 -1.000000
vn 0.000000 0.000000 -1.000000
vn 0.000000 0.000000 -1.000000
vn 0.000000 0.000000 -1.000000
vn 0.000000 0.000000 -1.000000
vn 0.000000 0.000000 -1.000000
vn 0.000000 0.000000 -1.000000
vn 0.000000 0.000000 -1.000000
vn 0.000000 0.000000 -1.000000
vn 0.000000 0.000000 -1.000000
vn 0.000000 0.000000 -1.000000
vn 0.000000 0.000000 -1.000000
vn 0.000000 0.000000 -1.000000
vn 0.000000 0.000000 -1.000000
vn 0.000000 0.000000 -1.000000
vn 0.000000 0.000000 -1.000000
vn 0.000000 0.000000 -1.000000
vn 0.000000 0.000000 -1.000000
vn 0.000000 0.000000 -1.000000
vn 0.000000 0.000000 -1.000000
vn 0.000000 0.000000 -1.000000
vn 0.000000 0.000000 -1.000000
vn 0.000000 0.000000 -1.000000
vn 0.000000 0.000000 -1.000000
vn 0.000000 0.000000 -1.000000
vn 0.000000 0.000000 -1.000000
vn 0.000000 0.000000 -1.000000
vn 0.000000 0.000000 -1.000000
vn 0.000000 0.000000 -1.000000
vn 0.000000 0.000000 -1.000000
vn 0.000000 0.000000 -1.000000
vn 0.000000 0.000000 -1.000000
vn 0.000000 0.000000 -1.000000
vn 0.000000 0.000000 -1.000000
vn 0.000000 0.000000 -1.000000
vn 0.000000 0.000000 -1.000000
vn 0.000000 0.000000 -1.000000
vn 0.000000 0.000000 -1.000000
vn 0.000000 0.000000 -1.000000
vn 0.000000 0.000000 -1.000000
vn 0.000000 0.000000 -1.000000
vn 0.000000 0.000000 -1.000000
vn 0.000000 0.000000 -1.000000
vn 0.000000 0.000000 -1.000000
vn 0.000000 0.000000 -1.000000
vn 0.000000 0.000000 -1.000000
vn 0.000000 0.000000 -1.000000
vn 0.000000 0.000000 -1.000000
vn 0.000000 0.000000 -1.000000
vn 0.000000 0.000000 -1.000000
vn 0.000000 0.000000 -1.000000
vn 0.000000 0.000000 -1.000000
vn 0.000000 0.000000 -1.000000
vn 0.000000 0.000000 -1.000000
vn 0.000000 0.000000 -1.000000
vn 0.000000 0.000000 -1.000000
vn 0.000000 0.000000 -1.000000
vn 0.000000 0.000000 -1.000000
vn 0.000000 0.000000 -1.000000
vn 0.000000 0.000000 -1.000000
vn 0.663410 -0.215554 -0.716536
vn 0.564330 -0.410010 -0.716536
vn 0.564330 -0.410009 -0.716536
vn 0.663410 -0.215554 -0.716536
vn 0.564330 -0.410010 -0.716536
vn 0.410010 -0.564331 -0.716534
vn 0.410010 -0.564331 -0.716534
vn 0.564330 -0.410009 -0.716536
vn 0.410010 -0.564331 -0.716534
vn 0.215556 -0.663414 -0.716532
vn 0.215556 -0.663414 -0.716532
vn 0.410010 -0.564331 -0.716534
vn 0.215556 -0.663414 -0.716532
vn 0.000000 -0.697555 -0.716531
vn 0.000000 -0.697555 -0.716531
vn 0.215556 -0.663414 -0.716532
vn 0.000000 -0.697555 -0.716531
vn -0.215556 -0.663413 -0.716532
vn -0.215556 -0.663413 -0.716532
vn 0.000000 -0.697555 -0.716531
vn -0.215556 -0.663413 -0.716532
vn -0.410011 -0.564331 -0.716535
vn -0.410010 -0.564331 -0.716534
vn -0.215556 -0.663413 -0.716532
vn -0.410011 -0.564331 -0.716535
vn -0.564330 -0.410010 -0.716536
vn -0.564330 -0.410009 -0.716536
vn -0.410010 -0.564331 -0.716534
vn -0.564330 -0.410010 -0.716536
vn -0.663411 -0.215555 -0.716535
vn -0.663411 -0.215555 -0.716535
vn -0.564330 -0.410009 -0.716536
vn -0.663411 -0.215555 -0.716535
vn -0.697552 0.000000 -0.716534
vn -0.697552 0.000000 -0.716534
vn -0.663411 -0.215555 -0.716535
vn -0.697552 0.000000 -0.716534
vn -0.663412 0.215555 -0.716534
vn -0.663412 0.215555 -0.716534
vn -0.697552 0.000000 -0.716534
vn -0.663412 0.215555 -0.716534
vn -0.564332 0.410012 -0.716533
vn -0.564332 0.410012 -0.716533
vn -0.663412 0.215555 -0.716534
vn -0.564332 0.410012 -0.716533
vn -0.410010 0.564332 -0.716534
vn -0.410010 0.564332 -0.716534
vn -0.564332 0.410012 -0.716533
vn -0.410010 0.564332 -0.716534
vn -0.215555 0.663411 -0.716535
vn -0.215555 0.663411 -0.716535
vn -0.410010 0.564332 -0.716534
vn -0.215555 0.663411 -0.716535
vn 0.000000 0.697553 -0.716534
vn 0.000000 0.697553 -0.716534
vn -0.215555 0.663411 -0.716535
vn 0.000000 0.697553 -0.716534
vn 0.215555 0.663411 -0.716535
vn 0.215555 0.663411 -0.716535
vn 0.000000 0.697553 -0.716534
vn 0.215555 0.663411 -0.716535
vn 0.410012 0.564331 -0.716534
vn 0.410011 0.564332 -0.716533
vn 0.215555 0.663411 -0.716535
vn 0.410012 0.564331 -0.716534
vn 0.564332 0.410012 -0.716533
vn 0.564332 0.410012 -0.716533
vn 0.410011 0.564332 -0.716533
vn 0.564332 0.410012 -0.716533
vn 0.663412 0.215555 -0.716534
vn 0.663412 0.215555 -0.716534
vn 0.564332 0.410012 -0.716533
vn 0.663412 0.215555 -0.716534
vn 0.697552 0.000001 -0.716534
vn 0.697552 0.000001 -0.716534
vn 0.663412 0.215555 -0.716534
vn 0.697552 0.000001 -0.716534
vn 0.663410 -0.215554 -0.716536
vn 0.663410 -0.215554 -0.716536
vn 0.697552 0.000001 -0.716534
vn 0.000000 0.000000 -1.000000
vn 0.000000 0.000000 -1.000000
vn 0.000000 0.000000 -1.000000
vn 0.000000 0.000000 -1.000000
vn -0.000000 0.000000 -1.000000
vn -0.000000 0.000000 -1.000000
vn -0.000000 0.000000 -1.000000
vn -0.000000 0.000000 -1.000000
vn 0.000000 0.000000 -1.000000
vn 0.000000 0.000000 -1.000000
vn 0.000000 0.000000 -1.000000
vn 0.000000 0.000000 -1.000000
vn 0.000000 0.000000 -1.000000
vn 0.000000 0.000000 -1.000000
vn 0.000000 0.000000 -1.000000
vn 0.000000 0.000000 -1.000000
vn 0.000000 0.000000 -1.000000
vn 0.000000 0.000000 -1.000000
vn 0.000000 0.000000 -1.000000
vn 0.000000 0.000000 -1.000000
vn -0.000000 0.000000 -1.000000
vn -0.000000 0.000000 -1.000000
vn -0.000000 0.000000 -1.000000
vn -0.000000 0.000000 -1.000000
vn 0.000000 0.000000 -1.000000
vn 0.000000 0.000000 -1.000000
vn 0.000000 0.000000 -1.000000
vn 0.000000 0.000000 -1.000000
vn -0.000000 0.000000 -1.000000
vn -0.000000 0.000000 -1.000000
vn -0.000000 0.000000 -1.000000
vn -0.000000 0.000000 -1.000000
vn 0.000000 0.000000 -1.000000
vn 0.000000 0.000000 -1.000000
vn 0.000000 0.000000 -1.000000
vn 0.000000 0.000000 -1.000000
vn 0.000000 0.000000 -1.000000
vn 0.000000 0.000000 -1.000000
vn 0.000000 0.000000 -1.000000
vn 0.000000 0.000000 -1.000000
vn 0.000000 0.000000 -1.000000
vn 0.000000 0.000000 -1.000000
vn 0.000000 0.000000 -1.000000
vn 0.000000 0.000000 -1.000000
vn 0.000000 0.000000 -1.000000
vn 0.000000 0.000000 -1.000000
vn 0.000000 0.000000 -1.000000
vn 0.000000 0.000000 -1.000000
vn 0.000000 0.000000 -1.000000
vn 0.000000 0.000000 -1.000000
vn 0.000000 0.000000 -1.000000
vn 0.000000 0.000000 -1.000000
vn 0.000000 0.000000 -1.000000
vn 0.000000 0.000000 -1.000000
vn 0.000000 0.000000 -1.000000
vn 0.000000 0.000000 -1.000000
vn 0.000000 0.000000 -1.000000
vn 0.000000 0.000000 -1.000000
vn 0.000000 0.000000 -1.000000
vn 0.000000 0.000000 -1.000000
vn 0.000000 0.000000 -1.000000
vn 0.000000 0.000000 -1.000000
vn 0.000000 0.000000 -1.000000
vn 0.000000 0.000000 -1.000000
vn 0.000000 0.000000 -1.000000
vn 0.000000 0.000000 -1.000000
vn 0.000000 0.000000 -1.000000
vn 0.000000 0.000000 -1.000000
vn 0.000000 0.000000 -1.000000
vn 0.000000 0.000000 -1.000000
vn 0.000000 0.000000 -1.000000
vn 0.000000 0.000000 -1.000000
vn 0.000000 0.000000 -1.000000
vn 0.000000 0.000000 -1.000000
vn 0.000000 0.000000 -1.000000
vn 0.000000 0.000000 -1.000000
vn -0.000000 -0.000000 -1.000000
vn -0.000000 -0.000000 -1.000000
vn -0.000000 -0.000000 -1.000000
vn -0.000000 -0.000000 -1.000000
vn 0.809014 -0.587790 0.000000
vn 0.951057 -0.309014 0.000000
vn 0.951057 -0.309014 0.000000
vn 0.809014 -0.587790 0.000000
vn 0.587792 -0.809012 0.000000
vn 0.587792 -0.809012 0.000000
vn 0.309013 -0.951058 0.000000
vn 0.309013 -0.951058 0.000000
vn 0.000000 -1.000000 0.000000
vn 0.000000 -1.000000 0.000000
vn -0.309013 -0.951058 0.000000
vn -0.309013 -0.951058 0.000000
vn -0.587792 -0.809012 0.000000
vn -0.587792 -0.809012 0.000000
vn -0.809014 -0.587790 0.000000
vn -0.809014 -0.587790 0.000000
vn -0.951057 -0.309014 0.000000
vn -0.951057 -0.309014 0.000000
vn -1.000000 0.000000 0.000000
vn -1.000000 0.000000 0.000000
vn -0.951058 0.309014 0.000000
vn -0.951058 0.309014 0.000000
vn -0.809014 0.587789 0.000000
vn -0.809014 0.587789 0.000000
vn -0.587792 0.809012 0.000000
vn -0.587792 0.809012 0.000000
vn -0.309016 0.951057 0.000000
vn -0.309016 0.951057 0.000000
vn 0.000000 1.000000 0.000000
vn 0.000000 1.000000 0.000000
vn 0.309016 0.951057 0.000000
vn 0.309016 0.951057 0.000000
vn 0.587792 0.809012 0.000000
vn 0.587792 0.809012 0.000000
vn 0.809014 0.587789 0.000000
vn 0.809014 0.587789 0.000000
vn 0.951058 0.309014 0.000000
vn 0.951058 0.309014 0.000000
vn 1.000000 0.000000 0.000000
vn 1.000000 -0.000000 0.000000
s off
g Boton_OBJ:Luces
usemtl Boton_OBJ:pCylinder68SG
f 1/1/1 2/2/2 22/3/3 21/4/4
f 2/2/5 3/5/6 23/6/7 22/3/8
f 3/5/9 4/7/10 24/8/11 23/6/12
f 4/7/13 5/9/14 25/10/15 24/8/16
f 5/9/17 6/11/18 26/12/19 25/10/20
f 6/11/21 7/13/22 27/14/23 26/12/24
f 7/13/25 8/15/26 28/16/27 27/14/28
f 8/15/29 9/17/30 29/18/31 28/16/32
f 9/17/33 10/19/34 30/20/35 29/18/36
f 10/19/37 11/21/38 31/22/39 30/20/40
f 11/21/41 12/23/42 32/24/43 31/22/44
f 12/23/45 13/25/46 33/26/47 32/24/48
f 13/25/49 14/27/50 34/28/51 33/26/52
f 14/27/53 15/29/54 35/30/55 34/28/56
f 15/29/57 16/31/58 36/32/59 35/30/60
f 16/31/61 17/33/62 37/34/63 36/32/64
f 17/33/65 18/35/66 38/36/67 37/34/68
f 18/35/69 19/37/70 39/38/71 38/36/72
f 19/37/73 20/39/74 40/40/75 39/38/76
f 20/39/77 1/1/78 21/4/79 40/40/80
f 41/41/81 42/42/82 43/43/83
f 42/42/84 44/44/85 43/43/86
f 44/44/87 45/45/88 43/43/89
f 45/45/90 46/46/91 43/43/92
f 46/46/93 47/47/94 43/43/95
f 47/47/96 48/48/97 43/43/98
f 48/48/99 49/49/100 43/43/101
f 49/49/102 50/50/103 43/43/104
f 50/50/105 51/51/106 43/43/107
f 51/51/108 52/52/109 43/43/110
f 52/52/111 53/53/112 43/43/113
f 53/53/114 54/54/115 43/43/116
f 54/54/117 55/55/118 43/43/119
f 55/55/120 56/56/121 43/43/122
f 56/56/123 57/57/124 43/43/125
f 57/57/126 58/58/127 43/43/128
f 58/58/129 59/59/130 43/43/131
f 59/59/132 60/60/133 43/43/134
f 60/60/135 61/61/136 43/43/137
f 61/61/138 41/41/139 43/43/140
f 21/62/141 22/63/142 42/42/143 41/41/144
f 22/63/145 23/64/146 44/44/147 42/42/148
f 23/64/149 24/65/150 45/45/151 44/44/152
f 24/65/153 25/66/154 46/46/155 45/45/156
f 25/66/157 26/67/158 47/47/159 46/46/160
f 26/67/161 27/68/162 48/48/163 47/47/164
f 27/68/165 28/69/166 49/49/167 48/48/168
f 28/69/169 29/70/170 50/50/171 49/49/172
f 29/70/173 30/71/174 51/51/175 50/50/176
f 30/71/177 31/72/178 52/52/179 51/51/180
f 31/72/181 32/73/182 53/53/183 52/52/184
f 32/73/185 33/74/186 54/54/187 53/53/188
f 33/74/189 34/75/190 55/55/191 54/54/192
f 34/75/193 35/76/194 56/56/195 55/55/196
f 35/76/197 36/77/198 57/57/199 56/56/200
f 36/77/201 37/78/202 58/58/203 57/57/204
f 37/78/205 38/79/206 59/59/207 58/58/208
f 38/79/209 39/80/210 60/60/211 59/59/212
f 39/80/213 40/81/214 61/61/215 60/60/216
f 40/81/217 21/62/218 41/41/219 61/61/220
f 2/82/221 1/83/222 62/84/223 63/85/224
f 3/86/225 2/82/226 63/85/227 64/87/228
f 4/88/229 3/86/230 64/87/231 65/89/232
f 5/90/233 4/88/234 65/89/235 66/91/236
f 6/92/237 5/90/238 66/91/239 67/93/240
f 7/94/241 6/92/242 67/93/243 68/95/244
f 8/96/245 7/94/246 68/95/247 69/97/248
f 9/98/249 8/96/250 69/97/251 70/99/252
f 10/100/253 9/98/254 70/99/255 71/101/256
f 11/102/257 10/100/258 71/101/259 72/103/260
f 12/104/261 11/102/262 72/103/263 73/105/264
f 13/106/265 12/104/266 73/105/267 74/107/268
f 14/108/269 13/106/270 74/107/271 75/109/272
f 15/110/273 14/108/274 75/109/275 76/111/276
f 16/112/277 15/110/278 76/111/279 77/113/280
f 17/114/281 16/112/282 77/113/283 78/115/284
f 18/116/285 17/114/286 78/115/287 79/117/288
f 19/118/289 18/116/290 79/117/291 80/119/292
f 20/120/293 19/118/294 80/119/295 81/121/296
f 1/83/297 20/120/298 81/121/299 62/84/300
s 1
f 63/85/301 62/84/302 82/122/303 83/123/304
f 64/87/305 63/85/301 83/123/304 84/124/306
f 65/89/307 64/87/305 84/124/306 85/125/308
f 66/91/309 65/89/307 85/125/308 86/126/310
f 67/93/311 66/91/309 86/126/310 87/127/312
f 68/95/313 67/93/311 87/127/312 88/128/314
f 69/97/315 68/95/313 88/128/314 89/129/316
f 70/99/317 69/97/315 89/129/316 90/130/318
f 71/101/319 70/99/317 90/130/318 91/131/320
f 72/103/321 71/101/319 91/131/320 92/132/322
f 73/105/323 72/103/321 92/132/322 93/133/324
f 74/107/325 73/105/323 93/133/324 94/134/326
f 75/109/327 74/107/325 94/134/326 95/135/328
f 76/111/329 75/109/327 95/135/328 96/136/330
f 77/113/331 76/111/329 96/136/330 97/137/332
f 78/115/333 77/113/331 97/137/332 98/138/334
f 79/117/335 78/115/333 98/138/334 99/139/336
f 80/119/337 79/117/335 99/139/336 100/140/338
f 81/121/339 80/119/337 100/140/338 101/141/340
f 62/84/302 81/121/339 101/141/340 82/122/303
