# This file uses centimeters as units for non-parametric coordinates.

mtllib Cerrojito.mtl
g default
v 0.077030 0.035103 -0.078017
v 0.040497 0.035103 -0.091714
v 0.040497 0.024880 -0.091714
v 0.077030 0.024880 -0.078017
v 0.131051 0.024880 -0.000000
v -0.106022 0.024880 0.056683
v -0.077030 0.024880 0.078017
v 0.097784 0.035103 -0.099037
v 0.051408 0.035103 -0.116425
v -0.106022 0.035103 0.056683
v -0.077030 0.035103 0.078017
v -0.134588 0.035103 0.071955
v -0.097784 0.035103 0.099037
v 0.106022 0.024880 -0.056683
v -0.040497 0.024880 0.091714
v 0.024328 0.024880 -0.011665
v 0.124637 0.024880 -0.029800
v -0.000000 0.024880 0.096434
v 0.134588 -0.002331 -0.071955
v 0.097784 -0.002331 -0.099037
v 0.134588 0.035103 -0.071955
v -0.097784 -0.002331 0.099037
v -0.051408 -0.002331 0.116425
v -0.051408 0.035103 0.116425
v 0.106022 0.035103 -0.056683
v -0.040497 0.035103 0.091714
v 0.131051 0.024880 -0.000000
v 0.040497 0.024880 0.091714
v 0.124637 0.024880 0.029800
v 0.077030 0.024880 0.078017
v 0.024328 0.024880 0.011668
v 0.106022 0.024880 0.056683
v 0.124637 0.035103 -0.029800
v -0.000000 0.035103 0.096434
v 0.158218 -0.002331 -0.037829
v 0.158218 0.035103 -0.037829
v -0.000000 -0.002331 0.122417
v -0.000000 0.035103 0.122417
v 0.131051 0.035103 -0.000000
v 0.040497 0.035103 0.091714
v 0.166360 -0.002331 0.000000
v 0.166360 0.035103 0.000000
v 0.051408 -0.002331 0.116425
v 0.051408 0.035103 0.116425
v 0.124637 0.035103 0.029800
v 0.077030 0.035103 0.078017
v 0.106022 0.035103 0.056683
v 0.158218 0.035103 0.037829
v 0.158218 -0.002331 0.037829
v 0.097784 0.035103 0.099037
v 0.097784 -0.002331 0.099037
v 0.134588 0.035103 0.071955
v 0.134588 -0.002331 0.071955
v -0.000357 0.024880 0.052074
v -0.000000 0.024880 -0.096434
v -0.134588 -0.002331 0.071955
v -0.085119 0.024880 0.052072
v -0.043595 0.024880 0.064365
v 0.051408 -0.002331 -0.116425
v -0.043595 0.024880 -0.064366
v -0.067175 0.024880 0.061214
v -0.067175 0.024880 -0.061208
v -0.099359 0.024880 -0.037847
v -0.040497 0.024880 -0.091714
v 0.013882 0.024880 0.037836
v -0.000357 0.024880 -0.052073
v 0.013882 0.024880 -0.037834
v -0.099359 0.024880 0.037847
v -0.077030 0.024880 -0.078017
v -0.108503 0.024880 0.019903
v -0.124637 0.024880 0.029800
v -0.124637 0.035103 0.029800
v -0.000000 0.035103 -0.096434
v -0.106022 0.024880 -0.056683
v -0.158218 0.035103 0.037829
v 0.000000 0.035103 -0.122417
v -0.108503 0.024880 -0.019903
v -0.111653 0.024880 0.000000
v -0.085119 0.024880 -0.052067
v -0.158218 -0.002331 0.037829
v 0.000000 -0.002331 -0.122417
v -0.131051 0.035103 -0.000000
v -0.131051 0.024880 -0.000000
v -0.040497 0.035103 -0.091714
v -0.166360 0.035103 0.000000
v -0.051408 0.035103 -0.116425
v -0.124637 0.035103 -0.029800
v -0.124637 0.024880 -0.029800
v -0.077030 0.035103 -0.078017
v -0.158218 0.035103 -0.037829
v -0.166360 -0.002331 0.000000
v -0.097784 0.035103 -0.099037
v -0.106022 0.035103 -0.056683
v -0.051408 -0.002331 -0.116425
v -0.134588 0.035103 -0.071955
v -0.158218 -0.002331 -0.037829
v -0.097784 -0.002331 -0.099037
v -0.134588 -0.002331 -0.071955
v 0.105970 0.024880 -0.011665
v 0.105970 0.024880 0.000001
v 0.105970 0.024880 0.011668
v 0.013882 -0.074684 -0.037834
v 0.024328 -0.074684 -0.011665
v 0.105970 -0.074684 0.011668
v 0.024328 -0.074684 0.011668
v -0.067175 -0.074684 0.061214
v -0.043595 -0.074684 0.064366
v -0.000357 -0.074684 0.052074
v 0.013882 -0.074684 0.037836
v -0.000357 -0.074684 -0.052073
v -0.099359 -0.074684 0.037847
v -0.085119 -0.074684 0.052072
v -0.108503 -0.074684 0.019903
v -0.043595 -0.074684 -0.064366
v -0.067175 -0.074684 -0.061208
v -0.108503 -0.074684 -0.019903
v -0.111653 -0.074684 0.000000
v -0.099359 -0.074684 -0.037847
v -0.085119 -0.074684 -0.052067
v 0.105970 -0.074684 -0.011665
v 0.105970 -0.074684 0.000001
v -0.034363 -0.074684 -0.000000
vt 0.591841 0.970159
vt 0.548284 0.992353
vt 0.548284 0.992353
vt 0.591841 0.970159
vt 0.500000 0.837500
vt 0.373591 0.751909
vt 0.408159 0.717341
vt 0.591841 0.970159
vt 0.548284 0.992353
vt 0.373591 0.751909
vt 0.408159 0.717341
vt 0.373591 0.751909
vt 0.408159 0.717341
vt 0.626409 0.935591
vt 0.451716 0.695147
vt 0.472674 0.844178
vt 0.648603 0.892034
vt 0.500000 0.687500
vt 0.387500 0.312500
vt 0.400000 0.312500
vt 0.400000 0.688440
vt 0.387500 0.688440
vt 0.525000 0.312500
vt 0.537500 0.312500
vt 0.537500 0.688440
vt 0.525000 0.688440
vt 0.626409 0.935591
vt 0.451716 0.695147
vt 0.656250 0.843750
vt 0.548284 0.695147
vt 0.626409 0.935591
vt 0.451716 0.695147
vt 0.648603 0.795466
vt 0.591842 0.717341
vt 0.472796 0.833093
vt 0.626409 0.751908
vt 0.648603 0.892034
vt 0.500000 0.687500
vt 0.375000 0.312500
vt 0.375000 0.688440
vt 0.550000 0.312500
vt 0.550000 0.688440
vt 0.648603 0.892034
vt 0.500000 0.687500
vt 0.656250 0.843750
vt 0.548284 0.695147
vt 0.612500 0.312500
vt 0.625000 0.312500
vt 0.625000 0.688440
vt 0.612500 0.688440
vt 0.562500 0.312500
vt 0.562500 0.688440
vt 0.656250 0.843750
vt 0.548284 0.695147
vt 0.648603 0.795466
vt 0.591842 0.717341
vt 0.626409 0.751908
vt 0.648603 0.795466
vt 0.600000 0.312500
vt 0.600000 0.688440
vt 0.591842 0.717341
vt 0.575000 0.312500
vt 0.575000 0.688440
vt 0.626409 0.751908
vt 0.587500 0.312500
vt 0.587500 0.688440
vt 0.500000 1.000000
vt 0.512500 0.312500
vt 0.512500 0.688440
vt 0.412500 0.312500
vt 0.412500 0.688440
vt 0.451716 0.992353
vt 0.408159 0.970159
vt 0.351397 0.795466
vt 0.469533 0.825896
vt 0.465949 0.821244
vt 0.440126 0.806894
vt 0.449131 0.818782
vt 0.435942 0.816606
vt 0.351397 0.795466
vt 0.500000 1.000000
vt 0.373591 0.935591
vt 0.351397 0.795466
vt 0.500000 1.000000
vt 0.500000 0.312500
vt 0.500000 0.688440
vt 0.425000 0.312500
vt 0.425000 0.688440
vt 0.343750 0.843750
vt 0.343750 0.843750
vt 0.451716 0.992353
vt 0.343750 0.843750
vt 0.451716 0.992353
vt 0.351397 0.892034
vt 0.351397 0.892034
vt 0.408159 0.970159
vt 0.351397 0.892034
vt 0.487500 0.312500
vt 0.487500 0.688440
vt 0.408159 0.970159
vt 0.373591 0.935591
vt 0.437500 0.312500
vt 0.437500 0.688440
vt 0.441030 0.826995
vt 0.438729 0.833186
vt 0.437936 0.839983
vt 0.373591 0.935591
vt 0.475000 0.312500
vt 0.475000 0.688440
vt 0.450000 0.312500
vt 0.450000 0.688440
vt 0.462500 0.312500
vt 0.462500 0.688440
vt 0.438729 0.846802
vt 0.441030 0.852886
vt 0.446604 0.860960
vt 0.449131 0.860657
vt 0.446010 0.871092
vt 0.465949 0.856868
vt 0.469533 0.851779
vt 0.492002 0.839747
vt 0.491855 0.837721
vt 0.492662 0.835832
vt 0.000000 0.000000
vt 1.000000 0.000000
vt 1.000000 1.000000
vt 0.000000 1.000000
vt 0.000000 0.000000
vt 1.000000 0.000000
vt 1.000000 1.000000
vt 0.000000 1.000000
vt 0.000000 0.000000
vt 1.000000 0.000000
vt 1.000000 1.000000
vt 0.000000 1.000000
vt 0.000000 0.000000
vt 1.000000 0.000000
vt 1.000000 1.000000
vt 0.000000 1.000000
vt 0.000000 0.000000
vt 1.000000 0.000000
vt 1.000000 1.000000
vt 0.000000 1.000000
vt 0.000000 0.000000
vt 1.000000 0.000000
vt 1.000000 1.000000
vt 0.000000 1.000000
vt 0.000000 0.000000
vt 1.000000 0.000000
vt 1.000000 1.000000
vt 0.000000 1.000000
vt 0.000000 0.000000
vt 1.000000 0.000000
vt 1.000000 1.000000
vt 0.000000 1.000000
vt 0.000000 0.000000
vt 1.000000 0.000000
vt 1.000000 1.000000
vt 0.000000 1.000000
vt 0.000000 0.000000
vt 1.000000 0.000000
vt 1.000000 1.000000
vt 0.000000 1.000000
vt 0.000000 0.000000
vt 1.000000 0.000000
vt 1.000000 1.000000
vt 0.000000 1.000000
vt 0.000000 0.000000
vt 1.000000 0.000000
vt 1.000000 1.000000
vt 0.000000 1.000000
vt 0.000000 0.000000
vt 1.000000 0.000000
vt 1.000000 1.000000
vt 0.000000 1.000000
vt 0.000000 0.000000
vt 1.000000 0.000000
vt 1.000000 1.000000
vt 0.000000 1.000000
vt 0.000000 0.000000
vt 1.000000 0.000000
vt 1.000000 1.000000
vt 0.000000 1.000000
vt 0.000000 0.000000
vt 1.000000 0.000000
vt 1.000000 1.000000
vt 0.000000 1.000000
vt 0.000000 0.000000
vt 1.000000 0.000000
vt 1.000000 1.000000
vt 0.000000 1.000000
vt 0.000000 0.000000
vt 1.000000 0.000000
vt 1.000000 1.000000
vt 0.000000 1.000000
vt 0.000000 0.000000
vt 1.000000 0.000000
vt 1.000000 1.000000
vt 0.000000 1.000000
vt 0.000000 0.000000
vt 1.000000 0.000000
vt 1.000000 1.000000
vt 0.000000 1.000000
vt 0.000000 0.000000
vt 1.000000 0.000000
vt 0.500000 1.000000
vt 0.000000 0.000000
vt 1.000000 0.000000
vt 0.500000 1.000000
vt 0.000000 0.000000
vt 1.000000 0.000000
vt 0.500000 1.000000
vt 0.000000 0.000000
vt 1.000000 0.000000
vt 0.500000 1.000000
vt 0.000000 0.000000
vt 1.000000 0.000000
vt 0.500000 1.000000
vt 0.000000 0.000000
vt 1.000000 0.000000
vt 0.500000 1.000000
vt 0.000000 0.000000
vt 1.000000 0.000000
vt 0.500000 1.000000
vt 0.000000 0.000000
vt 1.000000 0.000000
vt 0.500000 1.000000
vt 0.000000 0.000000
vt 1.000000 0.000000
vt 0.500000 1.000000
vt 0.000000 0.000000
vt 1.000000 0.000000
vt 0.500000 1.000000
vt 0.000000 0.000000
vt 1.000000 0.000000
vt 0.500000 1.000000
vt 0.000000 0.000000
vt 1.000000 0.000000
vt 0.500000 1.000000
vt 0.000000 0.000000
vt 1.000000 0.000000
vt 0.500000 1.000000
vt 0.000000 0.000000
vt 1.000000 0.000000
vt 0.500000 1.000000
vt 0.000000 0.000000
vt 1.000000 0.000000
vt 0.500000 1.000000
vt 0.000000 0.000000
vt 1.000000 0.000000
vt 0.500000 1.000000
vt 0.000000 0.000000
vt 1.000000 0.000000
vt 0.500000 1.000000
vt 0.000000 0.000000
vt 1.000000 0.000000
vt 0.500000 1.000000
vt 0.000000 0.000000
vt 1.000000 0.000000
vt 0.500000 1.000000
vt 0.000000 0.000000
vt 1.000000 0.000000
vt 0.500000 1.000000
vn -0.471477 0.000000 0.881878
vn -0.232539 0.000000 0.972587
vn -0.232539 0.000000 0.972587
vn -0.471477 0.000000 0.881878
vn 0.000000 1.000000 0.000000
vn 0.000000 1.000000 0.000000
vn -0.000000 1.000000 0.000000
vn 0.000000 1.000000 -0.000000
vn 0.000000 1.000000 -0.000000
vn 0.000000 1.000000 -0.000000
vn 0.000000 1.000000 -0.000000
vn 0.711595 -0.000001 -0.702590
vn 0.471477 -0.000000 -0.881878
vn 0.471477 -0.000000 -0.881878
vn 0.711595 -0.000001 -0.702590
vn 0.000000 1.000000 0.000000
vn 0.000000 1.000000 0.000000
vn 0.000000 1.000000 0.000000
vn 0.000000 1.000000 0.000000
vn 0.000000 1.000000 -0.000000
vn 0.000000 1.000000 0.000000
vn -0.000000 1.000000 0.000000
vn 0.000000 1.000000 0.000000
vn 0.711594 0.000000 -0.702591
vn 0.471477 0.000000 -0.881878
vn 0.471477 0.000000 -0.881878
vn 0.711594 0.000000 -0.702591
vn -0.471477 0.000000 0.881878
vn -0.232539 0.000000 0.972587
vn -0.232539 0.000000 0.972587
vn -0.471477 0.000000 0.881878
vn -0.711594 0.000000 0.702591
vn -0.711594 0.000000 0.702591
vn 0.232539 0.000000 -0.972587
vn 0.232539 0.000000 -0.972587
vn 0.000000 -1.000000 0.000000
vn 0.000000 1.000000 0.000000
vn 0.000000 1.000000 0.000000
vn 0.000000 1.000000 0.000000
vn 0.000000 1.000000 0.000000
vn 0.000000 1.000000 0.000000
vn 0.000000 1.000000 0.000000
vn 0.000000 1.000000 0.000000
vn 0.000000 1.000000 0.000000
vn 0.000000 1.000000 0.000000
vn 0.000000 1.000000 0.000000
vn 0.000000 1.000000 0.000000
vn 0.000000 1.000000 0.000000
vn -0.914791 0.000000 0.403928
vn -0.914791 0.000000 0.403928
vn 0.000000 0.000000 -1.000000
vn 0.000000 0.000000 -1.000000
vn 0.914791 0.000000 -0.403929
vn 0.914791 0.000000 -0.403929
vn 0.000000 0.000000 1.000000
vn 0.000000 0.000000 1.000000
vn 0.000000 1.000000 0.000000
vn 0.000000 1.000000 0.000000
vn 0.000000 1.000000 0.000000
vn 0.000000 1.000000 0.000000
vn 0.000000 1.000000 -0.000000
vn 0.000000 1.000000 -0.000000
vn 0.000000 1.000000 -0.000000
vn 0.000000 1.000000 -0.000000
vn -1.000000 0.000000 -0.000001
vn -1.000000 0.000000 -0.000001
vn -0.232539 0.000000 -0.972587
vn -0.232539 0.000000 -0.972587
vn 1.000000 0.000000 0.000002
vn 1.000000 0.000000 0.000002
vn 0.232539 0.000000 0.972587
vn 0.232539 0.000000 0.972587
vn 0.000000 1.000000 -0.000000
vn 0.000000 1.000000 -0.000000
vn 0.000000 1.000000 -0.000000
vn 0.000000 1.000000 -0.000000
vn 0.000000 1.000000 0.000000
vn 0.000000 1.000000 0.000000
vn 0.000000 1.000000 0.000000
vn 0.000000 1.000000 0.000000
vn -0.914790 0.000000 -0.403930
vn -0.914790 0.000000 -0.403930
vn -0.471477 0.000000 -0.881878
vn -0.471477 0.000000 -0.881878
vn -0.711595 0.000000 -0.702590
vn -0.711595 0.000000 -0.702590
vn 0.000000 1.000000 0.000000
vn 0.000000 1.000000 0.000000
vn 0.000000 1.000000 0.000000
vn 0.000000 1.000000 0.000000
vn 0.914790 0.000000 0.403930
vn 0.914790 0.000000 0.403930
vn 0.000000 1.000000 0.000000
vn 0.000000 1.000000 0.000000
vn 0.000000 1.000000 0.000000
vn 0.000000 1.000000 0.000000
vn 0.471477 0.000000 0.881878
vn 0.471477 0.000000 0.881878
vn 0.000000 1.000000 0.000000
vn 0.000000 1.000000 0.000000
vn 0.000000 1.000000 0.000000
vn 0.000000 1.000000 0.000000
vn 0.000000 1.000000 0.000000
vn 0.000000 1.000000 0.000000
vn 0.000000 1.000000 0.000000
vn 0.000000 1.000000 0.000000
vn 0.711595 0.000000 0.702590
vn 0.711595 0.000000 0.702590
vn 0.000000 1.000000 -0.000000
vn -0.711594 0.000000 0.702591
vn -0.711594 0.000000 0.702591
vn 0.232539 0.000000 -0.972587
vn 0.232539 0.000000 -0.972587
vn 0.000000 1.000000 0.000000
vn 0.000000 1.000000 0.000000
vn 0.000000 1.000000 0.000000
vn 0.000000 1.000000 0.000000
vn 0.000000 1.000000 0.000000
vn 0.000000 1.000000 0.000000
vn 0.000000 1.000000 0.000000
vn 0.000000 1.000000 0.000000
vn 0.000000 1.000000 0.000000
vn -0.000000 1.000000 -0.000000
vn 0.000000 1.000000 -0.000002
vn 0.914790 -0.000000 -0.403930
vn 0.914790 -0.000000 -0.403930
vn 0.000000 0.000000 1.000000
vn 0.000000 0.000000 1.000000
vn 0.000000 1.000000 0.000000
vn 0.000000 1.000000 0.000000
vn 0.000000 1.000000 0.000000
vn 0.000000 1.000000 0.000000
vn 0.000000 1.000000 -0.000000
vn 0.000000 1.000000 -0.000000
vn 0.000000 1.000000 -0.000000
vn 0.000000 1.000000 -0.000000
vn -0.914790 0.000000 0.403930
vn -0.914790 0.000000 0.403930
vn -0.000000 0.000000 -1.000000
vn -0.000000 0.000000 -1.000000
vn 1.000000 0.000000 0.000000
vn 1.000000 0.000000 0.000000
vn 0.232539 0.000000 0.972587
vn 0.232539 0.000000 0.972587
vn 0.000000 1.000000 0.000000
vn 0.000000 1.000000 0.000000
vn 0.000000 1.000000 0.000000
vn 0.000000 1.000000 0.000000
vn 0.000000 1.000000 0.000000
vn 0.000000 1.000000 0.000000
vn 0.000000 1.000000 0.000000
vn 0.000000 1.000000 0.000000
vn 0.914790 0.000000 0.403930
vn 0.914790 0.000000 0.403930
vn 0.471478 0.000000 0.881878
vn 0.471478 0.000000 0.881878
vn 0.000000 1.000000 0.000000
vn 0.000000 1.000000 0.000000
vn 0.000000 1.000000 0.000000
vn 0.000000 1.000000 0.000000
vn -1.000000 0.000000 0.000000
vn -1.000000 0.000000 0.000000
vn 0.000000 1.000000 0.000000
vn 0.000000 1.000000 0.000000
vn 0.000000 1.000000 0.000000
vn 0.000000 1.000000 0.000000
vn 0.711595 0.000000 0.702590
vn 0.711595 0.000000 0.702590
vn -0.232539 0.000000 -0.972587
vn -0.232539 0.000000 -0.972587
vn 0.000000 1.000000 0.000000
vn 0.000000 1.000000 0.000000
vn 0.000000 1.000000 0.000000
vn 0.000000 1.000000 0.000000
vn 0.000000 1.000000 0.000000
vn 0.000000 1.000000 0.000000
vn 0.000000 1.000000 0.000000
vn 0.000000 1.000000 0.000000
vn 0.000000 1.000000 0.000000
vn 0.000000 1.000000 0.000000
vn 0.000000 1.000000 0.000000
vn -0.914790 0.000000 -0.403930
vn -0.914790 0.000000 -0.403930
vn -0.471478 0.000000 -0.881878
vn -0.471478 0.000000 -0.881878
vn -0.711595 0.000000 -0.702590
vn -0.711595 0.000000 -0.702590
vn 0.000000 1.000000 0.000000
vn 0.000000 1.000000 0.000000
vn 0.000000 1.000000 0.000000
vn 0.000000 1.000000 0.000000
vn 0.000000 1.000000 0.000000
vn -0.000000 1.000000 0.000000
vn -0.000000 1.000000 0.000000
vn -0.000000 1.000000 0.000000
vn -0.000000 1.000000 0.000000
vn -0.000000 1.000000 0.000000
vn -0.000000 1.000000 -0.000000
vn 0.000000 1.000000 0.000000
vn 0.000000 1.000000 0.000000
vn 0.000000 1.000000 0.000000
vn -0.928752 -0.000000 0.370701
vn -0.853368 -0.000000 0.521309
vn -0.853368 -0.000000 0.521309
vn -0.928752 -0.000000 0.370701
vn -0.000000 0.000000 -1.000000
vn -0.000000 0.000000 -1.000000
vn -0.000000 0.000000 -1.000000
vn -0.000000 0.000000 -1.000000
vn 0.283882 -0.000003 -0.958859
vn -0.135527 -0.000002 -0.990774
vn -0.135526 -0.000002 -0.990774
vn 0.283881 -0.000003 -0.958860
vn -0.419083 -0.000001 -0.907948
vn -0.853354 0.000000 -0.521333
vn -0.853354 0.000000 -0.521333
vn -0.419083 -0.000001 -0.907948
vn -0.419114 -0.000000 0.907934
vn -0.419114 -0.000000 0.907934
vn 0.808874 0.000000 -0.587982
vn 0.587521 -0.000001 -0.809209
vn 0.587521 -0.000001 -0.809209
vn 0.808874 0.000000 -0.587982
vn 0.951084 0.000000 -0.308933
vn 0.951084 0.000000 -0.308933
vn -0.928740 0.000000 -0.370732
vn -0.928740 0.000000 -0.370732
vn -0.135452 -0.000000 0.990784
vn 0.283999 0.000000 0.958824
vn 0.283999 0.000000 0.958824
vn -0.135452 -0.000000 0.990784
vn 0.951084 0.000000 0.308933
vn 1.000000 0.000000 0.000000
vn 1.000000 0.000000 -0.000000
vn 0.951084 0.000000 0.308933
vn 0.808834 0.000000 0.588037
vn 0.808834 0.000000 0.588037
vn 0.587422 0.000000 0.809281
vn 0.587422 0.000000 0.809281
vn 0.000000 -0.000000 1.000000
vn 0.000000 -0.000000 1.000000
vn 0.000000 -0.000000 1.000000
vn 0.000000 -0.000000 1.000000
vn -1.000000 0.000000 0.000000
vn -1.000000 -0.000000 0.000000
vn -1.000000 -0.000000 0.000000
vn -1.000000 0.000000 0.000000
vn -1.000000 0.000000 0.000000
vn -1.000000 0.000000 0.000000
vn -0.000000 1.000000 0.000000
vn -0.000000 1.000000 0.000000
vn -0.000000 1.000000 0.000000
vn 0.000000 1.000000 0.000000
vn 0.000000 1.000000 0.000000
vn 0.000000 1.000000 0.000000
vn 0.000000 1.000000 0.000000
vn 0.000000 1.000000 0.000000
vn 0.000000 1.000000 0.000000
vn -0.000000 1.000000 0.000001
vn -0.000000 1.000000 0.000001
vn -0.000000 1.000000 0.000001
vn -0.000000 1.000000 0.000000
vn -0.000000 1.000000 0.000000
vn -0.000000 1.000000 0.000000
vn -0.000000 1.000000 -0.000000
vn -0.000000 1.000000 -0.000000
vn -0.000000 1.000000 -0.000000
vn 0.000000 1.000000 0.000000
vn 0.000000 1.000000 0.000000
vn 0.000000 1.000000 0.000000
vn 0.000000 1.000000 0.000000
vn 0.000000 1.000000 0.000000
vn 0.000000 1.000000 0.000000
vn -0.000000 1.000000 0.000000
vn -0.000000 1.000000 0.000000
vn -0.000000 1.000000 0.000000
vn -0.000000 1.000000 -0.000000
vn -0.000000 1.000000 -0.000000
vn -0.000000 1.000000 -0.000000
vn 0.000000 1.000000 0.000000
vn 0.000000 1.000000 0.000000
vn 0.000000 1.000000 0.000000
vn 0.000000 1.000000 0.000001
vn 0.000000 1.000000 0.000001
vn 0.000000 1.000000 0.000001
vn 0.000000 1.000000 0.000000
vn 0.000000 1.000000 0.000000
vn 0.000000 1.000000 0.000000
vn 0.000000 1.000000 0.000000
vn 0.000000 1.000000 0.000000
vn 0.000000 1.000000 0.000000
vn -0.000000 1.000000 -0.000001
vn -0.000000 1.000000 -0.000001
vn -0.000000 1.000000 -0.000001
vn -0.000000 1.000000 0.000001
vn -0.000000 1.000000 0.000001
vn -0.000000 1.000000 0.000001
vn -0.000000 1.000000 0.000001
vn -0.000000 1.000000 0.000001
vn -0.000000 1.000000 0.000001
vn 0.000000 1.000000 0.000002
vn 0.000000 1.000000 0.000002
vn 0.000000 1.000000 0.000002
vn 0.000000 1.000000 0.000000
vn 0.000000 1.000000 0.000000
vn 0.000000 1.000000 0.000000
vn 0.000000 1.000000 -0.000001
vn 0.000000 1.000000 -0.000001
vn 0.000000 1.000000 -0.000001
s 1
g pCylinder56
usemtl initialShadingGroup
f 1/1/1 2/2/2 3/3/3 4/4/4
s 2
f 4/4/5 3/3/6 5/5/7
s off
f 8/8/8 9/9/9 2/2/10 1/1/11
s 1
f 10/10/12 11/11/13 7/7/14 6/6/15
s off
f 12/12/16 13/13/17 11/11/18 10/10/19
s 2
f 14/14/20 4/4/5 5/5/7
f 17/17/21 14/14/20 5/5/7
f 15/15/22 18/18/23 5/5/7
s 5
f 19/19/24 20/20/25 8/21/26 21/22/27
f 22/23/28 23/24/29 24/25/30 13/26/31
s 1
f 25/27/32 1/1/1 4/4/4 14/14/33
f 11/11/13 26/28/34 15/15/35 7/7/14
s 2
f 27/29/36 17/17/21 5/5/7
f 18/18/23 28/30/37 5/5/7
s off
f 21/31/38 8/8/39 1/1/40 25/27/41
f 13/13/42 24/32/43 26/28/44 11/11/45
s 2
f 29/33/46 27/29/36 5/5/7
f 28/30/37 30/34/47 5/5/7
f 32/36/48 29/33/46 5/5/7
f 30/34/47 32/36/48 5/5/7
s 1
f 33/37/49 25/27/32 14/14/33 17/17/50
f 26/28/34 34/38/51 18/18/52 15/15/35
s 5
f 35/39/53 19/19/24 21/22/27 36/40/54
f 23/24/29 37/41/55 38/42/56 24/25/30
s off
f 36/43/57 21/31/58 25/27/59 33/37/60
f 24/32/61 38/44/62 34/38/63 26/28/64
s 1
f 39/45/65 33/37/49 17/17/50 27/29/66
f 34/38/51 40/46/67 28/30/68 18/18/52
s 5
f 41/47/69 35/48/53 36/49/54 42/50/70
f 37/41/55 43/51/71 44/52/72 38/42/56
s off
f 42/53/73 36/43/74 33/37/75 39/45/76
f 38/44/77 44/54/78 40/46/79 34/38/80
s 1
f 45/55/81 39/45/65 27/29/66 29/33/82
f 40/46/67 46/56/83 30/34/84 28/30/68
f 47/57/85 45/55/81 29/33/82 32/36/86
f 46/56/83 47/57/85 32/36/86 30/34/84
s off
f 48/58/87 42/53/88 39/45/89 45/55/90
s 5
f 49/59/91 41/47/69 42/50/70 48/60/92
s off
f 44/54/93 50/61/94 46/56/95 40/46/96
s 5
f 43/51/71 51/62/97 50/63/98 44/52/72
s off
f 52/64/99 48/58/100 45/55/101 47/57/102
f 50/61/103 52/64/104 47/57/105 46/56/106
s 5
f 53/65/107 49/59/91 48/60/92 52/66/108
f 51/62/97 53/65/107 52/66/108 50/63/98
s 2
f 3/3/6 55/67/109 5/5/7
s 5
f 56/68/110 22/23/28 13/26/31 12/69/111
f 20/20/25 59/70/112 9/71/113 8/21/26
s 2
f 55/67/109 64/72/114 5/5/7
f 5/5/7 64/72/114 69/73/115 74/82/116 60/118/117 66/119/118 67/120/119 16/16/120 99/121/121
f 57/79/122 6/6/123 61/78/124
s 1
f 72/80/125 10/10/12 6/6/15 71/74/126
f 2/2/2 73/81/127 55/67/128 3/3/3
s off
f 75/83/129 12/12/130 10/10/131 72/80/132
f 9/9/133 76/84/134 73/81/135 2/2/136
s 5
f 80/85/137 56/68/110 12/69/111 75/86/138
f 59/70/112 81/87/139 76/88/140 9/71/113
s 1
f 82/89/141 72/80/125 71/74/126 83/90/142
f 73/81/127 84/91/143 64/72/144 55/67/128
s off
f 85/92/145 75/83/146 72/80/147 82/89/148
f 76/84/149 86/93/150 84/91/151 73/81/152
s 1
f 87/94/153 82/89/141 83/90/142 88/95/154
f 84/91/143 89/96/155 69/73/156 64/72/144
s off
f 90/97/157 85/92/158 82/89/159 87/94/160
s 5
f 91/98/161 80/85/137 75/86/138 85/99/162
s off
f 86/93/163 92/100/164 89/96/165 84/91/166
s 1
f 93/101/167 87/94/153 88/95/154 74/82/168
s 5
f 81/87/139 94/102/169 86/103/170 76/88/140
s 1
f 89/96/155 93/101/167 74/82/168 69/73/156
s 2
f 70/105/171 71/74/172 68/104/173
s off
f 95/107/174 90/97/175 87/94/176 93/101/177
f 92/100/178 95/107/179 93/101/180 89/96/181
s 5
f 96/108/182 91/98/161 85/99/162 90/109/183
f 94/102/169 97/110/184 92/111/185 86/103/170
f 98/112/186 96/108/182 90/109/183 95/113/187
f 97/110/184 98/112/186 95/113/187 92/111/185
s 2
f 88/95/188 77/114/189 63/115/190
f 74/82/116 62/117/191 60/118/117
f 100/122/192 101/123/193 5/5/7
f 6/6/123 7/7/194 15/15/22 5/5/7 101/123/193 31/35/195 65/75/196 54/76/197 58/77/198
f 99/121/121 100/122/192 5/5/7
f 74/82/116 88/95/188 79/116/199 62/117/191
f 88/95/188 63/115/190 79/116/199
f 88/95/188 83/90/200 78/106/201 77/114/189
f 83/90/200 71/74/172 70/105/171 78/106/201
f 68/104/173 71/74/172 57/79/122
f 71/74/172 6/6/123 57/79/122
f 61/78/124 6/6/123 58/77/198
s 10
f 16/124/202 67/125/203 102/126/204 103/127/205
s off
f 31/128/206 101/129/207 104/130/208 105/131/209
s 10
f 61/132/210 58/133/211 107/134/212 106/135/213
f 54/136/214 65/137/215 109/138/216 108/139/217
f 67/140/203 66/141/218 110/142/219 102/143/204
f 58/144/211 54/145/214 108/146/217 107/147/212
f 68/148/220 57/149/221 112/150/222 111/151/223
f 57/152/221 61/153/210 106/154/213 112/155/222
f 70/156/224 68/157/220 111/158/223 113/159/225
f 65/160/215 31/161/226 105/162/227 109/163/216
f 60/164/228 62/165/229 115/166/230 114/167/231
f 77/168/232 78/169/233 117/170/234 116/171/235
f 63/172/236 77/173/232 116/174/235 118/175/237
f 79/176/238 63/177/236 118/178/237 119/179/239
f 78/180/233 70/181/224 113/182/225 117/183/234
f 62/184/229 79/185/238 119/186/239 115/187/230
f 66/188/218 60/189/228 114/190/231 110/191/219
s off
f 99/192/240 16/193/241 103/194/242 120/195/243
s 14
f 100/196/244 99/197/245 120/198/246 121/199/247
f 101/200/248 100/201/244 121/202/247 104/203/249
s off
f 103/204/250 102/205/251 122/206/252
f 105/207/253 104/208/254 122/209/255
f 106/210/256 107/211/257 122/212/258
f 108/213/259 109/214/260 122/215/261
f 102/216/262 110/217/263 122/218/264
f 107/219/265 108/220/266 122/221/267
f 111/222/268 112/223/269 122/224/270
f 112/225/271 106/226/272 122/227/273
f 113/228/274 111/229/275 122/230/276
f 109/231/277 105/232/278 122/233/279
f 114/234/280 115/235/281 122/236/282
f 116/237/283 117/238/284 122/239/285
f 118/240/286 116/241/287 122/242/288
f 119/243/289 118/244/290 122/245/291
f 117/246/292 113/247/293 122/248/294
f 115/249/295 119/250/296 122/251/297
f 110/252/298 114/253/299 122/254/300
f 120/255/301 103/256/302 122/257/303
f 121/258/304 120/259/305 122/260/306
f 104/261/307 121/262/308 122/263/309
