# This file uses centimeters as units for non-parametric coordinates.

mtllib Placa a reemplazar.mtl
g default
v -7.658604 -0.131244 7.658604
v 7.658604 -0.131244 7.658604
v -7.658604 0.131244 7.658604
v 7.658604 0.131244 7.658604
v -7.658604 0.131244 -7.658604
v 7.658604 0.131244 -7.658604
v -7.658604 -0.131244 -7.658604
v 7.658604 -0.131244 -7.658604
v -7.158604 0.131244 7.158604
v 7.158604 0.131244 7.158604
v 7.158604 0.131244 -7.158604
v -7.158604 0.131244 -7.158604
v -6.858603 0.231244 6.858603
v 6.858603 0.231244 6.858603
v 6.858603 0.231244 -6.858603
v -6.858603 0.231244 -6.858603
vt 0.911291 0.181711
vt 0.810563 0.915098
vt 0.543727 0.746297
vt 0.749630 0.455007
vt 0.647383 0.486529
vt 0.512836 0.645227
vt 0.351712 0.513471
vt 0.486260 0.354773
vt 0.455368 0.253703
vt 0.249465 0.544993
vt 0.087804 0.818289
vt 0.188532 0.084902
vt 0.541074 0.732661
vt 0.735470 0.457737
vt 0.263626 0.542263
vt 0.458021 0.267339
vt 0.000000 0.354099
vt 0.637537 0.000000
vt 0.361558 1.000000
vt 0.999095 0.645901
vn 0.000000 0.000000 1.000000
vn 0.000000 0.000000 1.000000
vn 0.000000 0.000000 1.000000
vn 0.000000 0.000000 1.000000
vn 0.000000 1.000000 0.000000
vn 0.000000 1.000000 0.000000
vn 0.000000 1.000000 0.000000
vn 0.000000 1.000000 0.000000
vn 0.000000 0.000000 -1.000000
vn 0.000000 0.000000 -1.000000
vn 0.000000 0.000000 -1.000000
vn 0.000000 0.000000 -1.000000
vn 1.000000 0.000000 0.000000
vn 1.000000 0.000000 0.000000
vn 1.000000 0.000000 0.000000
vn 1.000000 0.000000 0.000000
vn -1.000000 0.000000 0.000000
vn -1.000000 0.000000 0.000000
vn -1.000000 0.000000 0.000000
vn -1.000000 0.000000 0.000000
vn 0.000000 1.000000 0.000000
vn 0.000000 1.000000 0.000000
vn 0.000000 1.000000 0.000000
vn 0.000000 1.000000 0.000000
vn 0.000000 1.000000 0.000000
vn 0.000000 1.000000 0.000000
vn 0.000000 1.000000 0.000000
vn 0.000000 1.000000 0.000000
vn -0.162221 0.973329 0.162221
vn 0.162221 0.973329 0.162221
vn 0.162221 0.973329 0.162221
vn -0.162221 0.973329 0.162221
vn 0.162221 0.973329 -0.162221
vn 0.162221 0.973329 -0.162221
vn -0.162221 0.973329 -0.162221
vn -0.162221 0.973329 -0.162221
s off
g pCube1
usemtl initialShadingGroup
f 1/20/1 2/2/2 4/3/3 3/4/4
f 13/5/5 14/6/6 15/7/7 16/8/8
f 5/9/9 6/10/10 8/17/11 7/12/12
f 2/19/13 8/11/14 6/10/15 4/3/16
f 7/18/17 1/1/18 3/4/19 5/9/20
s 1
f 3/4/21 4/3/22 10/13/23 9/14/24
f 4/3/22 6/10/25 11/15/26 10/13/23
f 6/10/25 5/9/27 12/16/28 11/15/26
f 5/9/27 3/4/21 9/14/24 12/16/28
s 2
f 9/14/29 10/13/30 14/6/31 13/5/32
f 10/13/30 11/15/33 15/7/34 14/6/31
f 11/15/33 12/16/35 16/8/36 15/7/34
f 12/16/35 9/14/29 13/5/32 16/8/36
g default
v -7.658604 -0.131244 -7.678618
v 7.658604 -0.131244 -7.678618
v -7.658604 0.131244 -7.678618
v 7.658604 0.131244 -7.678618
v -7.658604 -0.131244 -7.936851
v 7.658604 -0.131244 -7.936851
v -7.658604 0.002141 -7.936851
v -7.658604 0.131244 -7.807748
v 7.658604 0.002141 -7.936851
v 7.658604 0.131244 -7.807748
v -7.690627 -0.131244 7.652309
v -7.690627 -0.131244 -7.664899
v -7.690627 0.131244 7.652309
v -7.690627 0.131244 -7.664899
v -7.948860 -0.131244 7.652309
v -7.948860 -0.131244 -7.664899
v -7.948860 0.002141 7.652309
v -7.819757 0.131244 7.652309
v -7.948860 0.002141 -7.664899
v -7.819757 0.131244 -7.664899
v 7.694224 -0.131244 -7.652053
v 7.694224 -0.131244 7.665155
v 7.694224 0.131244 -7.652053
v 7.694224 0.131244 7.665155
v 7.952457 -0.131244 -7.652053
v 7.952457 -0.131244 7.665155
v 7.952457 0.002141 -7.652053
v 7.823354 0.131244 -7.652053
v 7.952457 0.002141 7.665155
v 7.823354 0.131244 7.665155
v 7.683791 -0.131244 7.679052
v -7.633417 -0.131244 7.679052
v 7.683791 0.131244 7.679052
v -7.633417 0.131244 7.679052
v 7.683791 -0.131244 7.937285
v -7.633417 -0.131244 7.937285
v 7.683791 0.002141 7.937285
v 7.683791 0.131244 7.808182
v -7.633417 0.002141 7.937285
v -7.633417 0.131244 7.808182
vt 0.274734 0.181271
vt 0.000000 0.012772
vt 0.061924 0.990692
vt 0.278161 0.176963
vt 0.060380 0.993329
vt 0.279325 0.174501
vt 0.281158 0.171116
vt 0.059386 0.997292
vt 0.060240 1.000000
vt 0.282756 0.168797
vt 0.397963 0.477448
vt 0.274811 0.181239
vt 0.279464 0.178326
vt 0.403324 0.476041
vt 0.282111 0.177649
vt 0.405670 0.474658
vt 0.409149 0.473002
vt 0.285734 0.176347
vt 0.288258 0.175113
vt 0.411819 0.472097
vt 0.059750 0.985774
vt 0.312205 0.786051
vt 0.316255 0.789856
vt 0.062874 0.990365
vt 0.317687 0.792194
vt 0.064767 0.992318
vt 0.067253 0.995256
vt 0.319925 0.795332
vt 0.321794 0.797432
vt 0.068828 0.997592
vt 0.312192 0.786036
vt 0.397871 0.477474
vt 0.403297 0.478340
vt 0.317000 0.789152
vt 0.405843 0.479306
vt 0.319713 0.789454
vt 0.323486 0.790253
vt 0.409515 0.480456
vt 0.412267 0.481021
vt 0.326160 0.791147
vt 0.006251 0.002409
vt 0.004262 0.005707
vt 0.007704 0.000000
vt 0.002855 0.008038
vt 0.058948 0.986205
vn 0.000000 0.000000 1.000000
vn 0.000000 0.000000 1.000000
vn 0.000000 0.000000 1.000000
vn 0.000000 0.000000 1.000000
vn 0.000000 1.000000 0.000000
vn 0.000000 1.000000 0.000000
vn 0.000000 1.000000 0.000000
vn 0.000000 1.000000 0.000000
vn 0.000000 0.000000 -1.000000
vn 0.000000 0.000000 -1.000000
vn 0.000000 0.000000 -1.000000
vn 0.000000 0.000000 -1.000000
vn 0.000000 0.707106 -0.707108
vn 0.000000 0.707106 -0.707108
vn 0.000000 0.707106 -0.707108
vn 0.000000 0.707106 -0.707108
vn 1.000000 0.000000 0.000000
vn 1.000000 0.000000 0.000000
vn 1.000000 0.000000 0.000000
vn 1.000000 0.000000 0.000000
vn 0.000000 1.000000 0.000000
vn 0.000000 1.000000 0.000000
vn 0.000000 1.000000 0.000000
vn 0.000000 1.000000 0.000000
vn -1.000000 0.000000 0.000000
vn -1.000000 0.000000 0.000000
vn -1.000000 0.000000 0.000000
vn -1.000000 0.000000 0.000000
vn -0.707108 0.707106 0.000000
vn -0.707108 0.707106 0.000000
vn -0.707108 0.707106 0.000000
vn -0.707108 0.707106 0.000000
vn -1.000000 0.000000 0.000000
vn -1.000000 0.000000 0.000000
vn -1.000000 0.000000 0.000000
vn -1.000000 0.000000 0.000000
vn 0.000000 1.000000 0.000000
vn 0.000000 1.000000 0.000000
vn 0.000000 1.000000 0.000000
vn 0.000000 1.000000 0.000000
vn 1.000000 0.000000 0.000000
vn 1.000000 0.000000 0.000000
vn 1.000000 0.000000 0.000000
vn 1.000000 0.000000 0.000000
vn 0.707108 0.707106 0.000000
vn 0.707108 0.707106 0.000000
vn 0.707108 0.707106 0.000000
vn 0.707108 0.707106 0.000000
vn 0.000000 0.000000 -1.000000
vn 0.000000 0.000000 -1.000000
vn 0.000000 0.000000 -1.000000
vn 0.000000 0.000000 -1.000000
vn 0.000000 1.000000 0.000000
vn 0.000000 1.000000 0.000000
vn 0.000000 1.000000 0.000000
vn 0.000000 1.000000 0.000000
vn 0.000000 0.000000 1.000000
vn 0.000000 0.000000 1.000000
vn 0.000000 0.000000 1.000000
vn 0.000000 0.000000 1.000000
vn 0.000000 0.707106 0.707108
vn 0.000000 0.707106 0.707108
vn 0.000000 0.707106 0.707108
vn 0.000000 0.707106 0.707108
vn 0.000000 1.000000 0.000000
vn 0.000000 1.000000 0.000000
vn 0.000000 1.000000 0.000000
vn 0.000000 1.000000 0.000000
vn -0.552622 0.577005 -0.601394
vn -0.552622 0.577005 -0.601394
vn -0.552622 0.577005 -0.601394
vn -0.552622 0.577005 -0.601394
vn -0.683723 0.000000 -0.729742
vn -0.683723 0.000000 -0.729742
vn -0.683723 0.000000 -0.729742
vn -0.683723 0.000000 -0.729742
vn 0.393794 0.000000 0.919199
vn 0.393794 0.000000 0.919199
vn 0.393794 0.000000 0.919199
vn 0.393794 0.000000 0.919199
vn 0.000000 1.000000 -0.000000
vn 0.000000 1.000000 -0.000000
vn 0.000000 1.000000 -0.000000
vn 0.000000 1.000000 -0.000000
vn -0.539280 0.576545 0.613818
vn -0.539280 0.576545 0.613818
vn -0.539280 0.576545 0.613818
vn -0.539280 0.576545 0.613818
vn -0.670364 0.000000 0.742032
vn -0.670364 0.000000 0.742032
vn -0.670364 0.000000 0.742032
vn -0.670364 0.000000 0.742032
vn 0.423472 0.000000 -0.905909
vn 0.423472 0.000000 -0.905909
vn 0.423472 0.000000 -0.905909
vn 0.423472 0.000000 -0.905909
vn -0.799711 0.000000 -0.600385
vn -0.799711 0.000000 -0.600385
vn -0.799711 0.000000 -0.600385
vn -0.799711 0.000000 -0.600385
vn 0.711621 0.000000 0.702563
vn 0.711621 0.000000 0.702563
vn 0.711621 0.000000 0.702563
vn 0.711621 0.000000 0.702563
vn 0.582194 0.577337 0.572479
vn 0.582194 0.577337 0.572479
vn 0.582194 0.577337 0.572479
vn 0.582194 0.577337 0.572479
vn 0.000000 1.000000 0.000000
vn 0.000000 1.000000 0.000000
vn 0.000000 1.000000 0.000000
vn 0.000000 1.000000 0.000000
vn -0.597836 0.000000 0.801619
vn -0.597836 0.000000 0.801619
vn -0.597836 0.000000 0.801619
vn -0.597836 0.000000 0.801619
vn 0.695957 0.000000 -0.718084
vn 0.695957 0.000000 -0.718084
vn 0.695957 0.000000 -0.718084
vn 0.695957 0.000000 -0.718084
vn 0.565645 0.577269 -0.588902
vn 0.565645 0.577269 -0.588902
vn 0.565645 0.577269 -0.588902
vn 0.565645 0.577269 -0.588902
vn 0.000000 1.000000 0.000000
vn 0.000000 1.000000 0.000000
vn 0.000000 1.000000 0.000000
vn 0.000000 1.000000 0.000000
s off
g pCube6
usemtl initialShadingGroup
f 17/21/37 18/22/38 20/64/39 19/24/40
f 19/24/41 20/64/42 26/62/43 24/26/44
f 23/27/45 25/61/46 22/63/47 21/30/48
f 23/27/49 24/26/50 26/62/51 25/61/52
f 27/31/53 28/32/54 30/33/55 29/34/56
f 29/34/57 30/33/58 36/35/59 34/36/60
f 33/37/61 35/38/62 32/39/63 31/40/64
f 33/37/65 34/36/66 36/35/67 35/38/68
f 37/41/69 38/42/70 40/43/71 39/44/72
f 39/44/73 40/43/74 46/45/75 44/46/76
f 43/47/77 45/48/78 42/49/79 41/50/80
f 43/47/81 44/46/82 46/45/83 45/48/84
f 47/51/85 48/52/86 50/53/87 49/54/88
f 49/54/89 50/53/90 56/55/91 54/56/92
f 53/57/93 55/58/94 52/59/95 51/60/96
f 53/57/97 54/56/98 56/55/99 55/58/100
f 19/24/101 24/26/102 36/35/103 30/33/104
f 24/26/105 23/27/106 35/38/107 36/35/108
f 23/27/109 21/30/110 32/39/111 35/38/112
f 17/21/113 19/24/114 30/33/115 28/32/116
f 29/34/117 34/36/118 56/55/119 50/53/120
f 34/36/121 33/37/122 55/58/123 56/55/124
f 33/37/125 31/40/126 52/59/127 55/58/128
f 27/31/129 29/34/130 50/53/131 48/52/132
f 40/43/133 38/42/134 47/51/135 49/54/136
f 42/49/137 45/48/138 53/57/139 51/60/140
f 45/48/141 46/45/142 54/56/143 53/57/144
f 46/45/145 40/43/146 49/54/147 54/56/148
f 20/23/149 18/65/150 37/41/151 39/44/152
f 22/29/153 25/28/154 43/47/155 41/50/156
f 25/28/157 26/25/158 44/46/159 43/47/160
f 26/25/161 20/23/162 39/44/163 44/46/164
