# This file uses centimeters as units for non-parametric coordinates.

mtllib arbusto 2.mtl
g default
v 19.049697 1.438376 -10.860090
v 19.049697 1.438376 -14.838424
v 20.043598 1.406491 -10.860090
v 20.043598 1.406491 -14.838424
v 18.055795 1.406491 -10.860090
v 18.055795 1.406491 -14.838424
v 20.544720 1.358128 -14.838424
v 20.544720 1.358128 -10.860090
v 17.595692 1.362086 -14.838424
v 17.595692 1.362086 -10.860090
vt 0.500000 0.000000
vt 0.500000 1.000000
vt 0.750000 0.000000
vt 0.750000 1.000000
vt 0.250000 0.000000
vt 0.250000 1.000000
vt 0.876570 1.000000
vt 0.876570 0.000000
vt 0.133790 1.000000
vt 0.133790 0.000000
vn -0.052397 0.998626 0.000000
vn -0.096063 0.995375 0.000000
vn -0.096063 0.995375 0.000000
vn -0.052397 0.998626 0.000000
vn 0.053600 0.998563 0.000000
vn 0.000000 1.000000 0.000000
vn 0.000000 1.000000 0.000000
vn 0.053600 0.998563 0.000000
vn 0.096063 0.995375 0.000000
vn 0.096063 0.995375 0.000000
s 1
g pPlane10
usemtl lambert10SG
f 6/6/1 9/9/2 10/10/3 5/5/4
f 4/4/5 2/2/6 1/1/7 3/3/8
f 2/2/6 6/6/1 5/5/4 1/1/7
f 8/8/9 7/7/10 4/4/5 3/3/8
