# This file uses centimeters as units for non-parametric coordinates.

mtllib arbusto 3.mtl
g default
v 8.128156 1.346955 -11.343494
v 10.977821 1.438376 -11.343494
v 13.827487 1.346955 -11.343494
v 16.665432 1.073068 -11.343494
v 8.128156 1.346955 -15.736192
v 10.977821 1.438376 -15.736192
v 13.827487 1.346955 -15.736192
v 16.665432 1.073068 -15.736192
v 5.911914 1.133068 -15.736192
v 5.911914 1.133068 -11.343494
vt 0.250000 0.257784
vt 0.500000 0.257784
vt 0.750000 0.257784
vt 1.000000 0.257784
vt 0.250000 0.642889
vt 0.500000 0.642889
vt 0.750000 0.642889
vt 1.000000 0.642889
vt 0.054767 0.642889
vt 0.054767 0.257784
vn -0.060158 0.998189 0.000000
vn -0.096063 0.995375 0.000000
vn -0.096063 0.995375 0.000000
vn -0.060158 0.998189 0.000000
vn 0.000000 1.000000 0.000000
vn 0.000000 1.000000 0.000000
vn 0.064097 0.997944 0.000000
vn 0.064097 0.997944 0.000000
vn 0.096063 0.995375 -0.000000
vn 0.096063 0.995375 -0.000000
s 1
g pPlane8
usemtl lambert8SG
f 5/5/1 9/9/2 10/10/3 1/1/4
f 6/6/5 5/5/1 1/1/4 2/2/6
f 7/7/7 6/6/5 2/2/6 3/3/8
f 8/8/9 7/7/7 3/3/8 4/4/10
