# This file uses centimeters as units for non-parametric coordinates.

mtllib arbusto 4.mtl
g default
v -2.849665 1.346955 -19.162712
v 0.000000 1.438376 -19.162712
v 2.849665 1.346955 -19.162712
v -2.849665 1.346955 -9.771409
v 0.000000 1.438376 -9.771409
v 2.849665 1.346955 -9.771409
v 5.495669 1.091592 -19.162712
v 5.495669 1.091592 -9.771409
v -4.879807 1.151029 -19.162712
v -4.879806 1.151029 -9.771409
vt 0.250000 0.921142
vt 0.500000 0.921142
vt 0.750000 0.921142
vt 0.250000 0.097811
vt 0.500000 0.097811
vt 0.750000 0.097811
vt 0.983091 0.921142
vt 0.983091 0.097811
vt 0.071161 0.921142
vt 0.071161 0.097811
vn -0.058783 0.998271 0.000000
vn -0.096063 0.995375 0.000000
vn -0.096063 0.995375 0.000000
vn -0.058783 0.998271 0.000000
vn 0.000000 1.000000 0.000000
vn 0.000000 1.000000 0.000000
vn 0.062976 0.998015 0.000000
vn 0.062976 0.998015 0.000000
vn 0.096063 0.995375 0.000000
vn 0.096063 0.995375 0.000000
s 1
g pPlane7
usemtl lambert7SG
f 1/1/1 9/9/2 10/10/3 4/4/4
f 2/2/5 1/1/1 4/4/4 5/5/6
f 3/3/7 2/2/5 5/5/6 6/6/8
f 8/8/9 7/7/10 3/3/7 6/6/8
