# This file uses centimeters as units for non-parametric coordinates.

mtllib asbusto 4.mtl
g default
v -16.217078 1.073068 -17.908220
v -13.379132 1.346955 -17.908220
v -10.529467 1.438376 -17.908220
v -7.679802 1.346955 -17.908220
v -16.217078 1.073068 -10.920558
v -13.379132 1.346955 -10.920558
v -10.529467 1.438376 -10.920558
v -7.679802 1.346955 -10.920558
v -5.168356 1.104578 -17.908220
v -5.168356 1.104578 -10.920558
vt 0.000000 0.789903
vt 0.250000 0.789903
vt 0.500000 0.789903
vt 0.750000 0.789903
vt 0.000000 0.177298
vt 0.250000 0.177298
vt 0.500000 0.177298
vt 0.750000 0.177298
vt 0.971238 0.789903
vt 0.971238 0.177298
vn -0.064097 0.997944 0.000000
vn -0.096063 0.995375 0.000000
vn -0.096063 0.995375 0.000000
vn -0.064097 0.997944 0.000000
vn 0.000000 1.000000 0.000000
vn 0.000000 1.000000 0.000000
vn 0.062142 0.998067 0.000000
vn 0.062142 0.998067 0.000000
vn 0.096063 0.995375 0.000000
vn 0.096063 0.995375 0.000000
s 1
g pPlane9
usemtl lambert9SG
f 2/2/1 1/1/2 5/5/3 6/6/4
f 3/3/5 2/2/1 6/6/4 7/7/6
f 4/4/7 3/3/5 7/7/6 8/8/8
f 10/10/9 9/9/10 4/4/7 8/8/8
