# This file uses centimeters as units for non-parametric coordinates.

mtllib Casa1.mtl
g default
v -19.475098 -4.761435 -32.662052
v 19.475098 -4.761435 -32.662052
v -19.475098 35.556137 -32.662052
v 19.475098 35.556137 -32.662052
v 0.000000 -4.761435 -28.169567
v 0.000000 35.556137 -28.169567
vt 0.000000 0.000000
vt 1.000000 0.000000
vt 0.000000 1.000000
vt 1.000000 1.000000
vt 0.500000 0.000000
vt 0.500000 1.000000
vn 0.000000 0.000000 1.000000
vn -0.224776 0.000000 0.974411
vn -0.224776 0.000000 0.974411
vn 0.000000 0.000000 1.000000
vn 0.224776 0.000000 0.974411
vn 0.224776 0.000000 0.974411
s 1
g pPlane2
usemtl lambert2SG
f 6/6/1 3/3/2 1/1/3 5/5/4
f 4/4/5 6/6/1 5/5/4 2/2/6
