# This file uses centimeters as units for non-parametric coordinates.

mtllib Casa3.mtl
g default
v -28.098418 -4.209398 -32.280810
v -11.862070 -4.209383 -36.026186
v -11.862070 31.772211 -36.026186
v -28.098418 31.772224 -32.280810
v -45.970460 31.772224 -36.403505
v -45.970462 -4.209398 -36.403506
vt 0.500000 0.044983
vt 0.916849 0.044983
vt 0.916849 0.937437
vt 0.500000 0.937438
vt 0.041157 0.937438
vt 0.041156 0.044983
vn -0.011062 -0.000000 0.999939
vn -0.224776 -0.000000 0.974411
vn -0.224776 -0.000000 0.974411
vn -0.011062 -0.000000 0.999939
vn 0.224776 -0.000000 0.974411
vn 0.224776 -0.000000 0.974411
s 1
g pPlane4
usemtl lambert4SG
f 4/4/1 5/5/2 6/6/3 1/1/4
f 1/1/4 2/2/5 3/3/6 4/4/1
