# This file uses centimeters as units for non-parametric coordinates.

mtllib Escaleras.mtl
g default
v 45.618139 15.983568 -52.402654
v 50.468954 15.983568 -51.850416
v 55.319770 15.983568 -52.402654
v 59.922326 15.983568 -54.031105
v 45.618139 3.041417 -52.402654
v 50.468954 3.041417 -51.850416
v 55.319770 3.041417 -52.402654
v 59.922326 3.041417 -54.031105
v 41.374852 15.983568 -53.903990
v 41.374852 3.041417 -53.903990
vt 0.250000 0.701662
vt 0.500000 0.701662
vt 0.750000 0.701662
vt 1.000000 0.701662
vt 0.250000 0.040352
vt 0.500000 0.040352
vt 0.750000 0.040352
vt 1.000000 0.040352
vt 0.019515 0.701662
vt 0.019515 0.040352
vn -0.220268 -0.000000 0.975439
vn -0.333552 -0.000000 0.942732
vn -0.333552 -0.000000 0.942732
vn -0.220268 -0.000000 0.975439
vn 0.000000 -0.000000 1.000000
vn 0.000000 -0.000000 1.000000
vn 0.224776 -0.000000 0.974411
vn 0.224776 -0.000000 0.974411
vn 0.333552 -0.000000 0.942732
vn 0.333552 -0.000000 0.942732
s 1
g pPlane5
usemtl lambert5SG
f 1/1/1 9/9/2 10/10/3 5/5/4
f 2/2/5 1/1/1 5/5/4 6/6/6
f 3/3/7 2/2/5 6/6/6 7/7/8
f 4/4/9 3/3/7 7/7/8 8/8/10
