# This file uses centimeters as units for non-parametric coordinates.

mtllib pasto.mtl
g default
v -24.670998 1.346955 -11.875819
v -21.821332 1.438376 -11.875819
v -18.971667 1.346955 -11.875819
v -24.670998 1.346955 -17.830442
v -21.821332 1.438376 -17.830442
v -18.971667 1.346955 -17.830442
v -16.654894 1.123366 -17.830442
v -16.654894 1.123366 -11.875819
v -27.067336 1.115687 -17.830442
v -27.067336 1.115687 -11.875819
vt 0.250000 0.295035
vt 0.500000 0.295035
vt 0.750000 0.295035
vt 0.250000 0.817074
vt 0.500000 0.817074
vt 0.750000 0.817074
vt 0.954089 0.817074
vt 0.954089 0.295035
vt 0.038902 0.817074
vt 0.038902 0.295035
vn -0.061395 0.998114 -0.000000
vn -0.096063 0.995375 -0.000000
vn -0.096063 0.995375 -0.000000
vn -0.061395 0.998114 -0.000000
vn 0.000000 1.000000 -0.000000
vn 0.000000 1.000000 -0.000000
vn 0.060859 0.998146 -0.000000
vn 0.060859 0.998146 -0.000000
vn 0.096063 0.995375 0.000000
vn 0.096063 0.995375 0.000000
s 1
g pPlane12
usemtl lambert12SG
f 4/4/1 9/9/2 10/10/3 1/1/4
f 5/5/5 4/4/1 1/1/4 2/2/6
f 6/6/7 5/5/5 2/2/6 3/3/8
f 8/8/9 7/7/10 6/6/7 3/3/8
