# This file uses centimeters as units for non-parametric coordinates.

mtllib 12.mtl
g default
v 0.000000 16.231335 2.085749
v 0.000000 17.586166 2.085749
v 0.032894 16.231335 -0.000001
v 0.000003 17.586166 0.000000
v 4.283559 16.231335 10.817685
v 4.283559 17.586166 10.817685
v 8.231616 16.231335 9.589977
v 8.231616 17.586166 9.589977
v 11.428360 16.231335 7.585296
v 11.428360 17.586166 7.585296
v 13.504174 16.231335 4.991953
v 13.504174 17.586166 4.991953
v -13.504169 16.231335 4.991951
v -13.504169 17.586166 4.991951
v -11.428351 16.231335 7.585292
v -11.428351 17.586166 7.585292
v -8.231611 16.231335 9.589972
v -8.231611 17.586166 9.589972
v -4.283556 16.231335 10.817679
v -4.283556 17.586166 10.817679
v 0.000000 16.231335 11.219502
v 0.000000 17.586166 11.219502
v -14.795891 16.231335 -0.000000
v -14.673810 16.231335 0.055058
v -15.071663 16.617424 -0.000000
v -14.457960 16.617424 4.301675
v -14.082788 16.231335 4.197757
v -14.795891 17.586166 -0.000000
v -15.071663 17.200077 -0.000000
v -14.673810 17.586166 0.055058
v -14.082788 17.586166 4.197757
v -14.457960 17.200077 4.301675
v 5.363375 16.231335 10.934026
v 5.466604 16.617424 11.306670
v 8.047820 16.617424 10.435562
v 7.900595 16.231335 10.077765
v 5.466604 17.200077 11.306670
v 5.363375 17.586166 10.934026
v 7.900595 17.586166 10.077765
v 8.047820 17.200077 10.435562
v 9.380304 16.231335 9.353397
v 9.572588 16.617424 9.689136
v 11.475808 16.617424 8.428553
v 11.235988 16.231335 8.124299
v 9.572588 17.200077 9.689136
v 9.380304 17.586166 9.353397
v 11.235988 17.586166 8.124299
v 11.475808 17.200077 8.428553
v 12.431382 16.231335 7.010592
v 12.717928 16.617424 7.271313
v 13.798871 16.617424 5.866177
v 13.462436 16.231335 5.670308
v 12.717928 17.200077 7.271313
v 12.431382 17.586166 7.010592
v 13.462436 17.586166 5.670308
v 13.798871 17.200077 5.866177
v 14.673816 16.231335 0.055058
v 14.795897 16.231335 0.000000
v 15.071669 16.617424 0.000000
v 14.082794 16.231335 4.197760
v 14.457966 16.617424 4.301678
v 15.071669 17.200077 0.000000
v 14.795897 17.586166 0.000000
v 14.673816 17.586166 0.055058
v 14.457966 17.200077 4.301678
v 14.082794 17.586166 4.197760
v -13.462430 16.231335 5.670306
v -13.798865 16.617424 5.866175
v -12.717923 16.617424 7.271310
v -12.431376 16.231335 7.010589
v -13.798865 17.200077 5.866175
v -13.462430 17.586166 5.670306
v -12.431376 17.586166 7.010589
v -12.717923 17.200077 7.271310
v -11.235981 16.231335 8.124296
v -11.475802 16.617424 8.428550
v -9.572582 16.617424 9.689131
v -9.380298 16.231335 9.353393
v -11.475802 17.200077 8.428550
v -11.235981 17.586166 8.124296
v -9.380298 17.586166 9.353393
v -9.572582 17.200077 9.689131
v -7.900591 16.231335 10.077761
v -8.047815 16.617424 10.435557
v -5.466600 16.617424 11.306665
v -5.363372 16.231335 10.934021
v -8.047815 17.200077 10.435557
v -7.900591 17.586166 10.077761
v -5.363372 17.586166 10.934021
v -5.466600 17.200077 11.306665
v -3.746508 16.231335 11.287104
v -3.808022 16.617424 11.668858
v -0.848833 16.617424 11.979289
v -0.828637 16.231335 11.593201
v -3.808022 17.200077 11.668858
v -3.746508 17.586166 11.287104
v -0.828637 17.586166 11.593201
v -0.848833 17.200077 11.979289
v 3.808024 16.617424 11.668862
v 3.746511 16.231335 11.287108
v 0.828637 16.231335 11.593202
v 0.848833 16.617424 11.979290
v 3.746511 17.586166 11.287108
v 3.808024 17.200077 11.668862
v 0.848833 17.200077 11.979290
v 0.828637 17.586166 11.593202
vt 0.500000 0.308210
vt 0.500000 0.309641
vt 0.500000 0.843750
vt 0.500000 0.690359
vt 0.487364 0.312500
vt 0.500000 0.150000
vt 0.500000 0.155909
vt 0.500000 0.002859
vt 0.487500 0.688440
vt 0.500000 0.837500
vt 0.500000 0.995710
vt 0.500000 0.997141
vt 0.550191 0.312500
vt 0.560207 0.312500
vt 0.560399 0.312500
vt 0.565210 0.312500
vt 0.550191 0.688440
vt 0.550000 0.581307
vt 0.560207 0.688440
vt 0.560399 0.688440
vt 0.565210 0.688440
vt 0.377407 0.312500
vt 0.375000 0.419632
vt 0.375168 0.312500
vt 0.377841 0.312500
vt 0.385087 0.312500
vt 0.385631 0.312500
vt 0.390175 0.312500
vt 0.377407 0.688440
vt 0.375168 0.688440
vt 0.377841 0.688440
vt 0.385087 0.688440
vt 0.385631 0.688440
vt 0.390175 0.688440
vt 0.390765 0.312500
vt 0.397310 0.312500
vt 0.397942 0.312500
vt 0.403064 0.312500
vt 0.390765 0.688440
vt 0.397310 0.688440
vt 0.397942 0.688440
vt 0.403064 0.688440
vt 0.403649 0.312500
vt 0.409375 0.312500
vt 0.409790 0.312500
vt 0.414600 0.312500
vt 0.403649 0.688440
vt 0.409375 0.688440
vt 0.409790 0.688440
vt 0.414600 0.688440
vt 0.425000 0.419632
vt 0.414793 0.312500
vt 0.424808 0.688440
vt 0.414793 0.688440
vt 0.565625 0.312500
vt 0.571351 0.312500
vt 0.571936 0.312500
vt 0.577057 0.312500
vt 0.565625 0.688440
vt 0.571351 0.688440
vt 0.571936 0.688440
vt 0.577058 0.688440
vt 0.577689 0.312500
vt 0.584235 0.312500
vt 0.584824 0.312500
vt 0.589369 0.312500
vt 0.577689 0.688440
vt 0.584235 0.688440
vt 0.584824 0.688440
vt 0.589369 0.688440
vt 0.589913 0.312500
vt 0.597159 0.312500
vt 0.597592 0.312500
vt 0.601952 0.312500
vt 0.589913 0.688440
vt 0.597159 0.688440
vt 0.597592 0.688440
vt 0.601952 0.688440
vt 0.602279 0.312500
vt 0.610033 0.312500
vt 0.610276 0.312500
vt 0.614724 0.312500
vt 0.602279 0.688440
vt 0.610033 0.688440
vt 0.610276 0.688440
vt 0.614724 0.688440
vt 0.622720 0.312500
vt 0.614967 0.312500
vt 0.622720 0.581307
vt 0.622720 0.688440
vt 0.614967 0.688440
vt 0.377407 0.581307
vt 0.385087 0.419632
vt 0.390175 0.581307
vt 0.397310 0.419632
vt 0.403064 0.581307
vt 0.409375 0.419632
vt 0.414600 0.581307
vt 0.425000 0.581307
vt 0.550000 0.419632
vt 0.560399 0.419632
vt 0.565625 0.581307
vt 0.571936 0.419632
vt 0.577689 0.581307
vt 0.584824 0.419632
vt 0.589913 0.581307
vt 0.597592 0.419632
vt 0.602279 0.581307
vt 0.610222 0.419632
vt 0.614778 0.581307
vt 0.622720 0.419632
vt 0.500000 0.003960
vt 0.538686 0.010087
vt 0.500000 0.691460
vt 0.538686 0.697587
vt 0.636675 0.111340
vt 0.644022 0.117166
vt 0.648813 0.147416
vt 0.636675 0.887657
vt 0.638495 0.899123
vt 0.625093 0.925426
vt 0.617458 0.070469
vt 0.625093 0.074113
vt 0.638496 0.100417
vt 0.617458 0.928646
vt 0.613755 0.940789
vt 0.594517 0.960027
vt 0.586080 0.037379
vt 0.594517 0.039557
vt 0.613755 0.058796
vt 0.586080 0.961837
vt 0.577085 0.972446
vt 0.556106 0.983135
vt 0.545489 0.015889
vt 0.556106 0.016501
vt 0.577085 0.027190
vt 0.545489 0.983388
vt 0.538686 0.989583
vt 0.545489 0.295888
vt 0.538686 0.302083
vt 0.545489 0.703389
vt 0.556107 0.704001
vt 0.577085 0.714690
vt 0.586080 0.274337
vt 0.577085 0.284946
vt 0.556106 0.295635
vt 0.586080 0.724879
vt 0.594517 0.727057
vt 0.613755 0.746296
vt 0.617458 0.241146
vt 0.613755 0.253289
vt 0.594517 0.272527
vt 0.617458 0.757969
vt 0.625093 0.761613
vt 0.638496 0.787917
vt 0.636674 0.200157
vt 0.638496 0.211623
vt 0.625093 0.237926
vt 0.636675 0.798840
vt 0.644022 0.804666
vt 0.648813 0.834916
vt 0.642964 0.155719
vt 0.648813 0.164598
vt 0.644022 0.194848
vt 0.642964 0.843219
vt 0.648813 0.852098
vt 0.644022 0.882348
vt 0.377407 0.419633
vt 0.375000 0.581307
vt 0.390175 0.419632
vt 0.385087 0.581307
vt 0.403064 0.419632
vt 0.397310 0.581307
vt 0.414600 0.419632
vt 0.409375 0.581307
vt 0.565625 0.419632
vt 0.560399 0.581307
vt 0.577689 0.419632
vt 0.571936 0.581307
vt 0.589913 0.419632
vt 0.584824 0.581307
vt 0.602279 0.419632
vt 0.597592 0.581307
vt 0.614778 0.419632
vt 0.610222 0.581307
vt 0.375502 0.312500
vt 0.376641 0.312500
vt 0.375223 0.312500
vt 0.375502 0.688440
vt 0.375223 0.688440
vt 0.376641 0.688440
vt 0.387057 0.312500
vt 0.388885 0.312500
vt 0.386049 0.312500
vt 0.387057 0.688440
vt 0.386049 0.688440
vt 0.388885 0.688440
vt 0.399608 0.312500
vt 0.401582 0.312500
vt 0.398478 0.312500
vt 0.399608 0.688440
vt 0.398478 0.688440
vt 0.401582 0.688440
vt 0.412138 0.312500
vt 0.413444 0.312500
vt 0.410797 0.312500
vt 0.412138 0.688440
vt 0.410797 0.688440
vt 0.413444 0.688440
vt 0.562196 0.312500
vt 0.563860 0.312500
vt 0.561243 0.312500
vt 0.562196 0.688440
vt 0.561243 0.688440
vt 0.563860 0.688440
vt 0.574608 0.312500
vt 0.576124 0.312500
vt 0.573082 0.312500
vt 0.574608 0.688440
vt 0.573082 0.688440
vt 0.576124 0.688440
vt 0.587057 0.312500
vt 0.588519 0.312500
vt 0.585749 0.312500
vt 0.587057 0.688440
vt 0.585749 0.688440
vt 0.588519 0.688440
vt 0.599498 0.312500
vt 0.601042 0.312500
vt 0.598359 0.312500
vt 0.599498 0.688440
vt 0.598359 0.688440
vt 0.601042 0.688440
vt 0.611968 0.312500
vt 0.613629 0.312500
vt 0.610936 0.312500
vt 0.611968 0.688440
vt 0.610936 0.688440
vt 0.613629 0.688440
vt 0.548856 0.312500
vt 0.548350 0.312500
vt 0.548856 0.688440
vt 0.548350 0.688440
vt 0.424808 0.312500
vt 0.426144 0.312500
vt 0.426144 0.688440
vn 0.000000 0.000000 -1.000000
vn 0.000000 0.000000 -1.000000
vn -0.000000 0.000000 -1.000000
vn -0.000000 0.000000 -1.000000
vn -0.000000 0.000000 -1.000000
vn -0.000000 0.000000 -1.000000
vn 0.000000 -1.000000 -0.000000
vn 0.000000 -1.000000 -0.000001
vn 0.000000 -1.000000 0.000000
vn 0.000000 -1.000000 0.000000
vn 0.000000 1.000000 0.000000
vn 0.000000 1.000000 0.000000
vn 0.000000 1.000000 0.000000
vn 0.000000 1.000000 0.000001
vn 0.000000 1.000000 0.000001
vn 0.000000 1.000000 0.000001
vn 0.000000 -1.000000 -0.000001
vn 0.000000 -1.000000 -0.000001
vn 0.000000 0.000000 -1.000000
vn 0.000000 0.000000 -1.000000
vn 0.000000 0.000000 -1.000000
vn 0.000000 0.000000 -1.000000
vn -0.700020 -0.707105 0.099869
vn -0.700021 -0.707105 0.099869
vn -0.690069 -0.709291 0.143916
vn -0.687362 -0.709611 0.154874
vn -0.613287 -0.709996 0.346099
vn -0.601034 -0.709950 0.367055
vn -0.700020 0.707105 0.099869
vn -0.700020 0.707105 0.099869
vn -0.687362 0.709610 0.154875
vn -0.690069 0.709291 0.143917
vn -0.601034 0.709950 0.367056
vn -0.613287 0.709996 0.346100
vn 0.200615 -0.707591 0.677547
vn 0.193871 -0.707635 0.679461
vn 0.099607 -0.707586 0.699572
vn 0.103806 -0.707619 0.698928
vn 0.263813 -0.707840 0.655260
vn 0.253699 -0.707756 0.659332
vn 0.362435 -0.707789 0.606363
vn 0.350816 -0.707850 0.613088
vn 0.193871 0.707635 0.679461
vn 0.200615 0.707591 0.677547
vn 0.103806 0.707618 0.698928
vn 0.099607 0.707586 0.699572
vn 0.253699 0.707757 0.659331
vn 0.263813 0.707840 0.655259
vn 0.350816 0.707851 0.613087
vn 0.362436 0.707790 0.606362
vn 0.437261 -0.708310 0.554166
vn 0.422725 -0.708194 0.565477
vn 0.528919 -0.708275 0.467538
vn 0.516413 -0.708286 0.481299
vn 0.422725 0.708195 0.565476
vn 0.437261 0.708311 0.554165
vn 0.516412 0.708286 0.481300
vn 0.528918 0.708275 0.467539
vn 0.613287 -0.709996 0.346099
vn 0.601034 -0.709950 0.367055
vn 0.690068 -0.709291 0.143917
vn 0.687362 -0.709611 0.154874
vn 0.601034 0.709950 0.367055
vn 0.613287 0.709996 0.346100
vn 0.687362 0.709611 0.154874
vn 0.690068 0.709291 0.143917
vn 0.700020 -0.707106 0.099869
vn 0.700019 -0.707106 0.099869
vn 0.700019 0.707106 0.099869
vn 0.700020 0.707106 0.099869
vn -0.528918 -0.708275 0.467539
vn -0.516413 -0.708286 0.481299
vn -0.437261 -0.708310 0.554166
vn -0.422725 -0.708194 0.565477
vn -0.516413 0.708285 0.481300
vn -0.528918 0.708274 0.467540
vn -0.422725 0.708195 0.565476
vn -0.437261 0.708310 0.554165
vn -0.362435 -0.707789 0.606362
vn -0.350816 -0.707851 0.613087
vn -0.263814 -0.707840 0.655259
vn -0.253699 -0.707757 0.659331
vn -0.350816 0.707850 0.613087
vn -0.362435 0.707789 0.606362
vn -0.253699 0.707757 0.659331
vn -0.263813 0.707840 0.655259
vn -0.200615 -0.707590 0.677547
vn -0.193871 -0.707635 0.679461
vn -0.103806 -0.707618 0.698928
vn -0.099608 -0.707586 0.699572
vn -0.193871 0.707635 0.679461
vn -0.200615 0.707590 0.677547
vn -0.099608 0.707586 0.699572
vn -0.103806 0.707618 0.698928
vn -0.047734 -0.707547 0.705052
vn -0.046386 -0.707557 0.705133
vn 0.047733 -0.707547 0.705052
vn 0.046385 -0.707557 0.705132
vn -0.046386 0.707556 0.705133
vn -0.047734 0.707546 0.705053
vn 0.046385 0.707556 0.705133
vn 0.047733 0.707546 0.705053
vn 0.279309 0.000000 0.960201
vn 0.279309 0.000000 0.960201
vn 0.366529 0.000000 0.930407
vn 0.366529 0.000000 0.930407
vn 0.505251 0.000000 0.862973
vn 0.505251 0.000000 0.862973
vn 0.609446 0.000000 0.792827
vn 0.609446 0.000000 0.792827
vn 0.740856 0.000000 0.671664
vn 0.740856 0.000000 0.671664
vn 0.862797 0.000000 0.505550
vn 0.862797 0.000000 0.505550
vn 0.977261 0.000000 0.212039
vn 0.977261 0.000000 0.212039
vn 0.989976 0.000000 0.141236
vn 0.989976 0.000000 0.141236
vn -0.989976 0.000000 0.141236
vn -0.977261 0.000000 0.212039
vn -0.977261 0.000000 0.212039
vn -0.989976 0.000000 0.141236
vn -0.862797 0.000000 0.505550
vn -0.862797 0.000000 0.505550
vn -0.740856 0.000000 0.671664
vn -0.740856 0.000000 0.671664
vn -0.609446 0.000000 0.792828
vn -0.609446 0.000000 0.792828
vn -0.505251 0.000000 0.862973
vn -0.505251 0.000000 0.862973
vn -0.366530 0.000000 0.930406
vn -0.366530 0.000000 0.930406
vn -0.279310 0.000000 0.960201
vn -0.279310 0.000000 0.960201
vn -0.144139 0.000000 0.989557
vn -0.144139 0.000000 0.989557
vn -0.066514 0.000000 0.997786
vn -0.066514 0.000000 0.997786
vn 0.066512 0.000000 0.997786
vn 0.066512 0.000000 0.997786
vn 0.144138 0.000000 0.989558
vn 0.144138 0.000000 0.989558
vn 0.000000 -1.000000 0.000000
vn 0.000000 -1.000000 0.000000
vn 0.000000 1.000000 0.000000
vn 0.000000 1.000000 0.000000
vn 0.000000 -1.000000 0.000000
vn 0.000000 -1.000000 0.000000
vn 0.000000 -1.000000 0.000000
vn 0.000000 -1.000000 0.000000
vn 0.000000 1.000000 -0.000000
vn 0.000000 1.000000 -0.000000
vn 0.000000 1.000000 -0.000000
vn 0.000000 1.000000 0.000000
vn 0.000000 -1.000000 0.000000
vn 0.000000 -1.000000 0.000000
vn 0.000000 -1.000000 0.000000
vn 0.000000 1.000000 0.000001
vn 0.000000 1.000000 0.000001
vn 0.000000 1.000000 0.000000
vn 0.000000 -1.000000 0.000001
vn 0.000000 -1.000000 0.000000
vn 0.000000 -1.000000 0.000000
vn 0.000000 1.000000 0.000000
vn 0.000000 1.000000 0.000000
vn 0.000000 1.000000 0.000000
vn 0.000000 -1.000000 0.000001
vn 0.000000 -1.000000 0.000001
vn 0.000000 1.000000 0.000000
vn 0.000000 -1.000000 0.000000
vn 0.000000 -1.000000 0.000000
vn 0.000000 1.000000 0.000000
vn 0.000000 1.000000 0.000000
vn 0.000000 1.000000 0.000000
vn 0.000000 -1.000000 -0.000000
vn 0.000000 -1.000000 0.000001
vn 0.000000 -1.000000 0.000001
vn 0.000000 1.000000 0.000000
vn 0.000000 1.000000 0.000000
vn 0.000000 1.000000 0.000000
vn 0.000000 -1.000000 -0.000000
vn 0.000000 -1.000000 -0.000001
vn 0.000000 -1.000000 -0.000001
vn 0.000000 1.000000 0.000000
vn 0.000000 1.000000 -0.000000
vn 0.000000 1.000000 -0.000000
vn 0.000000 -1.000000 0.000000
vn 0.000000 -1.000000 0.000000
vn 0.000000 -1.000000 0.000000
vn 0.000000 1.000000 -0.000000
vn 0.000000 1.000000 -0.000000
vn 0.000000 1.000000 -0.000000
vn 0.000000 -1.000000 0.000000
vn 0.000000 -1.000000 0.000000
vn 0.000000 1.000000 -0.000000
vn 0.000000 1.000000 -0.000000
vn -0.394460 -0.281753 0.874652
vn -0.394460 -0.281753 0.874652
vn -0.394460 -0.281753 0.874652
vn -0.394469 0.281762 0.874646
vn -0.394469 0.281762 0.874646
vn -0.394469 0.281762 0.874646
vn 0.394460 -0.281752 0.874653
vn 0.394460 -0.281752 0.874653
vn 0.394460 -0.281752 0.874653
vn 0.394469 0.281755 0.874647
vn 0.394469 0.281755 0.874647
vn 0.394469 0.281755 0.874647
s 1
g pCylinder3
usemtl initialShadingGroup
f 4/9/1 3/5/2 23/240/3 25/100/4 29/18/5 28/242/6
s 2
f 1/6/7 3/7/8 58/8/9 57/112/10
s 3
f 2/10/11 64/11/12 63/12/13 4/3/14
f 2/10/11 4/3/14 28/4/15 30/114/16
s 2
f 24/1/17 23/2/18 3/7/8 1/6/7
s 1
f 63/246/19 62/99/20 59/51/21 58/245/22 3/5/2 4/9/1
s 4
f 25/100/23 24/13/24 27/14/25 26/101/26
f 26/101/26 27/15/25 67/16/27 68/176/28
s 5
f 30/17/29 29/18/30 32/177/31 31/19/32
f 31/20/32 32/177/31 71/102/33 72/21/34
s 4
f 33/22/35 34/168/36 99/23/37 100/24/38
f 34/168/36 33/25/35 36/26/39 35/93/40
f 35/93/40 36/27/39 41/28/41 42/170/42
s 5
f 37/92/43 38/29/44 103/30/45 104/169/46
f 38/31/44 37/92/43 40/171/47 39/32/48
f 39/33/48 40/171/47 45/94/49 46/34/50
s 4
f 42/170/42 41/35/41 44/36/51 43/95/52
f 43/95/52 44/37/51 49/38/53 50/172/54
s 5
f 46/39/50 45/94/49 48/173/55 47/40/56
f 47/41/56 48/173/55 53/96/57 54/42/58
s 4
f 50/172/54 49/43/53 52/44/59 51/97/60
f 51/97/60 52/45/59 60/46/61 61/174/62
s 5
f 54/47/58 53/96/57 56/175/63 55/48/64
f 55/49/64 56/175/63 65/98/65 66/50/66
s 4
f 57/244/67 59/51/68 61/174/62 60/52/61
s 5
f 62/99/69 64/53/70 66/54/66 65/98/65
s 4
f 68/176/28 67/55/27 70/56/71 69/103/72
f 69/103/72 70/57/71 75/58/73 76/178/74
s 5
f 72/59/34 71/102/33 74/179/75 73/60/76
f 73/61/76 74/179/75 79/104/77 80/62/78
s 4
f 76/178/74 75/63/73 78/64/79 77/105/80
f 77/105/80 78/65/79 83/66/81 84/180/82
s 5
f 80/67/78 79/104/77 82/181/83 81/68/84
f 81/69/84 82/181/83 87/106/85 88/70/86
s 4
f 84/180/82 83/71/81 86/72/87 85/107/88
f 85/107/88 86/73/87 91/74/89 92/182/90
s 5
f 88/75/86 87/106/85 90/183/91 89/76/92
f 89/77/92 90/183/91 95/108/93 96/78/94
s 4
f 92/182/90 91/79/89 94/80/95 93/109/96
f 93/109/96 94/81/95 101/82/97 102/184/98
s 5
f 96/83/94 95/108/93 98/185/99 97/84/100
f 97/85/100 98/185/99 105/110/101 106/86/102
s 4
f 100/87/38 99/111/37 102/184/98 101/88/97
s 5
f 104/89/46 103/90/45 106/91/102 105/110/101
s 8
f 37/92/103 34/168/104 35/93/105 40/171/106
f 45/94/107 42/170/108 43/95/109 48/173/110
f 53/96/111 50/172/112 51/97/113 56/175/114
f 65/98/115 61/174/116 59/51/117 62/99/118
f 25/100/119 26/101/120 32/177/121 29/18/122
f 71/102/123 68/176/124 69/103/125 74/179/126
f 79/104/127 76/178/128 77/105/129 82/181/130
f 87/106/131 84/180/132 85/107/133 90/183/134
f 95/108/135 92/182/136 93/109/137 98/185/138
f 105/110/139 102/184/140 99/111/141 104/89/142
s 2
f 57/112/10 60/113/143 11/134/144 1/6/7
s 3
f 30/114/16 31/115/145 14/141/146 2/10/11
s 2
f 5/116/147 100/117/148 101/118/149 21/162/150 1/6/7
s 3
f 6/119/151 38/120/152 39/121/153 8/125/154 2/10/11
s 2
f 7/122/155 36/123/156 33/124/157 5/116/147 1/6/7
s 3
f 8/125/154 46/126/158 47/127/159 10/131/160 2/10/11
s 2
f 9/128/161 44/129/162 41/130/163 7/122/155 1/6/7
s 3
f 10/131/160 54/132/164 55/133/165 12/137/166 2/10/11
s 2
f 11/134/144 52/135/167 49/136/168 9/128/161 1/6/7
s 3
f 12/137/166 66/138/169 64/11/12 2/10/11
s 2
f 13/139/170 27/140/171 24/1/17 1/6/7
s 3
f 14/141/146 72/142/172 73/143/173 16/147/174 2/10/11
s 2
f 15/144/175 70/145/176 67/146/177 13/139/170 1/6/7
s 3
f 16/147/174 80/148/178 81/149/179 18/153/180 2/10/11
s 2
f 17/150/181 78/151/182 75/152/183 15/144/175 1/6/7
s 3
f 18/153/180 88/154/184 89/155/185 20/159/186 2/10/11
s 2
f 19/156/187 86/157/188 83/158/189 17/150/181 1/6/7
s 3
f 20/159/186 96/160/190 97/161/191 22/165/192 2/10/11
s 2
f 21/162/150 94/163/193 91/164/194 19/156/187 1/6/7
s 3
f 22/165/192 106/166/195 103/167/196 6/119/151 2/10/11
s 8
f 99/23/141 34/168/104 37/92/103 104/169/142
f 35/93/105 42/170/108 45/94/107 40/171/106
f 43/95/109 50/172/112 53/96/111 48/173/110
f 51/97/113 61/174/116 65/98/115 56/175/114
f 26/101/120 68/176/124 71/102/123 32/177/121
f 69/103/125 76/178/128 79/104/127 74/179/126
f 77/105/129 84/180/132 87/106/131 82/181/130
f 85/107/133 92/182/136 95/108/135 90/183/134
f 93/109/137 102/184/140 105/110/139 98/185/138
s 2
f 5/186/147 33/187/157 100/188/148
s 3
f 6/189/151 103/190/196 38/191/152
s 2
f 7/192/155 41/193/163 36/194/156
s 3
f 8/195/154 39/196/153 46/197/158
s 2
f 9/198/161 49/199/168 44/200/162
s 3
f 10/201/160 47/202/159 54/203/164
s 2
f 11/204/144 60/205/143 52/206/167
s 3
f 12/207/166 55/208/165 66/209/169
s 2
f 13/210/170 67/211/177 27/212/171
s 3
f 14/213/146 31/214/145 72/215/172
s 2
f 15/216/175 75/217/183 70/218/176
s 3
f 16/219/174 73/220/173 80/221/178
s 2
f 17/222/181 83/223/189 78/224/182
s 3
f 18/225/180 81/226/179 88/227/184
s 2
f 19/228/187 91/229/194 86/230/188
s 3
f 20/231/186 89/232/185 96/233/190
s 2
f 21/234/150 101/235/149 94/236/193
s 3
f 22/237/192 97/238/191 106/239/195
s off
f 23/240/197 24/241/198 25/100/199
f 28/242/200 29/18/201 30/243/202
f 57/244/203 58/245/204 59/51/205
f 62/99/206 63/246/207 64/53/208
