# This file uses centimeters as units for non-parametric coordinates.

mtllib Columnas.mtl
g default
v -0.509872 15.130037 -4.823456
v -0.484875 15.130037 -4.798458
v -0.484875 15.155035 -4.823456
v 0.465130 15.155035 -4.823456
v 0.465130 15.130037 -4.798458
v 0.490128 15.130037 -4.823456
v -0.484875 15.155035 -5.773460
v -0.484875 15.130037 -5.798458
v -0.509872 15.130037 -5.773460
v 0.490128 15.130037 -5.773460
v 0.465130 15.130037 -5.798458
v 0.465130 15.155035 -5.773460
v -0.509872 14.180033 -5.773460
v -0.484875 14.180033 -5.798458
v -0.484875 14.155035 -5.773460
v 0.465130 14.155035 -5.773460
v 0.465130 14.180033 -5.798458
v 0.490128 14.180033 -5.773460
v -0.484875 14.180033 -4.798458
v -0.509872 14.180033 -4.823456
v -0.484875 14.155035 -4.823456
v 0.465130 14.155035 -4.823456
v 0.490128 14.180033 -4.823456
v 0.465130 14.180033 -4.798458
v 0.443572 14.106447 -4.845015
v 0.443572 14.106447 -5.751902
v -0.463316 14.106447 -4.845015
v -0.463316 14.106447 -5.751902
v 0.475816 14.044493 -4.812771
v 0.475816 14.044493 -5.784145
v -0.495560 14.044493 -4.812771
v -0.495560 14.044493 -5.784145
v 0.475816 13.989882 -4.812771
v 0.475816 13.989882 -5.784145
v -0.495560 13.989882 -4.812771
v -0.495560 13.989882 -5.784145
v 0.475816 13.484241 -4.812771
v 0.475816 13.484241 -5.784145
v -0.495560 13.484241 -4.812771
v -0.495560 13.484241 -5.784145
v 0.351830 13.317320 -4.936756
v 0.351830 13.317320 -5.660160
v -0.371574 13.317320 -4.936756
v -0.371574 13.317320 -5.660160
v 0.408823 13.220104 -4.879763
v 0.408823 13.220104 -5.717154
v -0.428568 13.220104 -4.879763
v -0.428568 13.220104 -5.717154
v 0.408823 0.715168 -4.879763
v 0.408823 0.715168 -5.717154
v -0.428568 0.715168 -4.879763
v -0.428568 0.715168 -5.717154
v 0.368117 0.613173 -4.920469
v 0.368117 0.613173 -5.676447
v -0.387861 0.613173 -4.920469
v -0.387861 0.613173 -5.676447
v 0.413057 0.397715 -4.875528
v 0.413057 0.397715 -5.721388
v -0.432802 0.397715 -4.875528
v -0.432802 0.397715 -5.721388
v 0.413057 0.232459 -4.875528
v 0.413057 0.232459 -5.721388
v -0.432802 0.232459 -4.875528
v -0.432802 0.232459 -5.721388
v 0.458320 0.000000 -4.830265
v 0.458320 0.000000 -5.766651
v -0.478065 0.000000 -4.830265
v -0.478065 0.000000 -5.766651
v -0.442567 15.155035 5.750896
v -0.442567 15.202596 5.798456
v -0.490128 15.202596 5.750896
v 0.509872 15.202596 5.750896
v 0.462311 15.202596 5.798456
v 0.462311 15.155035 5.750896
v -0.490128 15.667068 5.750896
v -0.442567 15.667068 5.798456
v -0.442567 15.714628 5.750896
v 0.462311 15.714628 5.750896
v 0.462311 15.667068 5.798456
v 0.509872 15.667068 5.750896
v -0.490128 15.667068 -5.750898
v -0.442567 15.714628 -5.750898
v -0.442567 15.667068 -5.798458
v 0.462311 15.667068 -5.798458
v 0.462311 15.714628 -5.750898
v 0.509872 15.667068 -5.750898
v -0.490128 15.202596 -5.750898
v -0.442567 15.202596 -5.798458
v -0.442567 15.155035 -5.750898
v 0.462311 15.155035 -5.750898
v 0.462311 15.202596 -5.798458
v 0.509872 15.202596 -5.750898
vt 0.523880 0.010783
vt 0.526645 0.010727
vt 0.528157 0.085017
vt 0.525392 0.085073
vt 0.914801 0.146078
vt 0.917567 0.145987
vt 0.920024 0.220305
vt 0.917259 0.220397
vt 0.913044 0.218848
vt 0.910699 0.147902
vt 0.757315 0.156345
vt 0.687161 0.156345
vt 0.687161 0.150625
vt 0.757315 0.150625
vt 0.757315 0.104735
vt 0.687161 0.104735
vt 0.687161 0.087703
vt 0.141741 0.993851
vt 0.080569 0.985664
vt 0.146110 0.984985
vt 0.910990 0.138618
vt 0.589856 0.147327
vt 0.842665 0.129815
vt 0.910990 0.129815
vt 0.684478 0.212006
vt 0.684647 0.206744
vt 0.755438 0.209028
vt 0.755268 0.214290
vt 0.680005 0.209228
vt 0.759910 0.211806
vt 0.685820 0.170408
vt 0.282914 0.910438
vt 0.353741 0.910433
vt 0.756610 0.172692
vt 0.681347 0.167630
vt 0.761252 0.170208
vt 0.600935 0.009215
vt 0.603700 0.009159
vt 0.605211 0.083449
vt 0.602447 0.083505
vt 0.677989 0.007647
vt 0.680754 0.007591
vt 0.682266 0.081881
vt 0.679501 0.081937
vt 0.684945 0.009192
vt 0.686388 0.080111
vt 0.842665 0.079942
vt 0.842665 0.004883
vt 0.910990 0.004883
vt 0.910990 0.079942
vt 0.690355 0.006560
vt 0.691901 0.082521
vt 0.735713 0.081629
vt 0.734167 0.005668
vt 0.750624 0.015033
vt 0.751775 0.071603
vt 0.759346 0.010397
vt 0.760678 0.075880
vt 0.665818 0.223421
vt 0.590094 0.209376
vt 0.597745 0.215122
vt 0.665818 0.215122
vt 0.353675 0.010157
vt 0.282848 0.010162
vt 0.828737 0.205951
vt 0.353675 0.004892
vt 0.471387 0.004883
vt 0.471388 0.010148
vt 0.400560 0.010153
vt 0.400560 0.004888
vt 0.475947 0.007515
vt 0.471453 0.910425
vt 0.400626 0.910430
vt 0.766857 0.007831
vt 0.766857 0.087054
vt 0.601277 0.007825
vt 0.680355 0.006216
vt 0.991795 0.140764
vt 0.991886 0.143530
vt 0.836219 0.087054
vt 0.994235 0.142068
vt 0.915126 0.144683
vt 0.904827 0.205439
vt 0.899318 0.169120
vt 0.904582 0.169084
vt 0.395361 0.910430
vt 0.395362 0.915695
vt 0.359006 0.915698
vt 0.359006 0.910433
vt 0.605267 0.086214
vt 0.679557 0.085661
vt 0.994343 0.217848
vt 0.994434 0.220614
vt 0.920116 0.223071
vt 0.694626 0.006473
vt 0.696172 0.082434
vt 0.687161 0.146151
vt 0.757315 0.146151
vt 0.277193 0.983626
vt 0.211652 0.984305
vt 0.597745 0.198490
vt 0.665818 0.198490
vt 0.597745 0.186002
vt 0.665818 0.186002
vt 0.597745 0.168106
vt 0.665818 0.168106
vt 0.842665 0.112172
vt 0.910990 0.112172
vt 0.842665 0.098926
vt 0.910990 0.098926
vt 0.823472 0.205986
vt 0.823227 0.169632
vt 0.828492 0.169596
vt 0.679385 0.206575
vt 0.680558 0.170238
vt 0.836219 0.090002
vt 0.766857 0.090002
vt 0.836219 0.094434
vt 0.766857 0.094434
vt 0.986938 0.077731
vt 0.986938 0.080590
vt 0.916530 0.080590
vt 0.916530 0.077731
vt 0.986938 0.079594
vt 0.916530 0.077731
vt 0.916530 0.072912
vt 0.986938 0.072912
vt 0.986938 0.021763
vt 0.916530 0.021763
vt 0.916530 0.004883
vt 0.076199 0.994530
vt 0.766857 0.146979
vt 0.836219 0.146979
vt 0.836219 0.164319
vt 0.766857 0.164319
vt 0.004883 0.007601
vt 0.523880 0.138765
vt 0.589856 0.138765
vt 0.523880 0.200845
vt 0.590094 0.200845
vt 0.358940 0.010156
vt 0.356308 0.005597
vt 0.518338 0.910421
vt 0.513074 0.910422
vt 0.513008 0.010145
vt 0.518273 0.010144
vt 0.515640 0.005585
vt 0.766857 0.004883
vt 0.836219 0.004883
vt 0.602503 0.086270
vt 0.606779 0.160503
vt 0.604015 0.160560
vt 0.603837 0.083848
vt 0.681069 0.159951
vt 0.605446 0.162926
vt 0.916530 0.067243
vt 0.986938 0.067243
vt 0.916530 0.062810
vt 0.986938 0.062810
vt 0.836219 0.100259
vt 0.766857 0.100259
vt 0.836219 0.104813
vt 0.766857 0.104813
vt 0.015028 0.986343
vt 0.207282 0.993172
vt 0.150662 0.993759
vt 0.523880 0.121605
vt 0.589856 0.121605
vt 0.523880 0.108720
vt 0.589856 0.108720
vt 0.523880 0.090255
vt 0.589856 0.090255
vt 0.523880 0.183746
vt 0.590094 0.183746
vt 0.523880 0.170908
vt 0.590094 0.170908
vt 0.523880 0.152510
vt 0.590094 0.152510
vt 0.395296 0.010153
vt 0.397928 0.005594
vt 0.476718 0.910424
vt 0.476652 0.010148
vt 0.282848 0.004897
vt 0.899562 0.205474
vt 0.070424 0.006921
vt 0.842665 0.138618
vt 0.135966 0.006242
vt 0.523880 0.209376
vt 0.201507 0.005562
vt 0.597745 0.223421
vt 0.267048 0.004883
vt 0.523880 0.147327
vt 0.685989 0.165146
vt 0.756780 0.167430
vt 0.986938 0.004883
vt 0.085121 0.994438
vt 0.757315 0.087703
vt 0.019580 0.995117
vt 0.917476 0.143221
vt 0.836219 0.007831
vt 0.603643 0.006394
vt 0.677933 0.004883
vn -0.707110 0.707103 0.000000
vn -0.707110 0.707103 0.000000
vn -0.707110 0.707103 0.000000
vn -0.707110 0.707103 0.000000
vn -0.707110 0.000000 0.707104
vn -0.707110 0.000000 0.707104
vn -0.707110 0.000000 0.707104
vn -0.707110 0.000000 0.707104
vn 0.000000 0.707100 0.707113
vn 0.000000 0.707100 0.707113
vn 0.000000 0.707100 0.707113
vn 0.000000 0.707100 0.707113
vn 0.707107 0.707107 0.000000
vn 0.707107 0.707107 0.000000
vn 0.707107 0.707107 0.000000
vn 0.707107 0.707107 0.000000
vn 0.707107 0.000000 0.707107
vn 0.707107 0.000000 0.707107
vn 0.707107 0.000000 0.707107
vn 0.707107 0.000000 0.707107
vn 0.000000 0.707100 -0.707113
vn 0.000000 0.707100 -0.707113
vn 0.000000 0.707100 -0.707113
vn 0.000000 0.707100 -0.707113
vn -0.707110 0.000000 -0.707104
vn -0.707110 0.000000 -0.707104
vn -0.707110 0.000000 -0.707104
vn -0.707110 0.000000 -0.707104
vn 0.707107 0.000000 -0.707107
vn 0.707107 0.000000 -0.707107
vn 0.707107 0.000000 -0.707107
vn 0.707107 0.000000 -0.707107
vn -0.707110 -0.707103 0.000000
vn -0.707110 -0.707103 0.000000
vn -0.707110 -0.707103 0.000000
vn -0.707110 -0.707103 0.000000
vn 0.000000 -0.707114 -0.707099
vn 0.000000 -0.707114 -0.707099
vn 0.000000 -0.707114 -0.707099
vn 0.000000 -0.707114 -0.707099
vn 0.707107 -0.707107 0.000000
vn 0.707107 -0.707107 0.000000
vn 0.707107 -0.707107 0.000000
vn 0.707107 -0.707107 0.000000
vn 0.000000 -0.707114 0.707099
vn 0.000000 -0.707114 0.707099
vn 0.000000 -0.707114 0.707099
vn 0.000000 -0.707114 0.707099
vn 0.000000 0.000000 1.000000
vn 0.000000 0.000000 1.000000
vn 0.000000 0.000000 1.000000
vn 0.000000 0.000000 1.000000
vn 0.000000 1.000000 0.000000
vn 0.000000 1.000000 0.000000
vn 0.000000 1.000000 0.000000
vn 0.000000 1.000000 0.000000
vn 0.000000 0.000000 -1.000000
vn 0.000000 0.000000 -1.000000
vn 0.000000 0.000000 -1.000000
vn 0.000000 0.000000 -1.000000
vn 0.000000 -1.000000 0.000000
vn 0.000000 -1.000000 0.000000
vn 0.000000 -1.000000 0.000000
vn 0.000000 -1.000000 0.000000
vn 1.000000 0.000000 0.000000
vn 1.000000 0.000000 0.000000
vn 1.000000 0.000000 0.000000
vn 1.000000 0.000000 0.000000
vn -1.000000 0.000000 0.000000
vn -1.000000 0.000000 0.000000
vn -1.000000 0.000000 0.000000
vn -1.000000 0.000000 0.000000
vn -0.577346 0.577346 0.577359
vn -0.577346 0.577346 0.577359
vn -0.577346 0.577346 0.577359
vn 0.577344 0.577349 0.577358
vn 0.577344 0.577349 0.577358
vn 0.577344 0.577349 0.577358
vn -0.577355 0.577341 -0.577355
vn -0.577355 0.577341 -0.577355
vn -0.577355 0.577341 -0.577355
vn 0.577353 0.577345 -0.577353
vn 0.577353 0.577345 -0.577353
vn 0.577353 0.577345 -0.577353
vn -0.577355 -0.577341 -0.577355
vn -0.577355 -0.577341 -0.577355
vn -0.577355 -0.577341 -0.577355
vn 0.577353 -0.577345 -0.577353
vn 0.577353 -0.577345 -0.577353
vn 0.577353 -0.577345 -0.577353
vn -0.577346 -0.577346 0.577359
vn -0.577346 -0.577346 0.577359
vn -0.577346 -0.577346 0.577359
vn 0.577344 -0.577349 0.577358
vn 0.577344 -0.577349 0.577358
vn 0.577344 -0.577349 0.577358
vn 0.914065 -0.405568 0.000000
vn 0.914065 -0.405568 0.000000
vn 0.994530 0.104452 0.000000
vn 0.994530 0.104452 0.000000
vn 0.000000 -0.405568 0.914065
vn 0.000000 -0.405568 0.914065
vn 0.000000 0.104447 0.994530
vn 0.000000 0.104447 0.994530
vn -0.914065 -0.405569 0.000000
vn -0.914065 -0.405569 0.000000
vn -0.994530 0.104452 0.000000
vn -0.994530 0.104452 0.000000
vn 0.000000 -0.405568 -0.914065
vn 0.000000 -0.405568 -0.914065
vn 0.000000 0.104447 -0.994530
vn 0.000000 0.104447 -0.994530
vn 0.974455 0.224584 0.000000
vn 0.974455 0.224584 0.000000
vn 0.000000 0.224584 0.974455
vn 0.000000 0.224584 0.974455
vn -0.974455 0.224584 0.000000
vn -0.974455 0.224584 0.000000
vn 0.000000 0.224584 -0.974455
vn 0.000000 0.224584 -0.974455
vn 1.000000 0.000000 0.000000
vn 1.000000 0.000000 0.000000
vn 0.000000 0.000000 1.000000
vn 0.000000 0.000000 1.000000
vn -1.000000 0.000000 0.000000
vn -1.000000 0.000000 0.000000
vn 0.000000 0.000000 -1.000000
vn 0.000000 0.000000 -1.000000
vn 0.993077 -0.117465 0.000000
vn 0.993077 -0.117465 0.000000
vn 0.000000 -0.117464 0.993077
vn 0.000000 -0.117464 0.993077
vn -0.993077 -0.117465 0.000000
vn -0.993077 -0.117465 0.000000
vn 0.000000 -0.117464 -0.993077
vn 0.000000 -0.117464 -0.993077
vn 0.802774 -0.596283 0.000000
vn 0.802774 -0.596283 0.000000
vn 0.000000 -0.596282 0.802775
vn 0.000000 -0.596282 0.802775
vn -0.802774 -0.596283 0.000000
vn -0.802774 -0.596283 0.000000
vn 0.000000 -0.596282 -0.802775
vn 0.000000 -0.596282 -0.802775
vn 0.862680 0.505751 0.000000
vn 0.862680 0.505751 0.000000
vn 0.862680 0.505751 0.000000
vn 0.862680 0.505751 0.000000
vn 0.000000 0.505751 0.862679
vn 0.000000 0.505751 0.862679
vn 0.000000 0.505751 0.862679
vn 0.000000 0.505751 0.862679
vn -0.862680 0.505751 0.000000
vn -0.862680 0.505751 0.000000
vn -0.862679 0.505751 0.000000
vn -0.862679 0.505751 0.000000
vn 0.000000 0.505751 -0.862679
vn 0.000000 0.505751 -0.862679
vn 0.000000 0.505751 -0.862679
vn 0.000000 0.505751 -0.862679
vn 1.000000 0.000000 0.000000
vn 1.000000 0.000000 0.000000
vn 1.000000 0.000000 0.000000
vn 1.000000 0.000000 0.000000
vn 0.000000 0.000000 1.000000
vn 0.000000 0.000000 1.000000
vn 0.000000 0.000000 1.000000
vn 0.000000 0.000000 1.000000
vn -1.000000 0.000000 0.000000
vn -1.000000 0.000000 0.000000
vn -1.000000 0.000000 0.000000
vn -1.000000 0.000000 0.000000
vn 0.000000 0.000000 -1.000000
vn 0.000000 0.000000 -1.000000
vn 0.000000 0.000000 -1.000000
vn 0.000000 0.000000 -1.000000
vn 0.928765 -0.370670 0.000000
vn 0.928765 -0.370670 0.000000
vn 0.928765 -0.370670 0.000000
vn 0.928765 -0.370670 0.000000
vn 0.000000 -0.370672 0.928764
vn 0.000000 -0.370672 0.928764
vn 0.000000 -0.370672 0.928764
vn 0.000000 -0.370672 0.928764
vn -0.928765 -0.370670 0.000000
vn -0.928765 -0.370670 0.000000
vn -0.928765 -0.370670 0.000000
vn -0.928765 -0.370670 0.000000
vn 0.000000 -0.370672 -0.928764
vn 0.000000 -0.370672 -0.928764
vn 0.000000 -0.370672 -0.928764
vn 0.000000 -0.370672 -0.928764
vn 0.978932 0.204187 0.000000
vn 0.978932 0.204187 0.000000
vn 0.994206 0.107493 0.000000
vn 0.994206 0.107493 0.000000
vn 0.000000 0.204189 0.978932
vn 0.000000 0.204189 0.978932
vn 0.000000 0.107494 0.994206
vn 0.000000 0.107494 0.994206
vn -0.978932 0.204187 0.000000
vn -0.978932 0.204187 0.000000
vn -0.994206 0.107492 0.000000
vn -0.994206 0.107492 0.000000
vn 0.000000 0.204189 -0.978932
vn 0.000000 0.204189 -0.978932
vn 0.000000 0.107494 -0.994206
vn 0.000000 0.107494 -0.994206
vn 1.000000 0.000000 0.000000
vn 1.000000 0.000000 0.000000
vn 0.000000 0.000000 1.000000
vn 0.000000 0.000000 1.000000
vn -1.000000 0.000000 0.000000
vn -1.000000 0.000000 0.000000
vn 0.000000 0.000000 -1.000000
vn 0.000000 0.000000 -1.000000
vn 0.981566 0.191124 0.000000
vn 0.981566 0.191124 0.000000
vn 0.981566 0.191124 0.000000
vn 0.981566 0.191124 0.000000
vn 0.000000 0.191126 0.981566
vn 0.000000 0.191126 0.981566
vn 0.000000 0.191126 0.981566
vn 0.000000 0.191126 0.981566
vn -0.981566 0.191124 0.000000
vn -0.981566 0.191124 0.000000
vn -0.981566 0.191124 0.000000
vn -0.981566 0.191124 0.000000
vn 0.000000 0.191126 -0.981566
vn 0.000000 0.191126 -0.981566
vn 0.000000 0.191126 -0.981566
vn 0.000000 0.191126 -0.981566
vn -0.707107 -0.707107 0.000000
vn -0.707107 -0.707107 0.000000
vn -0.707107 -0.707107 0.000000
vn -0.707107 -0.707107 0.000000
vn 0.000000 -0.707101 0.707113
vn 0.000000 -0.707101 0.707113
vn 0.000000 -0.707101 0.707113
vn 0.000000 -0.707101 0.707113
vn -0.707104 0.000000 0.707110
vn -0.707104 0.000000 0.707110
vn -0.707104 0.000000 0.707110
vn -0.707104 0.000000 0.707110
vn 0.707107 -0.707107 0.000000
vn 0.707107 -0.707107 0.000000
vn 0.707107 -0.707107 0.000000
vn 0.707107 -0.707107 0.000000
vn 0.707104 0.000000 0.707110
vn 0.707104 0.000000 0.707110
vn 0.707104 0.000000 0.707110
vn 0.707104 0.000000 0.707110
vn -0.707107 0.707107 0.000000
vn -0.707107 0.707107 0.000000
vn -0.707107 0.707107 0.000000
vn -0.707107 0.707107 0.000000
vn 0.000000 0.707101 0.707113
vn 0.000000 0.707101 0.707113
vn 0.000000 0.707101 0.707113
vn 0.000000 0.707101 0.707113
vn 0.707107 0.707107 0.000000
vn 0.707107 0.707107 0.000000
vn 0.707107 0.707107 0.000000
vn 0.707107 0.707107 0.000000
vn -0.707100 0.000000 -0.707113
vn -0.707100 0.000000 -0.707113
vn -0.707100 0.000000 -0.707113
vn -0.707100 0.000000 -0.707113
vn 0.000000 0.707093 -0.707120
vn 0.000000 0.707093 -0.707120
vn 0.000000 0.707093 -0.707120
vn 0.000000 0.707093 -0.707120
vn 0.707100 0.000000 -0.707113
vn 0.707100 0.000000 -0.707113
vn 0.707100 0.000000 -0.707113
vn 0.707100 0.000000 -0.707113
vn 0.000000 -0.707093 -0.707120
vn 0.000000 -0.707093 -0.707120
vn 0.000000 -0.707093 -0.707120
vn 0.000000 -0.707093 -0.707120
vn 0.000000 0.000000 1.000000
vn 0.000000 0.000000 1.000000
vn 0.000000 0.000000 1.000000
vn 0.000000 0.000000 1.000000
vn 0.000000 1.000000 0.000000
vn 0.000000 1.000000 0.000000
vn 0.000000 1.000000 0.000000
vn 0.000000 1.000000 0.000000
vn 0.000000 0.000000 -1.000000
vn 0.000000 0.000000 -1.000000
vn 0.000000 0.000000 -1.000000
vn 0.000000 0.000000 -1.000000
vn 0.000000 -1.000000 0.000000
vn 0.000000 -1.000000 0.000000
vn 0.000000 -1.000000 0.000000
vn 0.000000 -1.000000 0.000000
vn 1.000000 0.000000 0.000000
vn 1.000000 0.000000 0.000000
vn 1.000000 0.000000 0.000000
vn 1.000000 0.000000 0.000000
vn -1.000000 0.000000 0.000000
vn -1.000000 0.000000 0.000000
vn -1.000000 0.000000 0.000000
vn -1.000000 0.000000 0.000000
vn -0.577358 -0.577365 0.577328
vn -0.577358 -0.577365 0.577328
vn -0.577358 -0.577365 0.577328
vn 0.577359 -0.577364 0.577328
vn 0.577359 -0.577364 0.577328
vn 0.577359 -0.577364 0.577328
vn -0.577348 0.577355 0.577348
vn -0.577348 0.577355 0.577348
vn -0.577348 0.577355 0.577348
vn 0.577348 0.577354 0.577348
vn 0.577348 0.577354 0.577348
vn 0.577348 0.577354 0.577348
vn -0.577342 0.577352 -0.577357
vn -0.577342 0.577352 -0.577357
vn -0.577342 0.577352 -0.577357
vn 0.577342 0.577352 -0.577357
vn 0.577342 0.577352 -0.577357
vn 0.577342 0.577352 -0.577357
vn -0.577352 -0.577362 -0.577337
vn -0.577352 -0.577362 -0.577337
vn -0.577352 -0.577362 -0.577337
vn 0.577352 -0.577362 -0.577337
vn 0.577352 -0.577362 -0.577337
vn 0.577352 -0.577362 -0.577337
s off
g pCube197
usemtl initialShadingGroup
f 1/74/1 3/148/2 7/149/3 9/200/4
f 2/38/5 1/201/6 20/202/7 19/41/8
f 3/37/9 2/38/10 5/39/11 4/40/12
f 4/150/13 6/90/14 10/151/15 12/152/16
f 6/90/17 5/39/18 24/44/19 23/91/20
f 8/1/21 7/2/22 12/3/23 11/4/24
f 9/78/25 8/79/26 14/6/27 13/199/28
f 11/92/29 10/93/30 18/94/31 17/7/32
f 13/80/33 15/116/34 21/117/35 20/75/36
f 15/5/37 14/6/38 17/7/39 16/8/40
f 16/120/41 18/121/42 23/122/43 22/123/44
f 19/41/45 21/42/46 22/43/47 24/44/48
f 19/41/49 24/44/50 5/39/51 2/38/52
f 4/40/53 12/3/54 7/2/55 3/37/56
f 11/92/57 17/7/58 14/6/59 8/79/60
f 66/47/61 65/48/62 67/49/63 68/50/64
f 18/154/65 10/151/66 6/90/67 23/91/68
f 1/74/69 9/200/70 13/80/71 20/75/72
f 1/201/73 2/38/74 3/76/75
f 4/150/76 5/153/77 6/90/78
f 7/81/79 8/79/80 9/78/81
f 10/151/82 11/155/83 12/152/84
f 13/199/85 14/6/86 15/82/87
f 16/120/88 17/124/89 18/121/90
f 19/41/91 20/202/92 21/77/93
f 22/123/94 23/122/95 24/125/96
s 1
f 16/120/97 22/123/98 25/126/99 26/127/100
s 2
f 22/43/101 21/42/102 27/45/103 25/46/104
s 3
f 21/117/105 15/116/106 28/118/107 27/119/108
s 4
f 15/5/109 16/8/110 26/9/111 28/10/112
s 1
f 26/127/100 25/126/99 29/156/113 30/157/114
s 2
f 25/46/104 27/45/103 31/51/115 29/52/116
s 3
f 27/119/108 28/118/107 32/160/117 31/161/118
s 4
f 28/11/112 26/12/111 30/13/119 32/14/120
s 1
f 30/157/114 29/156/113 33/158/121 34/159/122
s 2
f 29/52/116 31/51/115 35/95/123 33/96/124
s 3
f 31/161/118 32/160/117 36/162/125 35/163/126
s 4
f 32/14/120 30/13/119 34/97/127 36/98/128
s 1
f 34/159/122 33/158/121 37/129/129 38/128/130
s 2
f 33/96/124 35/95/123 39/54/131 37/53/132
s 3
f 35/163/126 36/162/125 40/133/133 39/132/134
s 4
f 36/98/128 34/97/127 38/16/135 40/15/136
s 1
f 38/128/130 37/129/129 41/130/137 42/195/138
s 2
f 37/53/132 39/54/131 43/55/139 41/56/140
s 3
f 39/132/134 40/133/133 44/134/141 43/135/142
s 4
f 40/15/136 38/16/135 42/17/143 44/197/144
s off
f 42/131/145 41/198/146 45/164/147 46/19/148
f 41/56/149 43/55/150 47/57/151 45/58/152
f 43/165/153 44/166/154 48/20/155 47/100/156
f 44/18/157 42/196/158 46/19/159 48/20/160
f 46/19/161 45/164/162 49/136/163 50/185/164
f 45/99/165 47/100/166 51/189/167 49/191/168
f 47/100/169 48/20/170 52/187/171 51/189/172
f 48/20/173 46/19/174 50/185/175 52/187/176
f 50/22/177 49/192/178 53/137/179 54/138/180
f 49/59/181 51/190/182 55/61/183 53/62/184
f 51/60/185 52/188/186 56/139/187 55/140/188
f 52/21/189 50/186/190 54/23/191 56/24/192
s 5
f 54/138/193 53/137/194 57/167/195 58/168/196
s 6
f 53/62/197 55/61/198 59/101/199 57/102/200
s 7
f 55/140/201 56/139/202 60/173/203 59/174/204
s 8
f 56/24/205 54/23/206 58/107/207 60/108/208
s 5
f 58/168/196 57/167/195 61/169/209 62/170/210
s 6
f 57/102/200 59/101/199 63/103/211 61/104/212
s 7
f 59/174/204 60/173/203 64/175/213 63/176/214
s 8
f 60/108/208 58/107/207 62/109/215 64/110/216
s off
f 62/170/217 61/169/218 65/171/219 66/172/220
f 61/104/221 63/103/222 67/105/223 65/106/224
f 63/176/225 64/175/226 68/177/227 67/178/228
f 64/110/229 62/109/230 66/47/231 68/50/232
f 71/141/233 87/89/234 89/33/235 69/63/236
f 69/63/237 74/64/238 73/183/239 70/66/240
f 71/83/241 70/184/242 76/84/243 75/85/244
f 90/143/245 92/144/246 72/145/247 74/146/248
f 73/65/249 72/111/250 80/112/251 79/113/252
f 82/73/253 81/86/254 75/179/255 77/69/256
f 79/67/257 78/68/258 77/69/259 76/70/260
f 86/181/261 85/72/262 78/68/263 80/182/264
f 81/86/265 83/87/266 88/88/267 87/89/268
f 85/25/269 84/26/270 83/27/271 82/28/272
f 84/26/273 86/114/274 92/115/275 91/31/276
f 91/31/277 90/193/278 89/194/279 88/34/280
f 73/65/281 79/113/282 76/84/283 70/184/284
f 85/72/285 82/73/286 77/69/287 78/68/288
f 84/26/289 91/31/290 88/34/291 83/27/292
f 89/33/293 90/32/294 74/64/295 69/63/296
f 92/144/297 86/181/298 80/182/299 72/145/300
f 81/86/301 87/89/302 71/141/303 75/179/304
f 69/63/305 70/142/306 71/141/307
f 72/145/308 73/147/309 74/146/310
f 75/179/311 76/180/312 77/69/313
f 78/68/314 79/67/315 80/71/316
f 81/30/317 82/28/318 83/27/319
f 84/26/320 85/25/321 86/29/322
f 87/36/323 88/34/324 89/194/325
f 90/193/326 91/31/327 92/35/328
