# This file uses centimeters as units for non-parametric coordinates.

mtllib Frasco 3.mtl
g default
v 0.202626 0.746955 -0.147217
v 0.077396 0.746955 -0.238202
v -0.077397 0.746955 -0.238202
v -0.202626 0.746955 -0.147217
v -0.250461 0.746955 0.000000
v -0.202626 0.746955 0.147217
v -0.077397 0.746955 0.238202
v 0.077396 0.746955 0.238202
v 0.202626 0.746955 0.147217
v 0.250460 0.746955 0.000000
v 0.000000 0.000000 0.000000
v 0.221132 0.000000 -0.160661
v 0.084465 0.000000 -0.259955
v -0.084465 0.000000 -0.259955
v -0.221132 0.000000 -0.160661
v -0.273334 0.000000 0.000000
v -0.221132 0.000000 0.160661
v -0.084465 0.000000 0.259956
v 0.084465 0.000000 0.259956
v 0.221132 0.000000 0.160661
v 0.273334 0.000000 0.000000
v 0.221132 0.730721 -0.160661
v 0.084465 0.730721 -0.259955
v -0.084465 0.730721 -0.259955
v -0.221132 0.730721 -0.160661
v -0.273334 0.730721 0.000000
v -0.221132 0.730721 0.160661
v -0.084465 0.730721 0.259956
v 0.084465 0.730721 0.259956
v 0.221132 0.730721 0.160661
v 0.273334 0.730721 0.000000
v 0.235174 0.730872 -0.170865
v 0.235174 0.746804 -0.170865
v 0.089828 0.730872 -0.276464
v 0.089828 0.746804 -0.276464
v -0.089828 0.730872 -0.276464
v -0.089828 0.746804 -0.276464
v -0.235175 0.730872 -0.170865
v -0.235175 0.746804 -0.170865
v -0.290692 0.730872 0.000000
v -0.290692 0.746804 0.000000
v -0.235175 0.730872 0.170864
v -0.235175 0.746804 0.170864
v -0.089828 0.730872 0.276464
v -0.089828 0.746804 0.276464
v 0.089828 0.730872 0.276464
v 0.089828 0.746804 0.276464
v 0.235174 0.730872 0.170864
v 0.235174 0.746804 0.170864
v 0.290691 0.730872 0.000000
v 0.290691 0.746804 0.000000
v 0.202626 0.039674 -0.147217
v 0.077396 0.039674 -0.238202
v -0.077397 0.039674 -0.238202
v -0.202626 0.039674 -0.147217
v -0.250461 0.039674 0.000000
v -0.202626 0.039674 0.147217
v -0.077397 0.039674 0.238202
v 0.077396 0.039674 0.238202
v 0.202626 0.039674 0.147217
v 0.250460 0.039674 0.000000
v 0.000000 0.039674 0.000000
vt 0.345652 0.909476
vt 0.362571 0.909615
vt 0.362342 0.913544
vt 0.345260 0.913367
vt 0.498306 0.909076
vt 0.500078 0.913363
vt 0.481763 0.909550
vt 0.482013 0.913621
vt 0.464836 0.909724
vt 0.464877 0.913713
vt 0.447808 0.909810
vt 0.447775 0.913778
vt 0.395215 0.993605
vt 0.435813 0.033457
vt 0.377845 0.993454
vt 0.345142 0.915012
vt 0.345019 0.916719
vt 0.499805 0.917018
vt 0.327131 0.914736
vt 0.362284 0.915203
vt 0.362227 0.916869
vt 0.482247 0.917035
vt 0.482120 0.915302
vt 0.464997 0.917110
vt 0.464926 0.915392
vt 0.447841 0.917161
vt 0.447796 0.915451
vt 0.967996 0.191204
vt 0.951297 0.170910
vt 0.966415 0.164970
vt 0.982137 0.169051
vt 0.984695 0.211498
vt 0.969578 0.217437
vt 0.943535 0.200814
vt 0.942558 0.184601
vt 0.342871 0.993144
vt 0.499761 0.995117
vt 0.360410 0.993300
vt 0.482136 0.994634
vt 0.464645 0.994309
vt 0.447239 0.994086
vt 0.429884 0.993911
vt 0.412552 0.993756
vt 0.430751 0.909846
vt 0.430678 0.913803
vt 0.413687 0.909844
vt 0.413585 0.913794
vt 0.396627 0.909806
vt 0.396496 0.913751
vt 0.379580 0.909728
vt 0.379411 0.913669
vt 0.430714 0.917179
vt 0.430685 0.915473
vt 0.413598 0.917165
vt 0.413580 0.915461
vt 0.396484 0.917118
vt 0.396479 0.915416
vt 0.379367 0.917032
vt 0.379379 0.915332
vt 0.992457 0.181593
vt 0.993435 0.197806
vt 0.953856 0.213357
vt 0.330692 0.835530
vt 0.329071 0.909126
vt 0.327516 0.916485
vt 0.500229 0.915155
vt 0.433243 0.062022
vt 0.327290 0.913031
vt 0.346977 0.835638
vt 0.363348 0.835703
vt 0.379784 0.835727
vt 0.396262 0.835700
vt 0.412758 0.835617
vt 0.429250 0.835468
vt 0.445714 0.835239
vt 0.462128 0.834903
vt 0.478472 0.834417
vt 0.494761 0.833820
vt 0.966415 0.164970
vt 0.416943 0.055056
vt 0.407851 0.039840
vt 0.409439 0.022185
vt 0.421101 0.008835
vt 0.438383 0.004890
vt 0.454683 0.011857
vt 0.463775 0.027073
vt 0.462186 0.044728
vt 0.450524 0.058077
vt 0.433243 0.062022
vt 0.325191 0.992992
vn 0.587781 0.000000 -0.809020
vn 0.587781 0.000000 -0.809020
vn 0.587781 0.000000 -0.809020
vn 0.587781 0.000000 -0.809020
vn 0.309015 0.000000 -0.951057
vn 0.309015 0.000000 -0.951057
vn -0.309016 0.000000 -0.951057
vn -0.309016 0.000000 -0.951057
vn -0.309016 0.000000 -0.951057
vn -0.309016 0.000000 -0.951057
vn -0.809017 0.000000 -0.587785
vn -0.809017 0.000000 -0.587785
vn -0.809017 0.000000 -0.587785
vn -0.809017 0.000000 -0.587785
vn -1.000000 0.000000 0.000000
vn -1.000000 0.000000 0.000000
vn -1.000000 0.000000 0.000000
vn -1.000000 0.000000 0.000000
vn -0.809016 0.000000 0.587786
vn -0.809016 0.000000 0.587786
vn -0.809016 0.000000 0.587786
vn -0.809016 0.000000 0.587786
vn -0.309016 0.000000 0.951057
vn -0.309016 0.000000 0.951057
vn -0.309016 0.000000 0.951057
vn -0.309016 0.000000 0.951057
vn 0.309017 0.000000 0.951056
vn 0.309017 0.000000 0.951056
vn 0.309017 0.000000 0.951056
vn 0.309017 0.000000 0.951056
vn 0.809017 0.000000 0.587786
vn 0.809017 0.000000 0.587786
vn 0.809017 0.000000 0.587786
vn 0.809017 0.000000 0.587786
vn 1.000000 0.000000 0.000002
vn 1.000000 0.000000 0.000002
vn 0.809017 0.000000 -0.587785
vn 1.000000 0.000000 0.000002
vn 1.000000 0.000000 0.000002
vn 0.809017 0.000000 -0.587785
vn 0.003037 0.999993 -0.002206
vn 0.003754 0.999993 0.000000
vn 0.003754 0.999993 0.000000
vn 0.003037 0.999993 -0.002206
vn 0.000002 -1.000000 -0.000002
vn 0.000000 -1.000000 0.000000
vn 0.000001 -1.000000 -0.000003
vn 0.001160 0.999993 -0.003570
vn 0.003037 0.999993 -0.002206
vn 0.003037 0.999993 -0.002206
vn 0.001160 0.999993 -0.003570
vn 0.000001 -1.000000 -0.000003
vn 0.000000 -1.000000 0.000000
vn -0.000001 -1.000000 -0.000003
vn -0.001160 0.999993 -0.003570
vn 0.001160 0.999993 -0.003570
vn 0.001160 0.999993 -0.003570
vn -0.001160 0.999993 -0.003570
vn -0.000001 -1.000000 -0.000003
vn 0.000000 -1.000000 0.000000
vn -0.000002 -1.000000 -0.000001
vn -0.003037 0.999993 -0.002207
vn -0.001160 0.999993 -0.003570
vn -0.001160 0.999993 -0.003570
vn -0.003037 0.999993 -0.002207
vn -0.000002 -1.000000 -0.000001
vn 0.000000 -1.000000 0.000000
vn -0.000003 -1.000000 0.000000
vn -0.003754 0.999993 0.000000
vn -0.003037 0.999993 -0.002207
vn -0.003037 0.999993 -0.002207
vn -0.003754 0.999993 0.000000
vn -0.000003 -1.000000 0.000000
vn 0.000000 -1.000000 0.000000
vn -0.000002 -1.000000 0.000001
vn -0.003037 0.999993 0.002206
vn -0.003754 0.999993 0.000000
vn -0.003754 0.999993 0.000000
vn -0.003037 0.999993 0.002206
vn -0.000002 -1.000000 0.000001
vn 0.000000 -1.000000 0.000000
vn -0.000001 -1.000000 0.000003
vn -0.001160 0.999993 0.003570
vn -0.003037 0.999993 0.002206
vn -0.003037 0.999993 0.002206
vn -0.001160 0.999993 0.003570
vn -0.000001 -1.000000 0.000003
vn 0.000000 -1.000000 0.000000
vn 0.000001 -1.000000 0.000003
vn 0.001160 0.999993 0.003570
vn -0.001160 0.999993 0.003570
vn -0.001160 0.999993 0.003570
vn 0.001160 0.999993 0.003570
vn 0.000001 -1.000000 0.000003
vn 0.000000 -1.000000 0.000000
vn 0.000002 -1.000000 0.000001
vn 0.003037 0.999993 0.002207
vn 0.001160 0.999993 0.003570
vn 0.001160 0.999993 0.003570
vn 0.003037 0.999993 0.002207
vn 0.000002 -1.000000 0.000001
vn 0.000000 -1.000000 0.000000
vn 0.000003 -1.000000 0.000000
vn 0.003754 0.999993 0.000000
vn 0.003037 0.999993 0.002207
vn 0.003037 0.999993 0.002207
vn 0.003754 0.999993 0.000000
vn 0.000002 -1.000000 -0.000002
vn 0.000003 -1.000000 0.000000
vn 0.000000 -1.000000 0.000000
vn 0.309017 0.000000 -0.951057
vn 0.809017 0.000000 -0.587786
vn 0.809017 0.000000 -0.587786
vn 0.309017 0.000000 -0.951057
vn -0.309016 0.000000 -0.951057
vn 0.309017 0.000000 -0.951057
vn 0.309017 0.000000 -0.951057
vn -0.309016 0.000000 -0.951057
vn -0.809017 0.000000 -0.587785
vn -0.309016 0.000000 -0.951057
vn -0.309016 0.000000 -0.951057
vn -0.809017 0.000000 -0.587785
vn -1.000000 0.000000 0.000000
vn -0.809017 0.000000 -0.587785
vn -0.809017 0.000000 -0.587785
vn -1.000000 0.000000 0.000000
vn -0.809017 0.000000 0.587785
vn -1.000000 0.000000 0.000000
vn -1.000000 0.000000 0.000000
vn -0.809017 0.000000 0.587785
vn -0.309018 0.000000 0.951056
vn -0.809017 0.000000 0.587785
vn -0.809017 0.000000 0.587785
vn -0.309018 0.000000 0.951056
vn 0.309020 0.000000 0.951056
vn -0.309018 0.000000 0.951056
vn -0.309018 0.000000 0.951056
vn 0.309020 0.000000 0.951056
vn 0.809017 0.000000 0.587785
vn 0.309020 0.000000 0.951056
vn 0.309020 0.000000 0.951056
vn 0.809017 0.000000 0.587785
vn 1.000000 0.000000 0.000001
vn 0.809017 0.000000 0.587785
vn 0.809017 0.000000 0.587785
vn 1.000000 0.000000 0.000001
vn 0.809017 0.000000 -0.587786
vn 0.809017 0.000000 -0.587786
vn 1.000000 0.000000 0.000001
vn 1.000000 0.000000 0.000001
vn 0.007038 -0.999962 -0.005113
vn 0.007038 -0.999962 -0.005113
vn 0.002688 -0.999962 -0.008273
vn 0.002688 -0.999962 -0.008273
vn 0.002688 -0.999962 -0.008273
vn 0.002688 -0.999962 -0.008273
vn -0.002688 -0.999962 -0.008273
vn -0.002688 -0.999962 -0.008273
vn -0.002688 -0.999962 -0.008273
vn -0.002688 -0.999962 -0.008273
vn -0.007038 -0.999962 -0.005113
vn -0.007038 -0.999962 -0.005113
vn -0.007038 -0.999962 -0.005113
vn -0.007038 -0.999962 -0.005113
vn -0.008700 -0.999962 0.000000
vn -0.008700 -0.999962 0.000000
vn -0.008700 -0.999962 0.000000
vn -0.008700 -0.999962 0.000000
vn -0.007038 -0.999962 0.005113
vn -0.007038 -0.999962 0.005113
vn -0.007038 -0.999962 0.005113
vn -0.007038 -0.999962 0.005113
vn -0.002688 -0.999962 0.008273
vn -0.002688 -0.999962 0.008273
vn -0.002688 -0.999962 0.008273
vn -0.002688 -0.999962 0.008273
vn 0.002688 -0.999962 0.008274
vn 0.002688 -0.999962 0.008274
vn 0.002688 -0.999962 0.008274
vn 0.002688 -0.999962 0.008274
vn 0.007038 -0.999962 0.005114
vn 0.007038 -0.999962 0.005114
vn 0.007038 -0.999962 0.005114
vn 0.007038 -0.999962 0.005114
vn 0.008700 -0.999962 0.000000
vn 0.008700 -0.999962 0.000000
vn 0.007038 -0.999962 -0.005113
vn 0.008700 -0.999962 0.000000
vn 0.008700 -0.999962 0.000000
vn 0.007038 -0.999962 -0.005113
vn -0.809017 0.000000 0.587786
vn -0.809017 0.000000 0.587786
vn -0.309016 0.000000 0.951057
vn -0.309016 0.000000 0.951057
vn -0.309016 0.000000 0.951057
vn -0.309016 0.000000 0.951057
vn 0.309016 0.000000 0.951057
vn 0.309016 0.000000 0.951057
vn 0.309016 0.000000 0.951057
vn 0.309016 0.000000 0.951057
vn 0.809017 0.000000 0.587785
vn 0.809017 0.000000 0.587785
vn 0.809017 0.000000 0.587785
vn 0.809017 0.000000 0.587785
vn 1.000000 0.000000 0.000000
vn 1.000000 0.000000 0.000000
vn 1.000000 0.000000 0.000000
vn 1.000000 0.000000 0.000000
vn 0.809017 0.000000 -0.587785
vn 0.809017 0.000000 -0.587785
vn 0.809017 0.000000 -0.587785
vn 0.809017 0.000000 -0.587785
vn 0.309018 0.000000 -0.951056
vn 0.309018 0.000000 -0.951056
vn 0.309018 0.000000 -0.951056
vn 0.309018 0.000000 -0.951056
vn -0.309017 0.000000 -0.951056
vn -0.309017 0.000000 -0.951056
vn -0.309017 0.000000 -0.951056
vn -0.309017 0.000000 -0.951056
vn -0.809016 0.000000 -0.587787
vn -0.809016 0.000000 -0.587787
vn -0.809016 0.000000 -0.587787
vn -0.809016 0.000000 -0.587787
vn -1.000000 0.000000 -0.000001
vn -1.000000 0.000000 -0.000001
vn -1.000000 0.000000 -0.000001
vn -1.000000 0.000000 -0.000001
vn -0.809017 0.000000 0.587786
vn -0.809017 0.000000 0.587786
vn 0.000000 1.000000 0.000000
vn 0.000000 1.000000 0.000000
vn 0.000000 1.000000 0.000000
vn 0.000000 1.000000 0.000000
vn 0.000000 1.000000 0.000000
vn 0.000000 1.000000 0.000000
vn 0.000000 1.000000 0.000000
vn 0.000000 1.000000 0.000000
vn 0.000000 1.000000 0.000000
vn 0.000000 1.000000 0.000000
vn 0.000000 1.000000 0.000000
vn 0.000000 1.000000 0.000000
vn 0.000000 1.000000 0.000000
vn 0.000000 1.000000 0.000000
vn 0.000000 1.000000 0.000000
vn 0.000000 1.000000 0.000000
vn 0.000000 1.000000 0.000000
vn 0.000000 1.000000 0.000000
vn 0.000000 1.000000 0.000000
vn 0.000000 1.000000 0.000000
vn 0.000000 1.000000 0.000000
vn 0.000000 1.000000 0.000000
vn 0.000000 1.000000 0.000000
vn 0.000000 1.000000 0.000000
vn 0.000000 1.000000 0.000000
vn 0.000000 1.000000 0.000000
vn 0.000000 1.000000 0.000000
vn 0.000000 1.000000 0.000000
vn 0.000000 1.000000 0.000000
vn 0.000000 1.000000 0.000000
s off
g Mesa_lab2_pCylinder87
usemtl initialShadingGroup
f 33/4/1 32/16/2 34/19/3 35/68/4
f 35/6/5 34/66/6 36/23/7 37/8/8
f 37/8/9 36/23/10 38/25/11 39/10/12
f 39/10/13 38/25/14 40/27/15 41/12/16
f 41/12/17 40/27/18 42/53/19 43/45/20
f 43/45/21 42/53/22 44/55/23 45/47/24
f 45/47/25 44/55/26 46/57/27 47/49/28
f 47/49/29 46/57/30 48/59/31 49/51/32
f 49/51/33 48/59/34 50/20/35 51/3/36
f 33/4/37 51/3/38 50/20/39 32/16/40
f 1/1/41 10/2/42 51/3/43 33/4/44
f 12/80/45 11/14/46 13/67/47
f 2/64/48 1/1/49 33/4/50 35/68/51
f 13/89/52 11/14/53 14/88/54
f 3/7/55 2/5/56 35/6/57 37/8/58
f 14/88/59 11/14/60 15/87/61
f 4/9/62 3/7/63 37/8/64 39/10/65
f 15/87/66 11/14/67 16/86/68
f 5/11/69 4/9/70 39/10/71 41/12/72
f 16/86/73 11/14/74 17/85/75
f 6/44/76 5/11/77 41/12/78 43/45/79
f 17/85/80 11/14/81 18/84/82
f 7/46/83 6/44/84 43/45/85 45/47/86
f 18/84/87 11/14/88 19/83/89
f 8/48/90 7/46/91 45/47/92 47/49/93
f 19/83/94 11/14/95 20/82/96
f 9/50/97 8/48/98 47/49/99 49/51/100
f 20/82/101 11/14/102 21/81/103
f 10/2/104 9/50/105 49/51/106 51/3/107
f 12/80/108 21/81/109 11/14/110
f 23/65/111 22/17/112 12/36/113 13/90/114
f 24/22/115 23/18/116 13/37/117 14/39/118
f 25/24/119 24/22/120 14/39/121 15/40/122
f 26/26/123 25/24/124 15/40/125 16/41/126
f 27/52/127 26/26/128 16/41/129 17/42/130
f 28/54/131 27/52/132 17/42/133 18/43/134
f 29/56/135 28/54/136 18/43/137 19/13/138
f 30/58/139 29/56/140 19/13/141 20/15/142
f 31/21/143 30/58/144 20/15/145 21/38/146
f 12/36/147 22/17/148 31/21/149 21/38/150
f 32/16/151 22/17/152 23/65/153 34/19/154
f 34/66/155 23/18/156 24/22/157 36/23/158
f 36/23/159 24/22/160 25/24/161 38/25/162
f 38/25/163 25/24/164 26/26/165 40/27/166
f 40/27/167 26/26/168 27/52/169 42/53/170
f 42/53/171 27/52/172 28/54/173 44/55/174
f 44/55/175 28/54/176 29/56/177 46/57/178
f 46/57/179 29/56/180 30/58/181 48/59/182
f 48/59/183 30/58/184 31/21/185 50/20/186
f 32/16/187 50/20/188 31/21/189 22/17/190
f 52/69/191 1/1/192 2/64/193 53/63/194
f 53/78/195 2/5/196 3/7/197 54/77/198
f 54/77/199 3/7/200 4/9/201 55/76/202
f 55/76/203 4/9/204 5/11/205 56/75/206
f 56/75/207 5/11/208 6/44/209 57/74/210
f 57/74/211 6/44/212 7/46/213 58/73/214
f 58/73/215 7/46/216 8/48/217 59/72/218
f 59/72/219 8/48/220 9/50/221 60/71/222
f 60/71/223 9/50/224 10/2/225 61/70/226
f 61/70/227 10/2/228 1/1/229 52/69/230
f 62/28/231 52/29/232 53/79/233
f 62/28/234 53/30/235 54/31/236
f 62/28/237 54/31/238 55/60/239
f 62/28/240 55/60/241 56/61/242
f 62/28/243 56/61/244 57/32/245
f 62/28/246 57/32/247 58/33/248
f 62/28/249 58/33/250 59/62/251
f 62/28/252 59/62/253 60/34/254
f 62/28/255 60/34/256 61/35/257
f 62/28/258 61/35/259 52/29/260
