# This file uses centimeters as units for non-parametric coordinates.

mtllib caja_tapa.mtl
g default
v -0.259226 -0.028656 0.201635
v 0.197453 -0.028656 -0.256847
v 0.259525 -0.028656 -0.195019
v -0.197154 -0.028656 0.263463
v -0.255531 -0.002576 0.205315
v -0.259226 -0.007792 0.201635
v 0.197453 -0.007792 -0.256847
v 0.201148 -0.002576 -0.253167
v 0.255830 -0.002576 -0.198699
v 0.259525 -0.007792 -0.195019
v -0.197154 -0.007792 0.263463
v -0.200849 -0.002576 0.259782
v 0.269069 0.003268 0.265801
v 0.265801 0.003268 0.269069
v -0.265801 0.003268 0.269069
v -0.269069 0.003268 0.265801
v 0.265801 0.003268 -0.269068
v 0.269069 0.003268 -0.265801
v -0.269069 0.003268 -0.265801
v -0.265801 0.003268 -0.269068
v 0.217869 0.000066 -0.214667
v 0.221169 0.003268 -0.217869
v 0.217869 0.003268 -0.221200
v 0.214668 0.000066 -0.217869
v -0.214667 0.000066 -0.217869
v -0.217869 0.003268 -0.221169
v -0.221200 0.003268 -0.217869
v -0.217869 0.000066 -0.214667
v -0.217869 0.000066 0.214668
v -0.221169 0.003268 0.217869
v -0.217869 0.003268 0.221200
v -0.214667 0.000066 0.217869
v 0.214668 0.000066 0.217869
v 0.217869 0.003268 0.221169
v 0.221200 0.003268 0.217869
v 0.217869 0.000066 0.214668
v 0.217869 -0.015252 -0.214602
v 0.214602 -0.015252 -0.217869
v 0.214602 -0.018519 -0.214602
v -0.214601 -0.018519 -0.214602
v -0.214601 -0.015252 -0.217869
v -0.217869 -0.015252 -0.214602
v -0.214601 -0.018519 0.214601
v -0.217869 -0.015252 0.214601
v -0.214601 -0.015252 0.217869
v 0.214602 -0.018519 0.214601
v 0.214602 -0.015252 0.217869
v 0.217869 -0.015252 0.214601
v 0.269069 -0.035264 -0.265801
v 0.269069 -0.035264 0.265801
v 0.265801 -0.035264 0.269069
v -0.265801 -0.035264 0.269069
v -0.269069 -0.035264 0.265801
v -0.269069 -0.035264 -0.265801
v -0.265801 -0.035264 -0.269068
v 0.265801 -0.035264 -0.269068
vt 0.802247 0.799687
vt 0.802247 0.633659
vt 0.808170 0.633684
vt 0.808170 0.799661
vt 0.801009 0.800925
vt 0.801009 0.632421
vt 0.802247 0.632421
vt 0.808170 0.632421
vt 0.809434 0.799661
vt 0.809434 0.633684
vt 0.802247 0.800925
vt 0.808170 0.800925
vt 0.816808 0.799687
vt 0.816808 0.633659
vt 0.822731 0.633685
vt 0.822731 0.799662
vt 0.815569 0.632421
vt 0.815569 0.800925
vt 0.816808 0.632421
vt 0.822731 0.632421
vt 0.823994 0.633685
vt 0.823994 0.799662
vt 0.816808 0.800925
vt 0.822731 0.800925
vt 0.184759 0.217972
vt 0.361361 0.395271
vt 0.340215 0.416334
vt 0.163613 0.239035
vt 0.362790 0.393848
vt 0.186188 0.216549
vt 0.162184 0.240458
vt 0.338786 0.417758
vt 0.221733 0.211294
vt 0.220470 0.210030
vt 0.238981 0.191494
vt 0.240269 0.192770
vt 0.220470 0.004454
vt 0.238993 0.022990
vt 0.241507 0.191494
vt 0.240269 0.190256
vt 0.427309 0.211294
vt 0.408773 0.192783
vt 0.221733 0.003191
vt 0.240269 0.021702
vt 0.407535 0.191494
vt 0.428573 0.210030
vt 0.410049 0.191494
vt 0.427309 0.003191
vt 0.408773 0.021714
vt 0.240269 0.024228
vt 0.241507 0.022990
vt 0.408773 0.190256
vt 0.428573 0.004454
vt 0.410061 0.022990
vt 0.407535 0.022990
vt 0.408773 0.024228
vt 0.408550 0.635107
vt 0.574527 0.635107
vt 0.574527 0.801084
vt 0.408550 0.801084
vt 0.408550 0.633843
vt 0.574527 0.633843
vt 0.574527 0.802348
vt 0.408550 0.802348
vt 0.023094 0.792977
vt 0.023094 0.626949
vt 0.029017 0.626975
vt 0.029017 0.792952
vt 0.016959 0.626949
vt 0.016959 0.792976
vt 0.011035 0.792951
vt 0.011035 0.626974
vt 0.902876 0.605943
vt 0.894807 0.605943
vt 0.894807 0.428644
vt 0.902876 0.428644
vt 0.918467 0.605943
vt 0.910399 0.605943
vt 0.910399 0.428644
vt 0.918467 0.428644
vt 0.000000 0.000000
vt 1.000000 0.000000
vt 1.000000 1.000000
vt 0.000000 1.000000
vt 0.000000 0.000000
vt 1.000000 0.000000
vt 1.000000 1.000000
vt 0.000000 1.000000
vt 0.000000 0.000000
vt 1.000000 0.000000
vt 1.000000 1.000000
vt 0.000000 1.000000
vt 0.000000 0.000000
vt 1.000000 0.000000
vt 1.000000 1.000000
vt 0.000000 1.000000
vt 0.000000 0.000000
vt 1.000000 0.000000
vt 1.000000 1.000000
vt 0.000000 1.000000
vt 0.000000 0.000000
vt 1.000000 0.000000
vt 1.000000 1.000000
vt 0.000000 1.000000
vt 0.000000 0.000000
vt 1.000000 0.000000
vt 1.000000 1.000000
vt 0.000000 1.000000
vt 0.000000 0.000000
vt 1.000000 0.000000
vt 1.000000 1.000000
vt 0.000000 1.000000
vn -0.708499 0.000000 -0.705712
vn -0.708499 0.000000 -0.705712
vn -0.708499 0.000000 -0.705712
vn -0.708499 0.000000 -0.705712
vn 0.708498 -0.000000 0.705713
vn 0.708498 -0.000000 0.705713
vn 0.708498 -0.000000 0.705713
vn 0.708498 -0.000000 0.705713
vn 0.000000 1.000000 0.000000
vn 0.000000 1.000000 0.000000
vn 0.000000 1.000000 0.000000
vn 0.000000 1.000000 0.000000
vn -0.500996 0.707091 -0.499024
vn -0.500996 0.707091 -0.499024
vn -0.500996 0.707091 -0.499024
vn -0.500996 0.707091 -0.499024
vn 0.500990 0.707098 0.499021
vn 0.500990 0.707098 0.499021
vn 0.500990 0.707098 0.499021
vn 0.500990 0.707098 0.499021
vn 0.000000 1.000000 0.000000
vn 0.000000 1.000000 0.000000
vn 0.000000 1.000000 0.000000
vn 0.000000 1.000000 0.000000
vn 0.000000 1.000000 0.000000
vn 0.000000 1.000000 0.000000
vn 0.000000 1.000000 0.000000
vn 0.000000 1.000000 0.000000
vn 0.000000 1.000000 0.000000
vn 0.000000 1.000000 0.000000
vn 0.000000 1.000000 0.000000
vn 0.000000 1.000000 0.000000
vn 0.000000 1.000000 0.000000
vn 0.000000 1.000000 0.000000
vn 0.000000 1.000000 0.000000
vn 0.000000 1.000000 0.000000
vn -0.707166 0.003042 0.707041
vn -0.707166 0.003042 0.707041
vn -0.707166 0.003042 0.707041
vn -0.707166 0.003042 0.707041
vn -0.690494 0.723290 0.008346
vn -0.692801 0.721119 0.003786
vn -0.692784 0.721135 -0.003768
vn -0.690514 0.723272 -0.008256
vn -0.003770 0.721093 0.692828
vn -0.008257 0.723231 0.690557
vn 0.008347 0.723249 0.690537
vn 0.003787 0.721078 0.692844
vn 0.707117 0.003044 0.707090
vn 0.707117 0.003044 0.707090
vn 0.707117 0.003044 0.707090
vn 0.707117 0.003044 0.707090
vn 0.692820 0.721101 0.003768
vn 0.690548 0.723239 0.008258
vn 0.690529 0.723257 -0.008346
vn 0.692836 0.721086 -0.003787
vn 0.707054 0.003056 -0.707153
vn 0.707054 0.003056 -0.707153
vn 0.707054 0.003056 -0.707153
vn 0.707054 0.003056 -0.707153
vn 0.003768 0.721147 -0.692772
vn 0.008256 0.723283 -0.690502
vn -0.008344 0.723301 -0.690483
vn -0.003787 0.721131 -0.692788
vn -0.707103 0.003060 -0.707104
vn -0.707103 0.003060 -0.707104
vn -0.707103 0.003060 -0.707104
vn -0.707103 0.003060 -0.707104
vn -0.707120 0.707093 0.000000
vn -0.707120 0.707093 0.000000
vn -0.707120 0.707093 0.000000
vn -0.707120 0.707093 0.000000
vn 0.000000 0.707116 0.707097
vn 0.000000 0.707116 0.707097
vn 0.000000 0.707116 0.707097
vn 0.000000 0.707116 0.707097
vn 0.707085 0.707129 0.000000
vn 0.707085 0.707129 0.000000
vn 0.707085 0.707129 0.000000
vn 0.707085 0.707129 0.000000
vn 0.000000 0.707116 -0.707097
vn 0.000000 0.707116 -0.707097
vn 0.000000 0.707116 -0.707097
vn 0.000000 0.707116 -0.707097
vn 0.000000 1.000000 0.000000
vn 0.000000 1.000000 0.000000
vn 0.000000 1.000000 0.000000
vn 0.000000 1.000000 0.000000
vn 0.000000 0.000000 1.000000
vn 0.000000 0.000000 1.000000
vn 0.000000 0.000000 1.000000
vn 0.000000 0.000000 1.000000
vn 1.000000 -0.000006 0.000000
vn 1.000000 -0.000006 0.000000
vn 1.000000 -0.000006 0.000000
vn 1.000000 -0.000006 0.000000
vn -0.000000 0.000000 -1.000000
vn -0.000000 0.000000 -1.000000
vn -0.000000 0.000000 -1.000000
vn -0.000000 0.000000 -1.000000
vn -1.000000 -0.000003 0.000000
vn -1.000000 -0.000003 0.000000
vn -1.000000 -0.000003 0.000000
vn -1.000000 -0.000003 0.000000
vn 0.577343 0.577343 0.577365
vn 0.577343 0.577343 0.577365
vn 0.577343 0.577343 0.577365
vn 0.577343 0.577343 -0.577365
vn 0.577343 0.577343 -0.577365
vn 0.577343 0.577343 -0.577365
vn -0.577385 0.577325 -0.577340
vn -0.577385 0.577325 -0.577340
vn -0.577385 0.577325 -0.577340
vn 1.000000 -0.000000 0.000000
vn 1.000000 -0.000000 0.000000
vn 1.000000 -0.000000 0.000000
vn 1.000000 -0.000000 0.000000
vn 0.707126 -0.000000 0.707088
vn 0.707126 -0.000000 0.707088
vn 0.707126 -0.000000 0.707088
vn 0.707126 -0.000000 0.707088
vn 0.000000 0.000000 1.000000
vn 0.000000 0.000000 1.000000
vn 0.000000 0.000000 1.000000
vn 0.000000 0.000000 1.000000
vn -0.707098 0.000000 0.707116
vn -0.707098 0.000000 0.707116
vn -0.707098 0.000000 0.707116
vn -0.707098 0.000000 0.707116
vn -1.000000 0.000000 0.000000
vn -1.000000 0.000000 0.000000
vn -1.000000 0.000000 0.000000
vn -1.000000 0.000000 0.000000
vn -0.000000 0.000000 -1.000000
vn -0.000000 0.000000 -1.000000
vn -0.000000 0.000000 -1.000000
vn -0.000000 0.000000 -1.000000
vn 0.707076 -0.000000 -0.707137
vn 0.707076 -0.000000 -0.707137
vn 0.707076 -0.000000 -0.707137
vn 0.707076 -0.000000 -0.707137
vn -0.707048 0.000000 -0.707165
vn -0.707048 0.000000 -0.707165
vn -0.707048 0.000000 -0.707165
vn -0.707048 0.000000 -0.707165
vn -0.000000 -1.000000 0.000000
vn -0.000000 -1.000000 0.000000
vn -0.000000 -1.000000 0.000000
vn -0.000000 -1.000000 0.000000
vn -0.000000 -1.000000 0.000000
vn -0.000000 -1.000000 0.000000
vn -0.000000 -1.000000 0.000000
vn -0.000000 -1.000000 0.000000
s off
g pCube151 group29
usemtl t12:initialShadingGroup
f 1/73/1 6/74/2 7/75/3 2/76/4
f 3/77/5 10/78/6 11/79/7 4/80/8
f 8/25/9 5/26/10 12/27/11 9/28/12
f 6/29/13 5/26/14 8/25/15 7/30/16
f 10/31/17 9/28/18 12/27/19 11/32/20
s 1
f 14/33/21 13/34/22 35/35/23 34/36/24
f 16/46/25 15/41/26 31/42/27 30/47/28
f 18/37/29 17/43/30 23/44/31 22/38/32
f 20/48/33 19/53/34 27/54/35 26/49/36
s off
f 21/14/37 24/19/38 38/20/39 37/15/40
s 3
f 22/17/41 21/14/42 36/13/43 35/18/44
f 24/51/45 23/44/46 26/49/47 25/55/48
s off
f 25/11/49 28/1/50 42/4/51 41/12/52
s 3
f 28/1/53 27/5/54 30/6/55 29/2/56
s off
f 29/2/57 32/7/58 45/8/59 44/3/60
s 3
f 32/45/61 31/42/62 34/36/63 33/39/64
s off
f 33/23/65 36/13/66 48/16/67 47/24/68
f 37/15/69 39/21/70 46/22/71 48/16/72
f 39/57/73 38/61/74 41/62/75 40/58/76
f 40/9/77 42/4/78 44/3/79 43/10/80
f 43/59/81 45/63/82 47/64/83 46/60/84
f 39/57/85 40/58/86 43/59/87 46/60/88
s 1
f 17/43/30 20/48/33 26/49/36 23/44/31
f 19/53/34 16/46/25 30/47/28 27/54/35
f 15/41/26 14/33/21 34/36/24 31/42/27
f 13/34/22 18/37/29 22/38/32 35/35/23
s off
f 24/65/89 25/66/90 41/67/91 38/68/92
f 28/1/93 29/2/94 44/3/95 42/4/96
f 32/69/97 33/70/98 47/71/99 45/72/100
f 36/13/101 21/14/102 37/15/103 48/16/104
s 3
f 21/50/42 22/38/41 23/44/46 24/51/45
f 25/55/48 26/49/47 27/54/54 28/56/53
f 29/52/56 30/47/55 31/42/62 32/45/61
f 33/39/64 34/36/63 35/35/44 36/40/43
s off
f 40/9/105 41/12/106 42/4/107
f 43/10/108 44/3/109 45/8/110
f 46/22/111 47/24/112 48/16/113
f 18/81/114 13/82/115 50/83/116 49/84/117
f 13/85/118 14/86/119 51/87/120 50/88/121
f 14/89/122 15/90/123 52/91/124 51/92/125
f 15/93/126 16/94/127 53/95/128 52/96/129
f 16/97/130 19/98/131 54/99/132 53/100/133
f 20/101/134 17/102/135 56/103/136 55/104/137
f 17/105/138 18/106/139 49/107/140 56/108/141
f 19/109/142 20/110/143 55/111/144 54/112/145
f 50/88/146 51/92/147 52/96/148 53/100/149 54/112/150 55/104/151 56/108/152 49/84/153
