# This file uses centimeters as units for non-parametric coordinates.

mtllib cajasSeparado.mtl
g default
v 1.427201 0.017334 -0.089753
v 1.409867 0.017334 -0.072419
v -1.409867 0.017334 -0.072419
v -1.427201 0.017334 -0.089753
v 1.409867 0.017334 -2.926816
v 1.427201 0.017334 -2.909487
v -1.427201 0.017334 -2.909487
v -1.409867 0.017334 -2.926816
v 1.155625 0.000350 -2.638261
v 1.173129 0.017334 -2.655245
v 1.155625 0.017334 -2.672914
v 1.138647 0.000350 -2.655245
v -1.138641 0.000350 -2.655245
v -1.155625 0.017334 -2.672749
v -1.173294 0.017334 -2.655245
v -1.155625 0.000350 -2.638261
v -1.155625 0.000350 -0.360973
v -1.173129 0.017334 -0.343995
v -1.155625 0.017334 -0.326326
v -1.138641 0.000350 -0.343995
v 1.138647 0.000350 -0.343995
v 1.155625 0.017334 -0.326491
v 1.173294 0.017334 -0.343995
v 1.155625 0.000350 -0.360973
v 1.155625 -0.080900 -2.637916
v 1.138296 -0.080900 -2.655245
v 1.138296 -0.098229 -2.637916
v -1.138291 -0.098229 -2.637916
v -1.138291 -0.080900 -2.655245
v -1.155625 -0.080900 -2.637916
v -1.138291 -0.098229 -0.361329
v -1.155625 -0.080900 -0.361329
v -1.138291 -0.080900 -0.343995
v 1.138296 -0.098229 -0.361329
v 1.138296 -0.080900 -0.343995
v 1.155625 -0.080900 -0.361329
v 1.427201 -0.187048 -2.909487
v 1.427201 -0.187048 -0.089753
v 1.409867 -0.187048 -0.072419
v -1.409867 -0.187048 -0.072419
v -1.427201 -0.187048 -0.089753
v -1.427201 -0.187048 -2.909487
v -1.409867 -0.187048 -2.926816
v 1.409867 -0.187048 -2.926816
vt 0.000000 0.001942
vt 0.001942 0.000000
vt 0.030429 0.028450
vt 0.028468 0.030430
vt 0.001942 0.319829
vt 0.000000 0.317887
vt 0.028450 0.289400
vt 0.030429 0.291361
vt 0.317887 0.000000
vt 0.319828 0.001942
vt 0.291379 0.030430
vt 0.289400 0.028468
vt 0.319828 0.317887
vt 0.317887 0.319829
vt 0.289400 0.291380
vt 0.291361 0.289400
vt 0.901992 0.820672
vt 0.901992 0.822688
vt 0.892350 0.822688
vt 0.892350 0.820631
vt 0.904008 0.822688
vt 0.901992 0.550433
vt 0.904008 0.548418
vt 0.289400 0.032332
vt 0.289400 0.287497
vt 0.691925 0.304716
vt 0.691925 0.306732
vt 0.682281 0.306773
vt 0.682281 0.304716
vt 0.693940 0.304716
vt 0.693940 0.579031
vt 0.691925 0.577016
vt 0.691925 0.579031
vt 0.682281 0.579031
vt 0.682281 0.576974
vt 0.030429 0.287497
vt 0.030429 0.032332
vt 0.901992 0.548418
vt 0.892350 0.550475
vt 0.892350 0.548418
vt 0.890294 0.820631
vt 0.890294 0.550475
vt 0.950115 0.546478
vt 0.950115 0.548418
vt 0.695230 0.548418
vt 0.695230 0.546478
vt 0.680225 0.306773
vt 0.680225 0.576974
vt 0.695230 0.291593
vt 0.695230 0.289652
vt 0.950115 0.289652
vt 0.950115 0.291593
vt 0.999396 0.000000
vt 0.999396 0.254176
vt 0.990327 0.254137
vt 0.990327 0.000039
vt 0.045015 0.282627
vt 0.045015 0.028451
vt 0.054083 0.028490
vt 0.054083 0.282587
vt 0.287497 0.030430
vt 0.287497 0.289400
vt 0.032332 0.289400
vt 0.032332 0.030430
vt 0.277953 0.641597
vt 0.277953 0.957107
vt 0.255084 0.957107
vt 0.255084 0.641597
vt 0.277953 0.959047
vt 0.255084 0.959047
vt 0.648018 0.657303
vt 0.648018 0.972022
vt 0.625206 0.972022
vt 0.625206 0.657303
vt 0.623067 0.637178
vt 0.623067 0.639118
vt 0.600198 0.639118
vt 0.600198 0.637178
vt 0.623067 0.954628
vt 0.600198 0.954628
vt 0.960317 0.634109
vt 0.960317 0.319389
vt 0.983129 0.319389
vt 0.983129 0.634109
vt 0.277953 0.639658
vt 0.255084 0.639658
vt 0.623067 0.956567
vt 0.600198 0.956567
vt 0.636759 0.318589
vt 0.638694 0.320524
vt 0.638694 0.635243
vt 0.636759 0.637178
vt 0.322040 0.637178
vt 0.320106 0.635243
vt 0.320106 0.320524
vt 0.322040 0.318589
vn 0.000000 1.000000 0.000000
vn 0.000000 1.000000 0.000000
vn 0.000000 1.000000 0.000000
vn 0.000000 1.000000 0.000000
vn 0.000000 1.000000 0.000000
vn 0.000000 1.000000 0.000000
vn 0.000000 1.000000 0.000000
vn 0.000000 1.000000 0.000000
vn 0.000000 1.000000 0.000000
vn 0.000000 1.000000 0.000000
vn 0.000000 1.000000 0.000000
vn 0.000000 1.000000 0.000000
vn 0.000000 1.000000 0.000000
vn 0.000000 1.000000 0.000000
vn 0.000000 1.000000 0.000000
vn 0.000000 1.000000 0.000000
vn -0.707166 0.003042 0.707041
vn -0.707166 0.003042 0.707041
vn -0.707166 0.003042 0.707041
vn -0.707166 0.003042 0.707041
vn -0.690494 0.723290 0.008346
vn -0.692801 0.721119 0.003786
vn -0.692784 0.721135 -0.003768
vn -0.690514 0.723272 -0.008256
vn -0.003770 0.721093 0.692828
vn -0.008257 0.723231 0.690557
vn 0.008347 0.723249 0.690537
vn 0.003787 0.721078 0.692844
vn 0.707117 0.003044 0.707090
vn 0.707117 0.003044 0.707090
vn 0.707117 0.003044 0.707090
vn 0.707117 0.003044 0.707090
vn 0.692820 0.721101 0.003768
vn 0.690548 0.723239 0.008258
vn 0.690529 0.723257 -0.008346
vn 0.692836 0.721086 -0.003787
vn 0.707054 0.003056 -0.707153
vn 0.707054 0.003056 -0.707153
vn 0.707054 0.003056 -0.707153
vn 0.707054 0.003056 -0.707153
vn 0.003768 0.721147 -0.692772
vn 0.008256 0.723283 -0.690502
vn -0.008344 0.723301 -0.690483
vn -0.003787 0.721131 -0.692788
vn -0.707103 0.003060 -0.707104
vn -0.707103 0.003060 -0.707104
vn -0.707103 0.003060 -0.707104
vn -0.707103 0.003060 -0.707104
vn -0.707120 0.707093 0.000000
vn -0.707120 0.707093 0.000000
vn -0.707120 0.707093 0.000000
vn -0.707120 0.707093 0.000000
vn 0.000000 0.707116 0.707097
vn 0.000000 0.707116 0.707097
vn 0.000000 0.707116 0.707097
vn 0.000000 0.707116 0.707097
vn 0.707085 0.707129 0.000000
vn 0.707085 0.707129 0.000000
vn 0.707085 0.707129 0.000000
vn 0.707085 0.707129 0.000000
vn 0.000000 0.707116 -0.707097
vn 0.000000 0.707116 -0.707097
vn 0.000000 0.707116 -0.707097
vn 0.000000 0.707116 -0.707097
vn 0.000000 1.000000 0.000000
vn 0.000000 1.000000 0.000000
vn 0.000000 1.000000 0.000000
vn 0.000000 1.000000 0.000000
vn 0.000000 1.000000 0.000000
vn 0.000000 1.000000 0.000000
vn 0.000000 1.000000 0.000000
vn 0.000000 1.000000 0.000000
vn 0.000000 1.000000 0.000000
vn 0.000000 1.000000 0.000000
vn 0.000000 1.000000 0.000000
vn 0.000000 1.000000 0.000000
vn 0.000000 1.000000 0.000000
vn 0.000000 1.000000 0.000000
vn 0.000000 1.000000 0.000000
vn 0.000000 1.000000 0.000000
vn 0.000000 1.000000 0.000000
vn 0.000000 1.000000 0.000000
vn 0.000000 1.000000 0.000000
vn 0.000000 1.000000 0.000000
vn 0.000000 0.000000 1.000000
vn 0.000000 0.000000 1.000000
vn 0.000000 0.000000 1.000000
vn 0.000000 0.000000 1.000000
vn 1.000000 -0.000006 0.000000
vn 1.000000 -0.000006 0.000000
vn 1.000000 -0.000006 0.000000
vn 1.000000 -0.000006 0.000000
vn -0.000000 0.000000 -1.000000
vn -0.000000 0.000000 -1.000000
vn -0.000000 0.000000 -1.000000
vn -0.000000 0.000000 -1.000000
vn -1.000000 -0.000003 0.000000
vn -1.000000 -0.000003 0.000000
vn -1.000000 -0.000003 0.000000
vn -1.000000 -0.000003 0.000000
vn -0.692801 0.721119 0.003786
vn -0.690494 0.723290 0.008346
vn -0.008257 0.723231 0.690557
vn -0.003770 0.721093 0.692828
vn 0.003787 0.721078 0.692844
vn 0.008347 0.723249 0.690537
vn 0.690548 0.723239 0.008258
vn 0.692820 0.721101 0.003768
vn 0.692836 0.721086 -0.003787
vn 0.690529 0.723257 -0.008346
vn 0.008256 0.723283 -0.690502
vn 0.003768 0.721147 -0.692772
vn -0.003787 0.721131 -0.692788
vn -0.008344 0.723301 -0.690483
vn -0.690514 0.723272 -0.008256
vn -0.692784 0.721135 -0.003768
vn 0.577343 0.577343 0.577365
vn 0.577343 0.577343 0.577365
vn 0.577343 0.577343 0.577365
vn 0.577343 0.577343 -0.577365
vn 0.577343 0.577343 -0.577365
vn 0.577343 0.577343 -0.577365
vn -0.577385 0.577325 -0.577340
vn -0.577385 0.577325 -0.577340
vn -0.577385 0.577325 -0.577340
vn 1.000000 -0.000000 0.000000
vn 1.000000 -0.000000 0.000000
vn 1.000000 -0.000000 0.000000
vn 1.000000 -0.000000 0.000000
vn 0.707126 -0.000000 0.707088
vn 0.707126 -0.000000 0.707088
vn 0.707126 -0.000000 0.707088
vn 0.707126 -0.000000 0.707088
vn 0.000000 0.000000 1.000000
vn 0.000000 0.000000 1.000000
vn 0.000000 0.000000 1.000000
vn 0.000000 0.000000 1.000000
vn -0.707098 0.000000 0.707116
vn -0.707098 0.000000 0.707116
vn -0.707098 0.000000 0.707116
vn -0.707098 0.000000 0.707116
vn -1.000000 0.000000 0.000000
vn -1.000000 0.000000 0.000000
vn -1.000000 0.000000 0.000000
vn -1.000000 0.000000 0.000000
vn -0.000000 0.000000 -1.000000
vn -0.000000 0.000000 -1.000000
vn -0.000000 0.000000 -1.000000
vn -0.000000 0.000000 -1.000000
vn 0.707076 0.000000 -0.707137
vn 0.707076 0.000000 -0.707137
vn 0.707076 0.000000 -0.707137
vn 0.707076 0.000000 -0.707137
vn -0.707048 0.000000 -0.707165
vn -0.707048 0.000000 -0.707165
vn -0.707048 0.000000 -0.707165
vn -0.707048 0.000000 -0.707165
vn 0.000000 -1.000000 0.000000
vn 0.000000 -1.000000 0.000000
vn 0.000000 -1.000000 0.000000
vn 0.000000 -1.000000 0.000000
vn 0.000000 -1.000000 0.000000
vn 0.000000 -1.000000 0.000000
vn 0.000000 -1.000000 0.000000
vn 0.000000 -1.000000 0.000000
s off
g cajas:pCube152group29
usemtl initialShadingGroup
f 2/1/1 1/2/2 23/3/3 22/4/4
f 4/5/5 3/6/6 19/7/7 18/8/8
f 6/9/9 5/10/10 11/11/11 10/12/12
f 8/13/13 7/14/14 15/15/15 14/16/16
f 9/17/17 12/18/18 26/19/19 25/20/20
f 10/21/21 9/17/22 24/22/23 23/23/24
f 12/24/25 11/11/26 14/16/27 13/25/28
f 13/26/29 16/27/30 30/28/31 29/29/32
f 16/27/33 15/30/34 18/31/35 17/32/36
f 17/32/37 20/33/38 33/34/39 32/35/40
f 20/36/41 19/7/42 22/4/43 21/37/44
f 21/38/45 24/22/46 36/39/47 35/40/48
f 25/20/49 27/41/50 34/42/51 36/39/52
f 27/43/53 26/44/54 29/45/55 28/46/56
f 28/47/57 30/28/58 32/35/59 31/48/60
f 31/49/61 33/50/62 35/51/63 34/52/64
f 27/43/65 28/46/66 31/49/67 34/52/68
f 5/10/69 8/13/70 14/16/71 11/11/72
f 7/14/73 4/5/74 18/8/75 15/15/76
f 3/6/77 2/1/78 22/4/79 19/7/80
f 1/2/81 6/9/82 10/12/83 23/3/84
f 12/53/85 13/54/86 29/55/87 26/56/88
f 16/27/89 17/32/90 32/35/91 30/28/92
f 20/57/93 21/58/94 35/59/95 33/60/96
f 24/22/97 9/17/98 25/20/99 36/39/100
f 9/61/101 10/12/102 11/11/103 12/24/104
f 13/25/105 14/16/106 15/15/107 16/62/108
f 17/63/109 18/8/110 19/7/111 20/36/112
f 21/37/113 22/4/114 23/3/115 24/64/116
f 28/47/117 29/29/118 30/28/119
f 31/48/120 32/35/121 33/34/122
f 34/42/123 35/40/124 36/39/125
f 6/65/126 1/66/127 38/67/128 37/68/129
f 1/66/130 2/69/131 39/70/132 38/67/133
f 2/71/134 3/72/135 40/73/136 39/74/137
f 3/75/138 4/76/139 41/77/140 40/78/141
f 4/76/142 7/79/143 42/80/144 41/77/145
f 8/81/146 5/82/147 44/83/148 43/84/149
f 5/85/150 6/65/151 37/68/152 44/86/153
f 7/79/154 8/87/155 43/88/156 42/80/157
f 38/89/158 39/90/159 40/91/160 41/92/161 42/93/162 43/94/163 44/95/164 37/96/165
g default
v -0.069167 0.287239 1.375782
v -0.069167 2.719124 -1.046539
v -0.069167 2.391180 -1.375782
v -0.069167 -0.040710 1.046539
v 0.069167 0.267715 1.356183
v 0.041506 0.287239 1.375782
v 0.041506 2.719124 -1.046539
v 0.069167 2.699605 -1.066138
v 0.069167 2.410700 -1.356183
v 0.041506 2.391180 -1.375782
v 0.041506 -0.040710 1.046539
v 0.069167 -0.021185 1.066143
vt 0.151757 0.369763
vt 0.160809 0.369763
vt 0.160809 0.567882
vt 0.151757 0.567882
vt 0.151757 0.594810
vt 0.160809 0.594810
vt 0.160809 0.396691
vt 0.151757 0.396691
vt 0.914399 0.918010
vt 0.637451 0.639967
vt 0.670611 0.606937
vt 0.947560 0.884979
vt 0.635210 0.642199
vt 0.912158 0.920241
vt 0.949801 0.882747
vt 0.672853 0.604704
vt 0.947322 0.036603
vt 0.676959 0.308034
vt 0.640211 0.271431
vt 0.910574 0.000000
vt 0.664890 0.043658
vt 0.650215 0.043658
vt 0.650215 0.000000
vt 0.664890 0.000000
vt 0.668558 0.002600
vt 0.668558 0.041059
vt 0.163071 0.569485
vt 0.163071 0.593208
vn 0.000000 0.705712 0.708498
vn 0.000000 0.705712 0.708498
vn 0.000000 0.705712 0.708498
vn 0.000000 0.705712 0.708498
vn 0.000000 -0.705712 -0.708499
vn 0.000000 -0.705712 -0.708499
vn 0.000000 -0.705712 -0.708499
vn 0.000000 -0.705712 -0.708499
vn 1.000000 -0.000000 0.000000
vn 1.000000 -0.000000 0.000000
vn 1.000000 -0.000000 0.000000
vn 1.000000 -0.000000 0.000000
vn 0.707101 0.499019 0.500987
vn 0.707101 0.499019 0.500987
vn 0.707101 0.499019 0.500987
vn 0.707101 0.499019 0.500987
vn 0.707116 -0.499009 -0.500976
vn 0.707116 -0.499009 -0.500976
vn 0.707116 -0.499009 -0.500976
vn 0.707116 -0.499009 -0.500976
vn -1.000000 0.000000 0.000000
vn -1.000000 0.000000 0.000000
vn -1.000000 0.000000 0.000000
vn -1.000000 0.000000 0.000000
vn -0.000004 -0.708500 0.705711
vn -0.000004 -0.708500 0.705710
vn -0.000004 -0.708500 0.705710
vn -0.000004 -0.708500 0.705710
vn -0.000004 -0.708500 0.705711
vn -0.000004 -0.708500 0.705710
vn 0.000004 0.708500 -0.705711
vn 0.000004 0.708500 -0.705711
vn 0.000004 0.708500 -0.705711
vn 0.000004 0.708500 -0.705711
vn 0.000004 0.708500 -0.705711
vn 0.000004 0.708500 -0.705711
s off
g cajas:caja_Bara_pCube153group29
usemtl initialShadingGroup
f 45/97/166 50/98/167 51/99/168 46/100/169
f 47/101/170 54/102/171 55/103/172 48/104/173
f 52/105/174 49/106/175 56/107/176 53/108/177
f 50/109/178 49/106/179 52/105/180 51/110/181
f 54/111/182 53/108/183 56/107/184 55/112/185
f 45/113/186 46/114/187 47/115/188 48/116/189
f 50/117/190 45/118/191 48/119/192 55/120/193 56/121/194 49/122/195
f 51/99/196 52/123/197 53/124/198 54/102/199 47/101/200 46/100/201
g default
v -1.374992 -0.151998 2.559621
v 1.047334 -0.151998 0.127731
v 1.376578 -0.151998 0.455680
v -1.045748 -0.151998 2.887570
v -1.355393 -0.013664 2.579140
v -1.374992 -0.041330 2.559621
v 1.047334 -0.041330 0.127731
v 1.066934 -0.013664 0.147250
v 1.356979 -0.013664 0.436161
v 1.376578 -0.041330 0.455680
v -1.045748 -0.041330 2.887570
v -1.065348 -0.013664 2.868045
v 1.427201 0.017334 2.899972
v 1.409867 0.017334 2.917306
v -1.409867 0.017334 2.917306
v -1.427201 0.017334 2.899972
v 1.409867 0.017334 0.062908
v 1.427201 0.017334 0.080237
v -1.427201 0.017334 0.080237
v -1.409867 0.017334 0.062908
v 1.155625 0.000350 0.351463
v 1.173129 0.017334 0.334479
v 1.155625 0.017334 0.316811
v 1.138647 0.000350 0.334479
v -1.138641 0.000350 0.334479
v -1.155625 0.017334 0.316975
v -1.173294 0.017334 0.334479
v -1.155625 0.000350 0.351463
v -1.155625 0.000350 2.628751
v -1.173129 0.017334 2.645730
v -1.155625 0.017334 2.663398
v -1.138641 0.000350 2.645730
v 1.138647 0.000350 2.645730
v 1.155625 0.017334 2.663234
v 1.173294 0.017334 2.645730
v 1.155625 0.000350 2.628751
v 1.155625 -0.080900 0.351808
v 1.138296 -0.080900 0.334479
v 1.138296 -0.098229 0.351808
v -1.138291 -0.098229 0.351808
v -1.138291 -0.080900 0.334479
v -1.155625 -0.080900 0.351808
v -1.138291 -0.098229 2.628395
v -1.155625 -0.080900 2.628395
v -1.138291 -0.080900 2.645730
v 1.138296 -0.098229 2.628395
v 1.138296 -0.080900 2.645730
v 1.155625 -0.080900 2.628395
v 1.427201 -0.187048 0.080237
v 1.427201 -0.187048 2.899972
v 1.409867 -0.187048 2.917306
v -1.409867 -0.187048 2.917306
v -1.427201 -0.187048 2.899972
v -1.427201 -0.187048 0.080237
v -1.409867 -0.187048 0.062908
v 1.409867 -0.187048 0.062908
vt 0.985325 0.365503
vt 1.000000 0.365503
vt 1.000000 0.687973
vt 0.985325 0.687973
vt 0.650215 0.672367
vt 0.664889 0.672367
vt 0.664889 0.994837
vt 0.650215 0.994837
vt 0.564286 0.950473
vt 0.287335 0.672428
vt 0.320497 0.639397
vt 0.597448 0.917441
vt 0.285094 0.674660
vt 0.562046 0.952705
vt 0.599689 0.915209
vt 0.322738 0.637164
vt 0.000000 0.321772
vt 0.001942 0.319829
vt 0.030429 0.348279
vt 0.028468 0.350259
vt 0.001942 0.639658
vt 0.000000 0.637716
vt 0.028450 0.609229
vt 0.030429 0.611190
vt 0.317887 0.319829
vt 0.319828 0.321772
vt 0.291379 0.350259
vt 0.289400 0.348297
vt 0.319828 0.637716
vt 0.317887 0.639658
vt 0.289400 0.611209
vt 0.291361 0.609229
vt 0.676918 0.580266
vt 0.676918 0.582281
vt 0.667276 0.582281
vt 0.667276 0.580225
vt 0.678933 0.582281
vt 0.676918 0.310027
vt 0.678933 0.308012
vt 0.289400 0.352161
vt 0.289400 0.607326
vt 0.987022 0.043738
vt 0.987022 0.045753
vt 0.977379 0.045794
vt 0.977379 0.043738
vt 0.989038 0.043738
vt 0.989038 0.318051
vt 0.987022 0.316036
vt 0.987022 0.318051
vt 0.977379 0.318051
vt 0.977379 0.315994
vt 0.030429 0.607326
vt 0.030429 0.352161
vt 0.676918 0.308012
vt 0.667276 0.310069
vt 0.667276 0.308012
vt 0.665220 0.580225
vt 0.665220 0.310069
vt 0.254885 0.896484
vt 0.254885 0.898424
vt 0.000000 0.898424
vt 0.000000 0.896484
vt 0.975322 0.045794
vt 0.975322 0.315994
vt 0.000000 0.641599
vt 0.000000 0.639658
vt 0.254885 0.639658
vt 0.254885 0.641599
vt 0.044080 0.028451
vt 0.044080 0.282626
vt 0.035012 0.282586
vt 0.035012 0.028490
vt 0.640211 0.254174
vt 0.640211 0.000000
vt 0.649280 0.000039
vt 0.649280 0.254135
vt 0.287497 0.350259
vt 0.287497 0.609229
vt 0.032332 0.609229
vt 0.032332 0.350259
vt 0.973183 0.001939
vt 0.973183 0.317449
vt 0.950314 0.317449
vt 0.950314 0.001939
vt 0.973183 0.319389
vt 0.950314 0.319389
vt 0.983129 0.634109
vt 0.983129 0.948829
vt 0.960317 0.948829
vt 0.960317 0.634109
vt 0.958178 0.548418
vt 0.958178 0.550358
vt 0.935309 0.550358
vt 0.935309 0.548418
vt 0.958178 0.865868
vt 0.935309 0.865868
vt 0.640211 0.611099
vt 0.640211 0.296379
vt 0.663023 0.296379
vt 0.663023 0.611099
vt 0.973183 0.000000
vt 0.950314 0.000000
vt 0.958178 0.867807
vt 0.935309 0.867807
vt 0.636759 0.000000
vt 0.638694 0.001935
vt 0.638694 0.316655
vt 0.636759 0.318589
vt 0.322040 0.318589
vt 0.320106 0.316655
vt 0.320106 0.001935
vt 0.322040 0.000000
vn -0.708499 0.000000 -0.705712
vn -0.708499 0.000000 -0.705712
vn -0.708499 0.000000 -0.705712
vn -0.708499 0.000000 -0.705712
vn 0.708498 -0.000000 0.705713
vn 0.708498 -0.000000 0.705713
vn 0.708498 -0.000000 0.705713
vn 0.708498 -0.000000 0.705713
vn 0.000000 1.000000 0.000000
vn 0.000000 1.000000 0.000000
vn 0.000000 1.000000 0.000000
vn 0.000000 1.000000 0.000000
vn -0.500996 0.707091 -0.499024
vn -0.500996 0.707091 -0.499024
vn -0.500996 0.707091 -0.499024
vn -0.500996 0.707091 -0.499024
vn 0.500990 0.707098 0.499021
vn 0.500990 0.707098 0.499021
vn 0.500990 0.707098 0.499021
vn 0.500990 0.707098 0.499021
vn 0.000000 1.000000 0.000000
vn 0.000000 1.000000 0.000000
vn 0.000000 1.000000 0.000000
vn 0.000000 1.000000 0.000000
vn 0.000000 1.000000 0.000000
vn 0.000000 1.000000 0.000000
vn 0.000000 1.000000 0.000000
vn 0.000000 1.000000 0.000000
vn 0.000000 1.000000 0.000000
vn 0.000000 1.000000 0.000000
vn 0.000000 1.000000 0.000000
vn 0.000000 1.000000 0.000000
vn 0.000000 1.000000 0.000000
vn 0.000000 1.000000 0.000000
vn 0.000000 1.000000 0.000000
vn 0.000000 1.000000 0.000000
vn -0.707166 0.003042 0.707041
vn -0.707166 0.003042 0.707041
vn -0.707166 0.003042 0.707041
vn -0.707166 0.003042 0.707041
vn -0.690494 0.723290 0.008346
vn -0.692801 0.721119 0.003786
vn -0.692784 0.721135 -0.003768
vn -0.690514 0.723272 -0.008256
vn -0.003770 0.721093 0.692828
vn -0.008257 0.723231 0.690557
vn 0.008347 0.723249 0.690537
vn 0.003787 0.721078 0.692844
vn 0.707117 0.003044 0.707090
vn 0.707117 0.003044 0.707090
vn 0.707117 0.003044 0.707090
vn 0.707117 0.003044 0.707090
vn 0.692820 0.721101 0.003768
vn 0.690548 0.723239 0.008258
vn 0.690529 0.723257 -0.008346
vn 0.692836 0.721086 -0.003787
vn 0.707054 0.003056 -0.707153
vn 0.707054 0.003056 -0.707153
vn 0.707054 0.003056 -0.707153
vn 0.707054 0.003056 -0.707153
vn 0.003768 0.721147 -0.692772
vn 0.008256 0.723283 -0.690502
vn -0.008344 0.723301 -0.690483
vn -0.003787 0.721131 -0.692788
vn -0.707103 0.003060 -0.707104
vn -0.707103 0.003060 -0.707104
vn -0.707103 0.003060 -0.707104
vn -0.707103 0.003060 -0.707104
vn -0.707120 0.707093 0.000000
vn -0.707120 0.707093 0.000000
vn -0.707120 0.707093 0.000000
vn -0.707120 0.707093 0.000000
vn 0.000000 0.707116 0.707097
vn 0.000000 0.707116 0.707097
vn 0.000000 0.707116 0.707097
vn 0.000000 0.707116 0.707097
vn 0.707085 0.707129 0.000000
vn 0.707085 0.707129 0.000000
vn 0.707085 0.707129 0.000000
vn 0.707085 0.707129 0.000000
vn 0.000000 0.707116 -0.707097
vn 0.000000 0.707116 -0.707097
vn 0.000000 0.707116 -0.707097
vn 0.000000 0.707116 -0.707097
vn 0.000000 1.000000 0.000000
vn 0.000000 1.000000 0.000000
vn 0.000000 1.000000 0.000000
vn 0.000000 1.000000 0.000000
vn 0.000000 1.000000 0.000000
vn 0.000000 1.000000 0.000000
vn 0.000000 1.000000 0.000000
vn 0.000000 1.000000 0.000000
vn 0.000000 1.000000 0.000000
vn 0.000000 1.000000 0.000000
vn 0.000000 1.000000 0.000000
vn 0.000000 1.000000 0.000000
vn 0.000000 1.000000 0.000000
vn 0.000000 1.000000 0.000000
vn 0.000000 1.000000 0.000000
vn 0.000000 1.000000 0.000000
vn 0.000000 1.000000 0.000000
vn 0.000000 1.000000 0.000000
vn 0.000000 1.000000 0.000000
vn 0.000000 1.000000 0.000000
vn 0.000000 0.000000 1.000000
vn 0.000000 0.000000 1.000000
vn 0.000000 0.000000 1.000000
vn 0.000000 0.000000 1.000000
vn 1.000000 -0.000006 0.000000
vn 1.000000 -0.000006 0.000000
vn 1.000000 -0.000006 0.000000
vn 1.000000 -0.000006 0.000000
vn -0.000000 0.000000 -1.000000
vn -0.000000 0.000000 -1.000000
vn -0.000000 0.000000 -1.000000
vn -0.000000 0.000000 -1.000000
vn -1.000000 -0.000003 0.000000
vn -1.000000 -0.000003 0.000000
vn -1.000000 -0.000003 0.000000
vn -1.000000 -0.000003 0.000000
vn -0.692801 0.721119 0.003786
vn -0.690494 0.723290 0.008346
vn -0.008257 0.723231 0.690557
vn -0.003770 0.721093 0.692828
vn 0.003787 0.721078 0.692844
vn 0.008347 0.723249 0.690537
vn 0.690548 0.723239 0.008258
vn 0.692820 0.721101 0.003768
vn 0.692836 0.721086 -0.003787
vn 0.690529 0.723257 -0.008346
vn 0.008256 0.723283 -0.690502
vn 0.003768 0.721147 -0.692772
vn -0.003787 0.721131 -0.692788
vn -0.008344 0.723301 -0.690483
vn -0.690514 0.723272 -0.008256
vn -0.692784 0.721135 -0.003768
vn 0.577343 0.577343 0.577365
vn 0.577343 0.577343 0.577365
vn 0.577343 0.577343 0.577365
vn 0.577343 0.577343 -0.577365
vn 0.577343 0.577343 -0.577365
vn 0.577343 0.577343 -0.577365
vn -0.577385 0.577325 -0.577340
vn -0.577385 0.577325 -0.577340
vn -0.577385 0.577325 -0.577340
vn 1.000000 -0.000000 0.000000
vn 1.000000 -0.000000 0.000000
vn 1.000000 -0.000000 0.000000
vn 1.000000 -0.000000 0.000000
vn 0.707126 -0.000000 0.707088
vn 0.707126 -0.000000 0.707088
vn 0.707126 -0.000000 0.707088
vn 0.707126 -0.000000 0.707088
vn 0.000000 0.000000 1.000000
vn 0.000000 0.000000 1.000000
vn 0.000000 0.000000 1.000000
vn 0.000000 0.000000 1.000000
vn -0.707098 0.000000 0.707116
vn -0.707098 0.000000 0.707116
vn -0.707098 0.000000 0.707116
vn -0.707098 0.000000 0.707116
vn -1.000000 0.000000 0.000000
vn -1.000000 0.000000 0.000000
vn -1.000000 0.000000 0.000000
vn -1.000000 0.000000 0.000000
vn -0.000000 0.000000 -1.000000
vn -0.000000 0.000000 -1.000000
vn -0.000000 0.000000 -1.000000
vn -0.000000 0.000000 -1.000000
vn 0.707076 0.000000 -0.707137
vn 0.707076 0.000000 -0.707137
vn 0.707076 0.000000 -0.707137
vn 0.707076 0.000000 -0.707137
vn -0.707048 0.000000 -0.707165
vn -0.707048 0.000000 -0.707165
vn -0.707048 0.000000 -0.707165
vn -0.707048 0.000000 -0.707165
vn 0.000000 -1.000000 0.000000
vn 0.000000 -1.000000 0.000000
vn 0.000000 -1.000000 0.000000
vn 0.000000 -1.000000 0.000000
vn 0.000000 -1.000000 0.000000
vn 0.000000 -1.000000 0.000000
vn 0.000000 -1.000000 0.000000
vn 0.000000 -1.000000 0.000000
s off
g cajas:pCube151group29
usemtl initialShadingGroup
f 57/125/202 62/126/203 63/127/204 58/128/205
f 59/129/206 66/130/207 67/131/208 60/132/209
f 64/133/210 61/134/211 68/135/212 65/136/213
f 62/137/214 61/134/215 64/133/216 63/138/217
f 66/139/218 65/136/219 68/135/220 67/140/221
f 70/141/222 69/142/223 91/143/224 90/144/225
f 72/145/226 71/146/227 87/147/228 86/148/229
f 74/149/230 73/150/231 79/151/232 78/152/233
f 76/153/234 75/154/235 83/155/236 82/156/237
f 77/157/238 80/158/239 94/159/240 93/160/241
f 78/161/242 77/157/243 92/162/244 91/163/245
f 80/164/246 79/151/247 82/156/248 81/165/249
f 81/166/250 84/167/251 98/168/252 97/169/253
f 84/167/254 83/170/255 86/171/256 85/172/257
f 85/172/258 88/173/259 101/174/260 100/175/261
f 88/176/262 87/147/263 90/144/264 89/177/265
f 89/178/266 92/162/267 104/179/268 103/180/269
f 93/160/270 95/181/271 102/182/272 104/179/273
f 95/183/274 94/184/275 97/185/276 96/186/277
f 96/187/278 98/168/279 100/175/280 99/188/281
f 99/189/282 101/190/283 103/191/284 102/192/285
f 95/183/286 96/186/287 99/189/288 102/192/289
f 73/150/290 76/153/291 82/156/292 79/151/293
f 75/154/294 72/145/295 86/148/296 83/155/297
f 71/146/298 70/141/299 90/144/300 87/147/301
f 69/142/302 74/149/303 78/152/304 91/143/305
f 80/193/306 81/194/307 97/195/308 94/196/309
f 84/167/310 85/172/311 100/175/312 98/168/313
f 88/197/314 89/198/315 103/199/316 101/200/317
f 92/162/318 77/157/319 93/160/320 104/179/321
f 77/201/322 78/152/323 79/151/324 80/164/325
f 81/165/326 82/156/327 83/155/328 84/202/329
f 85/203/330 86/148/331 87/147/332 88/176/333
f 89/177/334 90/144/335 91/143/336 92/204/337
f 96/187/338 97/169/339 98/168/340
f 99/188/341 100/175/342 101/174/343
f 102/182/344 103/180/345 104/179/346
f 74/205/347 69/206/348 106/207/349 105/208/350
f 69/206/351 70/209/352 107/210/353 106/207/354
f 70/211/355 71/212/356 108/213/357 107/214/358
f 71/215/359 72/216/360 109/217/361 108/218/362
f 72/216/363 75/219/364 110/220/365 109/217/366
f 76/221/367 73/222/368 112/223/369 111/224/370
f 73/225/371 74/205/372 105/208/373 112/226/374
f 75/219/375 76/227/376 111/228/377 110/220/378
f 106/229/379 107/230/380 108/231/381 109/232/382 110/233/383 111/234/384 112/235/385 105/236/386
