# This file uses centimeters as units for non-parametric coordinates.

mtllib Botella 1.mtl
g default
v 0.180911 -0.990856 -0.180911
v 0.000000 -0.990856 -0.255846
v -0.180911 -0.990856 -0.180911
v -0.255847 -0.990856 0.000001
v -0.180911 -0.990856 0.180912
v 0.000000 -0.990856 0.255848
v 0.180911 -0.990856 0.180912
v 0.255847 -0.990856 0.000001
v 0.066888 0.986286 -0.066888
v 0.000000 0.986286 -0.094593
v -0.066888 0.986286 -0.066888
v -0.094594 0.986286 0.000000
v -0.066888 0.986286 0.066889
v 0.000000 0.986286 0.094594
v 0.066888 0.986286 0.066889
v 0.094594 0.986286 0.000000
v 0.000000 -0.990856 0.000001
v 0.000000 0.986286 0.000000
v 0.100856 0.899830 0.000001
v 0.071316 0.899830 0.071317
v 0.000000 0.899830 0.100857
v -0.071316 0.899830 0.071317
v -0.100856 0.899830 0.000001
v -0.071316 0.899830 -0.071316
v 0.000000 0.899830 -0.100856
v 0.071316 0.899830 -0.071316
v 0.154085 0.327240 0.000001
v 0.108955 0.327240 0.108955
v 0.000000 0.327240 0.154086
v -0.108955 0.327240 0.108955
v -0.154085 0.327240 0.000001
v -0.108955 0.327240 -0.108955
v 0.000000 0.327240 -0.154085
v 0.108955 0.327240 -0.108955
v 0.265240 0.084064 0.000001
v 0.187553 0.084064 0.187554
v 0.000000 0.084064 0.265240
v -0.187553 0.084064 0.187553
v -0.265240 0.084064 0.000001
v -0.187553 0.084064 -0.187553
v 0.000000 0.084064 -0.265240
v 0.187553 0.084064 -0.187553
v 0.274634 -0.331807 0.000001
v 0.194196 -0.331807 0.194196
v 0.000000 -0.331807 0.274634
v -0.194195 -0.331807 0.194196
v -0.274634 -0.331807 0.000001
v -0.194195 -0.331807 -0.194195
v 0.000000 -0.331807 -0.274634
v 0.194195 -0.331807 -0.194195
v 0.263675 -0.661331 0.000001
v 0.186446 -0.661331 0.186446
v 0.000000 -0.661331 0.263675
v -0.186446 -0.661331 0.186446
v -0.263675 -0.661331 0.000001
v -0.186446 -0.661331 -0.186445
v 0.000000 -0.661331 -0.263674
v 0.186446 -0.661331 -0.186445
v 0.111520 0.895258 0.000001
v 0.078857 0.895258 0.078857
v 0.104596 0.990856 0.000000
v 0.073960 0.990856 0.073961
v 0.000000 0.895258 0.111521
v 0.000000 0.990856 0.104597
v -0.078856 0.895258 0.078857
v -0.073960 0.990856 0.073961
v -0.111520 0.895258 0.000001
v -0.104596 0.990856 0.000000
v -0.078856 0.895258 -0.078856
v -0.073960 0.990856 -0.073961
v 0.000000 0.895258 -0.111519
v 0.000000 0.990856 -0.104595
v 0.078857 0.895258 -0.078856
v 0.073960 0.990856 -0.073961
v 0.108091 0.534982 0.000001
v 0.076432 0.534982 0.076431
v 0.000000 0.534982 0.108091
v -0.076431 0.534982 0.076431
v -0.108090 0.534982 0.000001
v -0.076431 0.534982 -0.076431
v 0.000000 0.534982 -0.108091
v 0.076432 0.534982 -0.076431
vt 0.375000 0.312500
vt 0.406250 0.312500
vt 0.406250 0.375157
vt 0.375000 0.375157
vt 0.437500 0.312500
vt 0.437500 0.375157
vt 0.468750 0.312500
vt 0.468750 0.375157
vt 0.500000 0.312500
vt 0.500000 0.375157
vt 0.531250 0.312500
vt 0.531250 0.375157
vt 0.562500 0.312500
vt 0.562500 0.375157
vt 0.593750 0.312500
vt 0.593750 0.375157
vt 0.625000 0.312500
vt 0.625000 0.375157
vt 0.500000 0.000000
vt 0.610485 0.045765
vt 0.500000 0.150000
vt 0.389515 0.045765
vt 0.343750 0.156250
vt 0.389515 0.266735
vt 0.500000 0.312500
vt 0.610485 0.266735
vt 0.656250 0.156250
vt 0.610485 0.954235
vt 0.500000 1.000000
vt 0.500000 0.837500
vt 0.389515 0.954235
vt 0.343750 0.843750
vt 0.389515 0.733265
vt 0.500000 0.687500
vt 0.610485 0.733265
vt 0.656250 0.843750
vt 0.562500 0.625783
vt 0.593750 0.625783
vt 0.593750 0.688440
vt 0.562500 0.688440
vt 0.531250 0.625783
vt 0.531250 0.688440
vt 0.500000 0.625783
vt 0.500000 0.688440
vt 0.468750 0.625783
vt 0.468750 0.688440
vt 0.437500 0.625783
vt 0.437500 0.688440
vt 0.406250 0.625783
vt 0.406250 0.688440
vt 0.375000 0.625783
vt 0.375000 0.688440
vt 0.625000 0.625783
vt 0.625000 0.688440
vt 0.562500 0.563127
vt 0.593750 0.563127
vt 0.593750 0.585859
vt 0.562500 0.585859
vt 0.531250 0.563127
vt 0.531250 0.585859
vt 0.500000 0.563127
vt 0.500000 0.585859
vt 0.468750 0.563127
vt 0.468750 0.585859
vt 0.437500 0.563127
vt 0.437500 0.585859
vt 0.406250 0.563127
vt 0.406250 0.585859
vt 0.375000 0.563127
vt 0.375000 0.585859
vt 0.625000 0.563127
vt 0.625000 0.585859
vt 0.562500 0.500470
vt 0.593750 0.500470
vt 0.531250 0.500470
vt 0.500000 0.500470
vt 0.468750 0.500470
vt 0.437500 0.500470
vt 0.406250 0.500470
vt 0.375000 0.500470
vt 0.625000 0.500470
vt 0.562500 0.437813
vt 0.593750 0.437813
vt 0.531250 0.437813
vt 0.500000 0.437813
vt 0.468750 0.437813
vt 0.437500 0.437813
vt 0.406250 0.437813
vt 0.375000 0.437813
vt 0.625000 0.437813
vt 0.562500 0.625783
vt 0.593750 0.625783
vt 0.593750 0.688440
vt 0.562500 0.688440
vt 0.531250 0.625783
vt 0.531250 0.688440
vt 0.500000 0.625783
vt 0.500000 0.688440
vt 0.468750 0.625783
vt 0.468750 0.688440
vt 0.437500 0.625783
vt 0.437500 0.688440
vt 0.406250 0.625783
vt 0.406250 0.688440
vt 0.375000 0.625783
vt 0.375000 0.688440
vt 0.625000 0.625783
vt 0.625000 0.688440
vn 0.382587 -0.021940 -0.923659
vn 0.382586 -0.021940 -0.923659
vn 0.382547 -0.026435 -0.923558
vn 0.382547 -0.026435 -0.923558
vn -0.382587 -0.021940 -0.923659
vn -0.382586 -0.021940 -0.923659
vn -0.382547 -0.026435 -0.923558
vn -0.382547 -0.026435 -0.923558
vn -0.923658 -0.021941 -0.382590
vn -0.923658 -0.021941 -0.382590
vn -0.923557 -0.026435 -0.382548
vn -0.923557 -0.026435 -0.382548
vn -0.923656 -0.021941 0.382594
vn -0.923656 -0.021941 0.382594
vn -0.923556 -0.026435 0.382552
vn -0.923556 -0.026435 0.382552
vn -0.382590 -0.021939 0.923658
vn -0.382590 -0.021939 0.923658
vn -0.382548 -0.026435 0.923557
vn -0.382548 -0.026435 0.923557
vn 0.382590 -0.021939 0.923658
vn 0.382590 -0.021939 0.923658
vn 0.382548 -0.026435 0.923557
vn 0.382548 -0.026435 0.923557
vn 0.923656 -0.021941 0.382594
vn 0.923656 -0.021941 0.382593
vn 0.923556 -0.026435 0.382551
vn 0.923556 -0.026435 0.382551
vn 0.923658 -0.021941 -0.382590
vn 0.923658 -0.021941 -0.382590
vn 0.923557 -0.026435 -0.382549
vn 0.923557 -0.026435 -0.382548
vn 0.000000 -1.000000 0.000000
vn 0.000000 -1.000000 0.000000
vn 0.000000 -1.000000 0.000000
vn 0.000000 -1.000000 0.000000
vn 0.000000 -1.000000 0.000000
vn 0.000000 -1.000000 0.000000
vn 0.000000 -1.000000 0.000000
vn 0.000000 -1.000000 0.000000
vn 0.000000 -1.000000 0.000000
vn 0.000000 -1.000000 0.000000
vn 0.000000 -1.000000 0.000000
vn 0.000000 -1.000000 0.000000
vn 0.000000 -1.000000 0.000000
vn 0.000000 -1.000000 0.000000
vn 0.000000 -1.000000 0.000000
vn 0.000000 -1.000000 0.000000
vn 0.000000 -1.000000 0.000000
vn 0.000000 -1.000000 0.000000
vn 0.000000 -1.000000 0.000000
vn 0.000000 -1.000000 0.000000
vn 0.000000 -1.000000 0.000000
vn 0.000000 -1.000000 0.000000
vn 0.000000 -1.000000 0.000000
vn 0.000000 -1.000000 0.000000
vn 0.000000 1.000000 0.000000
vn 0.000000 1.000000 0.000000
vn 0.000000 1.000000 0.000000
vn 0.000000 1.000000 0.000000
vn 0.000000 1.000000 0.000000
vn 0.000000 1.000000 0.000000
vn 0.000000 1.000000 0.000000
vn 0.000000 1.000000 0.000000
vn 0.000000 1.000000 0.000000
vn 0.000000 1.000000 0.000000
vn 0.000000 1.000000 0.000000
vn 0.000000 1.000000 0.000000
vn 0.000000 1.000000 0.000000
vn 0.000000 1.000000 0.000000
vn 0.000000 1.000000 0.000000
vn 0.000000 1.000000 0.000000
vn 0.000000 1.000000 0.000000
vn 0.000000 1.000000 0.000000
vn 0.000000 1.000000 0.000000
vn 0.000000 1.000000 0.000000
vn 0.000000 1.000000 0.000000
vn 0.000000 1.000000 0.000000
vn 0.000000 1.000000 0.000000
vn 0.000000 1.000000 0.000000
vn 0.921817 0.066769 0.381832
vn 0.921817 0.066769 0.381832
vn 0.921817 0.066769 0.381832
vn 0.921817 0.066769 0.381832
vn 0.381833 0.066765 0.921817
vn 0.381833 0.066765 0.921817
vn 0.381833 0.066765 0.921817
vn 0.381833 0.066765 0.921817
vn -0.381832 0.066765 0.921817
vn -0.381832 0.066765 0.921817
vn -0.381832 0.066765 0.921817
vn -0.381832 0.066765 0.921817
vn -0.921818 0.066769 0.381830
vn -0.921818 0.066769 0.381830
vn -0.921818 0.066769 0.381830
vn -0.921818 0.066769 0.381829
vn -0.921817 0.066763 -0.381833
vn -0.921817 0.066763 -0.381833
vn -0.921817 0.066763 -0.381833
vn -0.921817 0.066763 -0.381833
vn -0.381831 0.066760 -0.921818
vn -0.381831 0.066760 -0.921818
vn -0.381831 0.066760 -0.921818
vn -0.381831 0.066760 -0.921818
vn 0.381833 0.066760 -0.921817
vn 0.381833 0.066760 -0.921817
vn 0.381833 0.066760 -0.921817
vn 0.381833 0.066760 -0.921817
vn 0.921816 0.066763 -0.381836
vn 0.921816 0.066763 -0.381836
vn 0.921816 0.066763 -0.381836
vn 0.921816 0.066763 -0.381836
vn 0.870981 0.333518 0.360774
vn 0.870981 0.333518 0.360774
vn 0.919431 0.098008 0.380843
vn 0.919431 0.098008 0.380843
vn 0.360775 0.333517 0.870981
vn 0.360775 0.333517 0.870981
vn 0.380845 0.098008 0.919430
vn 0.380845 0.098008 0.919430
vn -0.360778 0.333516 0.870980
vn -0.360778 0.333516 0.870980
vn -0.380845 0.098008 0.919430
vn -0.380846 0.098008 0.919430
vn -0.870980 0.333517 0.360776
vn -0.870980 0.333517 0.360776
vn -0.919431 0.098008 0.380842
vn -0.919431 0.098008 0.380842
vn -0.870981 0.333518 -0.360774
vn -0.870981 0.333518 -0.360774
vn -0.919432 0.098008 -0.380840
vn -0.919432 0.098008 -0.380840
vn -0.360773 0.333515 -0.870982
vn -0.360773 0.333515 -0.870982
vn -0.380844 0.098008 -0.919430
vn -0.380844 0.098008 -0.919430
vn 0.360774 0.333516 -0.870982
vn 0.360774 0.333516 -0.870982
vn 0.380843 0.098008 -0.919431
vn 0.380843 0.098008 -0.919431
vn 0.870981 0.333517 -0.360774
vn 0.870981 0.333517 -0.360774
vn 0.919432 0.098008 -0.380841
vn 0.919432 0.098008 -0.380841
vn 0.915362 0.135475 0.379156
vn 0.915362 0.135475 0.379156
vn 0.870981 0.333518 0.360774
vn 0.870981 0.333518 0.360774
vn 0.379155 0.135475 0.915362
vn 0.379155 0.135475 0.915362
vn 0.360775 0.333517 0.870981
vn 0.360775 0.333517 0.870981
vn -0.379156 0.135475 0.915362
vn -0.379156 0.135475 0.915362
vn -0.360778 0.333516 0.870980
vn -0.360778 0.333516 0.870980
vn -0.915361 0.135475 0.379157
vn -0.915361 0.135475 0.379157
vn -0.870980 0.333517 0.360776
vn -0.870980 0.333517 0.360776
vn -0.915361 0.135475 -0.379157
vn -0.915361 0.135475 -0.379157
vn -0.870981 0.333518 -0.360774
vn -0.870981 0.333518 -0.360774
vn -0.379157 0.135474 -0.915362
vn -0.379157 0.135474 -0.915362
vn -0.360773 0.333515 -0.870982
vn -0.360773 0.333515 -0.870982
vn 0.379158 0.135474 -0.915361
vn 0.379158 0.135475 -0.915361
vn 0.360774 0.333516 -0.870982
vn 0.360774 0.333516 -0.870982
vn 0.915361 0.135475 -0.379157
vn 0.915361 0.135475 -0.379157
vn 0.870981 0.333517 -0.360774
vn 0.870981 0.333517 -0.360774
vn 0.923877 -0.001870 0.382684
vn 0.923877 -0.001870 0.382684
vn 0.915362 0.135475 0.379156
vn 0.915362 0.135475 0.379156
vn 0.382681 -0.001871 0.923879
vn 0.382681 -0.001871 0.923879
vn 0.379155 0.135475 0.915362
vn 0.379155 0.135475 0.915362
vn -0.382681 -0.001871 0.923879
vn -0.382681 -0.001871 0.923879
vn -0.379156 0.135475 0.915362
vn -0.379156 0.135475 0.915362
vn -0.923877 -0.001870 0.382684
vn -0.923877 -0.001870 0.382684
vn -0.915361 0.135475 0.379157
vn -0.915361 0.135475 0.379157
vn -0.923878 -0.001870 -0.382683
vn -0.923878 -0.001870 -0.382683
vn -0.915361 0.135475 -0.379157
vn -0.915361 0.135475 -0.379157
vn -0.382684 -0.001871 -0.923877
vn -0.382684 -0.001871 -0.923877
vn -0.379157 0.135474 -0.915362
vn -0.379157 0.135474 -0.915362
vn 0.382684 -0.001871 -0.923877
vn 0.382684 -0.001871 -0.923877
vn 0.379158 0.135475 -0.915361
vn 0.379158 0.135474 -0.915361
vn 0.923878 -0.001870 -0.382683
vn 0.923878 -0.001870 -0.382683
vn 0.915361 0.135475 -0.379157
vn 0.915361 0.135475 -0.379157
vn 0.923556 -0.026435 0.382551
vn 0.923556 -0.026435 0.382551
vn 0.923877 -0.001870 0.382684
vn 0.923877 -0.001870 0.382684
vn 0.382548 -0.026435 0.923557
vn 0.382548 -0.026435 0.923557
vn 0.382681 -0.001871 0.923879
vn 0.382681 -0.001871 0.923879
vn -0.382548 -0.026435 0.923557
vn -0.382548 -0.026435 0.923557
vn -0.382681 -0.001871 0.923879
vn -0.382681 -0.001871 0.923879
vn -0.923556 -0.026435 0.382552
vn -0.923556 -0.026435 0.382552
vn -0.923877 -0.001870 0.382684
vn -0.923877 -0.001870 0.382684
vn -0.923557 -0.026435 -0.382548
vn -0.923557 -0.026435 -0.382548
vn -0.923878 -0.001870 -0.382683
vn -0.923878 -0.001870 -0.382683
vn -0.382547 -0.026435 -0.923558
vn -0.382547 -0.026435 -0.923558
vn -0.382684 -0.001871 -0.923877
vn -0.382684 -0.001871 -0.923877
vn 0.382547 -0.026435 -0.923558
vn 0.382547 -0.026435 -0.923558
vn 0.382684 -0.001871 -0.923877
vn 0.382684 -0.001871 -0.923877
vn 0.923557 -0.026435 -0.382548
vn 0.923557 -0.026435 -0.382549
vn 0.923878 -0.001870 -0.382683
vn 0.923878 -0.001870 -0.382683
vn -0.388894 -0.907088 -0.161101
vn -0.388894 -0.907088 -0.161101
vn -0.388894 -0.907088 -0.161101
vn -0.388894 -0.907088 -0.161101
vn -0.409565 0.896366 -0.169659
vn -0.409565 0.896366 -0.169659
vn -0.409565 0.896366 -0.169659
vn -0.409565 0.896366 -0.169659
vn -0.161081 -0.907100 -0.388874
vn -0.161081 -0.907099 -0.388875
vn -0.161081 -0.907100 -0.388874
vn -0.161081 -0.907099 -0.388875
vn -0.169634 0.896382 -0.409540
vn -0.169634 0.896383 -0.409540
vn -0.169634 0.896382 -0.409540
vn -0.169634 0.896382 -0.409540
vn 0.161083 -0.907111 -0.388846
vn 0.161083 -0.907111 -0.388846
vn 0.161083 -0.907111 -0.388846
vn 0.161083 -0.907111 -0.388846
vn 0.169630 0.896365 -0.409579
vn 0.169630 0.896365 -0.409579
vn 0.169630 0.896365 -0.409579
vn 0.169630 0.896365 -0.409579
vn 0.388893 -0.907085 -0.161118
vn 0.388893 -0.907085 -0.161118
vn 0.388893 -0.907085 -0.161118
vn 0.388893 -0.907085 -0.161118
vn 0.409569 0.896375 -0.169604
vn 0.409569 0.896375 -0.169604
vn 0.409569 0.896375 -0.169604
vn 0.409569 0.896375 -0.169604
vn 0.388898 -0.907086 0.161103
vn 0.388898 -0.907086 0.161103
vn 0.388898 -0.907086 0.161103
vn 0.388898 -0.907086 0.161103
vn 0.409568 0.896372 0.169624
vn 0.409568 0.896371 0.169624
vn 0.409568 0.896371 0.169624
vn 0.409568 0.896372 0.169624
vn 0.161098 -0.907090 0.388889
vn 0.161098 -0.907090 0.388889
vn 0.161098 -0.907090 0.388889
vn 0.161098 -0.907090 0.388889
vn 0.169645 0.896373 0.409556
vn 0.169645 0.896373 0.409556
vn 0.169645 0.896373 0.409556
vn 0.169645 0.896373 0.409556
vn -0.161099 -0.907096 0.388874
vn -0.161099 -0.907096 0.388874
vn -0.161099 -0.907096 0.388874
vn -0.161099 -0.907096 0.388874
vn -0.169648 0.896390 0.409517
vn -0.169648 0.896390 0.409517
vn -0.169648 0.896390 0.409517
vn -0.169648 0.896390 0.409517
vn -0.388897 -0.907083 0.161120
vn -0.388897 -0.907083 0.161120
vn -0.388897 -0.907083 0.161120
vn -0.388898 -0.907083 0.161120
vn -0.409564 0.896363 0.169679
vn -0.409564 0.896363 0.169679
vn -0.409564 0.896363 0.169679
vn -0.409564 0.896363 0.169679
vn 0.919431 0.098008 0.380843
vn 0.919431 0.098008 0.380843
vn 0.923724 0.018315 0.382620
vn 0.923724 0.018315 0.382620
vn 0.380845 0.098008 0.919430
vn 0.380845 0.098008 0.919430
vn 0.382621 0.018315 0.923724
vn 0.382621 0.018315 0.923724
vn -0.380846 0.098008 0.919430
vn -0.380845 0.098008 0.919430
vn -0.382620 0.018315 0.923724
vn -0.382620 0.018315 0.923724
vn -0.919431 0.098008 0.380842
vn -0.919431 0.098008 0.380842
vn -0.923725 0.018315 0.382619
vn -0.923725 0.018315 0.382619
vn -0.919432 0.098008 -0.380840
vn -0.919432 0.098008 -0.380840
vn -0.923726 0.018316 -0.382617
vn -0.923726 0.018316 -0.382617
vn -0.380844 0.098008 -0.919430
vn -0.380844 0.098008 -0.919430
vn -0.382621 0.018316 -0.923724
vn -0.382621 0.018316 -0.923724
vn 0.380843 0.098008 -0.919431
vn 0.380843 0.098008 -0.919431
vn 0.382620 0.018316 -0.923724
vn 0.382620 0.018316 -0.923724
vn 0.919432 0.098008 -0.380841
vn 0.919432 0.098008 -0.380841
vn 0.923725 0.018316 -0.382618
vn 0.923725 0.018316 -0.382618
s off
g Botella_3:pCylinder14
usemtl initialShadingGroup
f 1/1/1 2/2/2 57/3/3 58/4/4
f 2/2/5 3/5/6 56/6/7 57/3/8
f 3/5/9 4/7/10 55/8/11 56/6/12
f 4/7/13 5/9/14 54/10/15 55/8/16
f 5/9/17 6/11/18 53/12/19 54/10/20
f 6/11/21 7/13/22 52/14/23 53/12/24
f 7/13/25 8/15/26 51/16/27 52/14/28
f 8/15/29 1/17/30 58/18/31 51/16/32
f 2/19/33 1/20/34 17/21/35
f 3/22/36 2/19/37 17/21/38
f 4/23/39 3/22/40 17/21/41
f 5/24/42 4/23/43 17/21/44
f 6/25/45 5/24/46 17/21/47
f 7/26/48 6/25/49 17/21/50
f 8/27/51 7/26/52 17/21/53
f 1/20/54 8/27/55 17/21/56
f 9/28/57 10/29/58 18/30/59
f 10/29/60 11/31/61 18/30/62
f 11/31/63 12/32/64 18/30/65
f 12/32/66 13/33/67 18/30/68
f 13/33/69 14/34/70 18/30/71
f 14/34/72 15/35/73 18/30/74
f 15/35/75 16/36/76 18/30/77
f 16/36/78 9/28/79 18/30/80
f 60/37/81 59/38/82 61/39/83 62/40/84
f 63/41/85 60/37/86 62/40/87 64/42/88
f 65/43/89 63/41/90 64/42/91 66/44/92
f 67/45/93 65/43/94 66/44/95 68/46/96
f 69/47/97 67/45/98 68/46/99 70/48/100
f 71/49/101 69/47/102 70/48/103 72/50/104
f 73/51/105 71/49/106 72/50/107 74/52/108
f 59/38/109 73/53/110 74/54/111 61/39/112
f 28/55/113 27/56/114 75/57/115 76/58/116
f 29/59/117 28/55/118 76/58/119 77/60/120
f 30/61/121 29/59/122 77/60/123 78/62/124
f 31/63/125 30/61/126 78/62/127 79/64/128
f 32/65/129 31/63/130 79/64/131 80/66/132
f 33/67/133 32/65/134 80/66/135 81/68/136
f 34/69/137 33/67/138 81/68/139 82/70/140
f 27/56/141 34/71/142 82/72/143 75/57/144
f 36/73/145 35/74/146 27/56/147 28/55/148
f 37/75/149 36/73/150 28/55/151 29/59/152
f 38/76/153 37/75/154 29/59/155 30/61/156
f 39/77/157 38/76/158 30/61/159 31/63/160
f 40/78/161 39/77/162 31/63/163 32/65/164
f 41/79/165 40/78/166 32/65/167 33/67/168
f 42/80/169 41/79/170 33/67/171 34/69/172
f 35/74/173 42/81/174 34/71/175 27/56/176
f 44/82/177 43/83/178 35/74/179 36/73/180
f 45/84/181 44/82/182 36/73/183 37/75/184
f 46/85/185 45/84/186 37/75/187 38/76/188
f 47/86/189 46/85/190 38/76/191 39/77/192
f 48/87/193 47/86/194 39/77/195 40/78/196
f 49/88/197 48/87/198 40/78/199 41/79/200
f 50/89/201 49/88/202 41/79/203 42/80/204
f 43/83/205 50/90/206 42/81/207 35/74/208
f 52/14/209 51/16/210 43/83/211 44/82/212
f 53/12/213 52/14/214 44/82/215 45/84/216
f 54/10/217 53/12/218 45/84/219 46/85/220
f 55/8/221 54/10/222 46/85/223 47/86/224
f 56/6/225 55/8/226 47/86/227 48/87/228
f 57/3/229 56/6/230 48/87/231 49/88/232
f 58/4/233 57/3/234 49/88/235 50/89/236
f 51/16/237 58/18/238 50/90/239 43/83/240
f 20/91/241 19/92/242 59/38/243 60/37/244
f 16/93/245 15/94/246 62/40/247 61/39/248
f 21/95/249 20/91/250 60/37/251 63/41/252
f 15/94/253 14/96/254 64/42/255 62/40/256
f 22/97/257 21/95/258 63/41/259 65/43/260
f 14/96/261 13/98/262 66/44/263 64/42/264
f 23/99/265 22/97/266 65/43/267 67/45/268
f 13/98/269 12/100/270 68/46/271 66/44/272
f 24/101/273 23/99/274 67/45/275 69/47/276
f 12/100/277 11/102/278 70/48/279 68/46/280
f 25/103/281 24/101/282 69/47/283 71/49/284
f 11/102/285 10/104/286 72/50/287 70/48/288
f 26/105/289 25/103/290 71/49/291 73/51/292
f 10/104/293 9/106/294 74/52/295 72/50/296
f 19/92/297 26/107/298 73/53/299 59/38/300
f 9/108/301 16/93/302 61/39/303 74/54/304
f 76/58/305 75/57/306 19/92/307 20/91/308
f 77/60/309 76/58/310 20/91/311 21/95/312
f 78/62/313 77/60/314 21/95/315 22/97/316
f 79/64/317 78/62/318 22/97/319 23/99/320
f 80/66/321 79/64/322 23/99/323 24/101/324
f 81/68/325 80/66/326 24/101/327 25/103/328
f 82/70/329 81/68/330 25/103/331 26/105/332
f 75/57/333 82/72/334 26/107/335 19/92/336
